<?xml version="1.0" encoding="utf-8"?>
<!-- Generator: Adobe Illustrator 25.0.0, SVG Export Plug-In . SVG Version: 6.00 Build 0)  -->
<svg version="1.1" id="Calque_1" xmlns="http://www.w3.org/2000/svg" xmlns:xlink="http://www.w3.org/1999/xlink" x="0px" y="0px"
	 viewBox="0 0 80.51 20.68" style="enable-background:new 0 0 80.51 20.68;" xml:space="preserve">
<style type="text/css">
	.st0{fill:#FABC5E;}
	.st1{opacity:0.25;fill:#954795;}
	.st2{fill:#B53B60;}
</style>
<g>
	<g>
		<g>
			<path class="st0" d="M16,6.2c0,0-10.51-7.07-14.33-6.11c-3.82,0.96,5.35,7.64,5.35,7.64s-8.21,1.72-6.88,4.2
				c1.34,2.48,8.79,0,8.79,0s-4.58,5.73-1.34,8.41c3.25,2.67,9.36-11.08,9.36-11.08L16,6.2z"/>
			<path class="st1" d="M16.28,6.96l-5.76-1.3c-0.26-0.06-0.44,0.21-0.27,0.4l2.06,2.18c0.15,0.15,0.05,0.38-0.17,0.4L9.97,8.81
				C9.68,8.84,9.64,9.2,9.92,9.29l2.4,0.8c0.16,0.05,0.23,0.22,0.16,0.35l-1.28,2.32c-0.1,0.17,0.07,0.38,0.29,0.36l4.55-0.41
				c0.13-0.01,0.24-0.11,0.24-0.23l0.22-5.27C16.5,7.1,16.41,6.99,16.28,6.96z"/>
		</g>
		<g>
			<path class="st0" d="M64.51,6.2c0,0,10.51-7.07,14.33-6.11c3.82,0.96-5.35,7.64-5.35,7.64s8.21,1.72,6.88,4.2
				c-1.34,2.48-8.79,0-8.79,0s4.58,5.73,1.34,8.41c-3.25,2.67-9.36-11.08-9.36-11.08L64.51,6.2z"/>
			<path class="st1" d="M64.24,6.96L70,5.66c0.26-0.06,0.44,0.21,0.27,0.4L68.2,8.23c-0.15,0.15-0.05,0.38,0.17,0.4l2.16,0.18
				c0.29,0.02,0.33,0.39,0.05,0.48l-2.4,0.8c-0.16,0.05-0.23,0.22-0.16,0.35l1.28,2.32c0.1,0.17-0.07,0.38-0.29,0.36l-4.55-0.41
				c-0.13-0.01-0.24-0.11-0.24-0.23l-0.22-5.27C64.01,7.1,64.1,6.99,64.24,6.96z"/>
		</g>
	</g>
	<path class="st0" d="M58.1,0.68H22.41c-4.7,0-8.5,3.81-8.5,8.5l0,0c0,4.7,3.81,8.5,8.5,8.5H58.1c4.7,0,8.5-3.81,8.5-8.5l0,0
		C66.61,4.49,62.8,0.68,58.1,0.68z"/>
	<g>
		<path class="st2" d="M22.41,0.68c-1.16,0-2.26,0.23-3.27,0.65v15.7c1.01,0.42,2.11,0.65,3.27,0.65h8.02V0.68H22.41z"/>
		<rect x="34.61" y="0.68" class="st2" width="11.29" height="17.01"/>
		<path class="st2" d="M58.1,0.68h-8.02v17.01h8.02c1.16,0,2.26-0.23,3.27-0.65V1.33C60.36,0.92,59.26,0.68,58.1,0.68z"/>
	</g>
	<path class="st1" d="M60.48,1.03c1.53,1.54,2.48,3.66,2.48,6c0,4.7-3.81,8.5-8.5,8.5H18.77c-0.83,0-1.62-0.12-2.38-0.34
		c1.54,1.55,3.67,2.5,6.02,2.5H58.1c4.7,0,8.5-3.81,8.5-8.5l0,0C66.61,5.32,64.02,2.06,60.48,1.03z"/>
</g>
</svg>
