<?xml version="1.0" encoding="utf-8"?>
<!-- Generator: Adobe Illustrator 25.0.0, SVG Export Plug-In . SVG Version: 6.00 Build 0)  -->
<svg version="1.1" id="Calque_1" xmlns="http://www.w3.org/2000/svg" xmlns:xlink="http://www.w3.org/1999/xlink" x="0px" y="0px"
	 viewBox="0 0 20.27 20.3" style="enable-background:new 0 0 20.27 20.3;" xml:space="preserve">
<style type="text/css">
	.st0{fill:#020203;}
</style>
<path class="st0" d="M18.08,0.16L7.6,4.95C5.31,5.93,5.7,6.19,4.91,7.64c0,0-4,8.3-4.79,10.48c-0.7,2.12,1.71,2.38,2.08,2.08
	c0,0,8.74-3.99,11.08-5.06c1.36-0.56,1.55-1.22,2-2.23c0.18-0.51,3.48-7.59,4.72-10.33C20.87,0.99,19.42-0.51,18.08,0.16z
	 M10.13,12.95c-1.55,0-2.8-1.25-2.8-2.8s1.25-2.8,2.8-2.8s2.8,1.25,2.8,2.8S11.68,12.95,10.13,12.95z"/>
</svg>
