<svg id="bed0ea66-1df3-4b47-a936-8449431e5103" data-name="Calque 1" xmlns="http://www.w3.org/2000/svg" viewBox="0 0 485.62 485.62"><path d="M142.67,124.08c-.52-3.14-1.92-14.06-2-15.3a1.93,1.93,0,0,1,2-2.35c2.11-.1,4.24-.2,6.35-.12,1.89.07,2.89,0,3.39,2.47.63,3.69,1.48,10.92,2.05,14.23l-1.14.1c-.51-3-1.35-9.44-1.8-12.47a2.74,2.74,0,0,0-3.18-2.59c-1.31,0-2.63,0-3.95,0-2.22.06-2.66.63-2.29,2.89.48,3,2,12.33,2.07,13Z" transform="translate(-12.31 -12.31)" style="fill:#fff"/><path d="M142.36,124.49l-.06-.35c-.51-3.07-1.91-14-2-15.33a2.6,2.6,0,0,1,.54-2,2.44,2.44,0,0,1,1.81-.77c2.27-.12,4.33-.2,6.38-.12h.29c1.7,0,2.93.1,3.46,2.75.32,1.88.69,4.66,1.06,7.35s.7,5.26,1,6.89l.07.4-1.89.17-.06-.34c-.32-1.9-.77-5.14-1.17-8-.24-1.73-.47-3.34-.64-4.48a2.36,2.36,0,0,0-2.79-2.26c-.67,0-1.34,0-2,0s-1.29,0-1.94,0c-1,0-1.58.17-1.82.47s-.29.9-.11,2l.3,1.83c.88,5.38,1.74,10.67,1.77,11.2l0,.36Zm5-17.83c-1.5,0-3,.06-4.69.14a1.74,1.74,0,0,0-1.27.52,1.88,1.88,0,0,0-.36,1.43c.11,1.27,1.42,11.47,2,14.93l.73-.07c-.21-1.57-1.18-7.44-1.72-10.76l-.3-1.83a3.25,3.25,0,0,1,.27-2.59,3.18,3.18,0,0,1,2.38-.74c.65,0,1.31,0,2,0s1.32,0,2,0a3.1,3.1,0,0,1,3.56,2.9c.17,1.14.39,2.76.63,4.49.38,2.69.8,5.71,1.11,7.63l.39,0c-.27-1.65-.59-4-.93-6.52-.36-2.68-.73-5.46-1.05-7.31-.41-2.06-1-2.09-2.74-2.14H149C148.43,106.66,147.89,106.66,147.34,106.66Z" transform="translate(-12.31 -12.31)" style="fill:#1d1d1b"/><path d="M282.7,111.22c-.25-1.66-.85-5.26-1.1-6.93-.14-.94-.3-1.88-.42-2.82a2.85,2.85,0,0,0-3.28-2.76c-1.39,0-2.78,0-4.17,0-1.88,0-2.46.91-2.15,2.65.46,2.59,1.19,8.09,1.59,10.69l-1,.09c-.55-3.09-1.4-8.86-1.89-12-.35-2.15.39-3,2.51-3.12,1.89-.06,3.8-.22,5.69-.11s3.07.75,3.52,3.26c.6,3,1.85,10.42,1.88,10.9C283.63,111.16,282.94,111.18,282.7,111.22Z" transform="translate(-12.31 -12.31)" style="fill:#fff"/><path d="M272,112.42l0-.22c-.36-2.08-.87-5.34-1.31-8.21-.21-1.42-.42-2.74-.58-3.76a3.08,3.08,0,0,1,.4-2.55,3,3,0,0,1,2.35-.86l1.46-.06a40.08,40.08,0,0,1,4.25-.05c1.9.1,3.27.73,3.76,3.47.62,3.12,1.85,10.44,1.88,10.92l0,.23-.23,0c-.12,0-.36,0-.61,0l-.56,0-.25,0,0-.25c-.13-.85-.35-2.19-.56-3.52s-.42-2.59-.55-3.41l-.13-.9c-.1-.64-.21-1.28-.29-1.92a2.6,2.6,0,0,0-3-2.55c-1.23,0-2.52,0-4.19,0a2,2,0,0,0-1.65.51,2.22,2.22,0,0,0-.25,1.85c.29,1.59.67,4.31,1,6.7.22,1.54.42,3,.58,4l0,.27Zm5.14-15.25c-.95,0-1.9,0-2.84.09l-1.47.06a2.55,2.55,0,0,0-2,.68,2.72,2.72,0,0,0-.29,2.15c.17,1,.37,2.34.59,3.76.42,2.77.9,5.9,1.26,8l.53,0c-.16-1-.35-2.32-.55-3.74-.34-2.39-.73-5.1-1-6.68a2.69,2.69,0,0,1,.36-2.27,2.42,2.42,0,0,1,2-.68c1.66,0,2.95,0,4.16,0a3.11,3.11,0,0,1,3.54,3c.08.64.18,1.27.28,1.91l.14.9c.12.82.33,2.11.54,3.41s.39,2.44.52,3.29l.36,0,.33,0c-.2-1.38-1.3-7.86-1.85-10.63-.44-2.43-1.54-3-3.3-3.06C278,97.18,277.55,97.17,277.09,97.17Z" transform="translate(-12.31 -12.31)" style="fill:#1d1d1b"/><path d="M123.18,297.29c-3,2.1-5.6,2.6-8.23,1.78,0-1.42-3.36-31.05-5-44.66q-4.31-34.83-8.62-69.65Q98.16,159.67,95,134.55c-.18-1.45-.51-2.64.08-3.7s5.43-1.69,6.1-1.82c2.54,19.07,19.44,149.33,22,168.26h0c0-.35-6.16-47.43-9.44-71.62q-6.43-47.41-13-94.82c-.18-1.36.1-2,1.61-2.17,4.68-.39,9.34-.9,14-1.33,16.57-1.53,193-17.76,193.11-17.29q8.88,70,17.7,140.11Z" transform="translate(-12.31 -12.31)" style="fill:#ed6d86"/><path d="M117.3,299.94a8.4,8.4,0,0,1-2.5-.39l-.35-.11v-.37c0-1.32-3.3-30.5-5-44.6L107.62,240q-3.42-27.61-6.84-55.22-1.35-10.95-2.72-21.9-1.77-14.16-3.52-28.31c0-.25-.06-.49-.1-.72a4.9,4.9,0,0,1,.25-3.28c.41-.73,2.17-1.32,6.06-2l.27,0a3,3,0,0,1,1.32-.37c2.82-.23,5.64-.51,8.46-.79,1.85-.18,3.7-.37,5.55-.54,7.5-.69,55.54-5.11,102.75-9.39,26.45-2.4,47.48-4.29,62.5-5.61,8.4-.74,15.37-1.34,20.23-1.74,8.11-.67,8.1-.67,8.17-.11q8.28,65.25,16.5,130.51l1.26,10.05-.44.1-203.54,47v.06l-.43,0A10.78,10.78,0,0,1,117.3,299.94Zm-1.87-1.25c2.32.62,4.56.12,7.17-1.61l0-.23h.05c-.89-6.68-3.21-24.46-6.07-46.4-1.2-9.06-2.38-17.87-3.31-24.72-4.12-30.37-8.14-59.66-13-94.81a4.07,4.07,0,0,1,0-1.21c-4,.75-4.61,1.25-4.7,1.39a4.07,4.07,0,0,0-.13,2.65c0,.24.07.48.1.74q1.75,14.16,3.52,28.31l2.73,21.9q3.42,27.62,6.83,55.21l1.79,14.44C112,267.08,115.14,294.87,115.43,298.69Zm2.15-48.08c2.67,20.07,5.55,42.08,6,46.07l203.05-46.9-1.16-9.15q-8.19-65-16.43-130.07c-9,.42-163.77,14.62-192.63,17.29l-5.55.54c-2.82.27-5.64.55-8.47.79a2.2,2.2,0,0,0-.66.13c1.39,10.44,6.52,49.89,11.49,88.05C114.75,228.89,116.23,240.22,117.58,250.61Z" transform="translate(-12.31 -12.31)" style="fill:#1d1d1b"/><path d="M126.62,297l200.59-46.82s112.1,38.1,114,38.88c-.29,1.34.16,44.14-1.17,58.08-5.68,2.27-202.53,69.46-204.61,70.31-.15,0-78.45-42.88-106.79-59.78-.54-20.56-.64-40.41-2-60.67" transform="translate(-12.31 -12.31)" style="fill:#ed6d86"/><path d="M235.48,417.94h-.1c-.75,0-83.62-45.88-107-59.85l-.23-.14v-.27c-.14-5.26-.24-10.47-.35-15.65-.32-15.39-.63-29.93-1.62-45l0-.42.41-.1,200.73-46.85.13,0c4.58,1.55,112.14,38.11,114,38.88l.38.16-.08.41c-.08.45-.1,5.56-.12,11.48,0,13.84-.13,37-1,46.54l0,.31-.28.11c-3.47,1.39-76.92,26.54-135.94,46.75-36.42,12.47-67.86,23.23-68.66,23.56Zm-106.4-60.57c28.13,16.75,102.34,57.36,106.33,59.52,2.93-1.05,32-11,68.49-23.5,57.86-19.81,129.58-44.36,135.62-46.62.88-9.67,1-32.47,1-46.14,0-6.56,0-10,.1-11.25-6.84-2.45-109.08-37.21-113.45-38.69l-200,46.69c1,14.95,1.27,29.37,1.59,44.63Q128.89,349.65,129.08,357.37Z" transform="translate(-12.31 -12.31)" style="fill:#1d1d1b"/><path d="M425.55,352c.42-2,.9-4.48,1.35-6.66.65.77,2.22,1.14,2.51,1.49l8-2c1.22-3.11-.22-7.32,3.83-10.31-.44,4.56-.8,8.57-1.23,12.58a1.32,1.32,0,0,1-.84.82C435.1,349.1,429.7,350.9,425.55,352Z" transform="translate(-12.31 -12.31)" style="fill:#fff"/><path d="M424.9,352.73l.16-.8c.21-1,.43-2.13.66-3.26s.47-2.3.69-3.4l.21-1,.66.78a4.56,4.56,0,0,0,1.51.9,5.73,5.73,0,0,1,.74.36l7.48-1.87a13.14,13.14,0,0,0,.51-3c.24-2.43.51-5.17,3.4-7.3l.9-.66-.36,3.8c-.32,3.44-.63,6.69-1,9.89a1.79,1.79,0,0,1-1.19,1.25c-1.85.53-3.94,1.17-6.15,1.86-2.55.79-5.2,1.6-7.46,2.22Zm2.32-6.45c-.17.85-.34,1.72-.52,2.59s-.33,1.67-.5,2.46c2.06-.58,4.39-1.3,6.65-2s4.3-1.33,6.16-1.86a1,1,0,0,0,.48-.41c.34-3.18.65-6.43,1-9.87l.13-1.44c-1.68,1.72-1.88,3.79-2.08,5.8a12.78,12.78,0,0,1-.67,3.49l-.09.24-8.53,2.14-.2-.24a5.28,5.28,0,0,0-.64-.32A8.46,8.46,0,0,1,427.22,346.28Z" transform="translate(-12.31 -12.31)" style="fill:#1d1d1b"/><path d="M251.42,411.84a3,3,0,0,0-2.47-2.58l-11,2.95c-1.23-3.11-.58-10-3.06-11-1.72,1.58,1.65,12.51-1.42,11.56-5.1-1.58-12.46-7.81-13-4.18,0,.31,14.59,8.95,14.93,8.83C239.76,415.89,246.54,413.57,251.42,411.84Z" transform="translate(-12.31 -12.31)" style="fill:#fff"/><path d="M235.5,417.92c-1.13,0-13.61-7.72-13.73-7.8C220,409,220,408.94,220,408.67v-.13a1.67,1.67,0,0,1,.88-1.36c1.36-.69,3.8.65,6.89,2.34a34.48,34.48,0,0,0,5.85,2.79c.23.07.31,0,.34,0,.58-.47.33-3.26.14-5.29-.26-2.83-.49-5.29.46-6.15l.23-.21.29.12c1.82.71,2.15,3.65,2.51,6.76a24.59,24.59,0,0,0,.68,4.07L249,408.74l.12,0a3.5,3.5,0,0,1,2.84,3l.08.43-.41.14c-2.64.94-5.85,2.05-8.93,3.12l-7.11,2.48ZM221,408.43c1.67,1.2,12.92,7.85,14.37,8.48,2-.7,4.42-1.54,7-2.42,2.91-1,5.93-2.06,8.49-3a2.39,2.39,0,0,0-1.87-1.74l-11.36,3-.16-.41a20.47,20.47,0,0,1-.88-4.74c-.27-2.31-.56-4.9-1.55-5.75-.33.92-.12,3.26,0,5,.27,2.87.5,5.35-.5,6.16a1.29,1.29,0,0,1-1.27.18,35.86,35.86,0,0,1-6-2.86c-2.37-1.3-5.06-2.78-6-2.33A.55.55,0,0,0,221,408.43Z" transform="translate(-12.31 -12.31)" style="fill:#1d1d1b"/><polygon points="428.48 278.34 223.67 345.1 114.31 284.68 314.9 237.86 428.48 278.34" style="fill:#fff"/><path d="M235.93,358l-.19-.1L125.24,296.8l202-47.15.14,0,115,41ZM128,297.18l108,59.68,203.21-66.23L327.18,250.69Z" transform="translate(-12.31 -12.31)" style="fill:#1d1d1b"/><polygon points="223.62 345.64 223.43 345.54 114.07 285.12 114.56 284.24 223.72 344.56 428.32 277.87 428.63 278.82 223.62 345.64" style="fill:#1d1d1b"/><path d="M325.33,357.56l-14,4.54c-2.06.67-3.75-.47-3.75-2.53v-5.48a5.66,5.66,0,0,1,3.75-5l14-4.54c2.06-.67,3.75.47,3.75,2.53v5.48A5.66,5.66,0,0,1,325.33,357.56Z" transform="translate(-12.31 -12.31)" style="fill:#fff"/><path d="M310.23,362.79a3,3,0,0,1-3.11-3.22v-5.48a6.2,6.2,0,0,1,4.1-5.45l14-4.53a3.46,3.46,0,0,1,3.16.36,3.15,3.15,0,0,1,1.24,2.64v5.48a6.2,6.2,0,0,1-4.1,5.45l-14,4.53A4,4,0,0,1,310.23,362.79Zm16.26-17.9a3.1,3.1,0,0,0-1,.17l-14,4.53a5.19,5.19,0,0,0-3.41,4.5v5.48a2.21,2.21,0,0,0,.83,1.84,2.49,2.49,0,0,0,2.27.21l14-4.53a5.2,5.2,0,0,0,3.4-4.5v-5.48a2.19,2.19,0,0,0-.83-1.84A2.14,2.14,0,0,0,326.49,344.89Z" transform="translate(-12.31 -12.31)" style="fill:#1d1d1b"/><path d="M377.81,340.9l-14,4.54c-2.06.67-3.75-.47-3.75-2.53v-5.48a5.66,5.66,0,0,1,3.75-5l14-4.54c2.07-.67,3.75.47,3.75,2.54v5.47A5.64,5.64,0,0,1,377.81,340.9Z" transform="translate(-12.31 -12.31)" style="fill:#fff"/><path d="M362.71,346.13a3,3,0,0,1-3.11-3.22v-5.48a6.2,6.2,0,0,1,4.1-5.45l14-4.53a3.52,3.52,0,0,1,3.16.35,3.19,3.19,0,0,1,1.24,2.66v5.47a6.18,6.18,0,0,1-4.09,5.45l-14,4.54A4.3,4.3,0,0,1,362.71,346.13ZM379,328.23a3,3,0,0,0-1,.17l-14,4.53a5.19,5.19,0,0,0-3.41,4.5v5.48a2.21,2.21,0,0,0,.83,1.84,2.49,2.49,0,0,0,2.27.21l14-4.53a5.2,5.2,0,0,0,3.4-4.5v-5.47a2.19,2.19,0,0,0-.83-1.85A2.14,2.14,0,0,0,379,328.23Z" transform="translate(-12.31 -12.31)" style="fill:#1d1d1b"/><path d="M349.2,364.61c14.9-3.65,23.47-16.13,22.83-25.52-.63-5,1.15-5.86,3-4.39,3,2.3.16,6.17-.4,8.77-2.14,10-8.53,21.15-24.5,25.07s-31.86-.76-33.33-10.88c-.39-2.69-2.54-2.7-3.19-3.16-4-2.93,2.38-4,4.33-2.95.93.48.17,1.65.8,3.45C322.56,363.61,334.3,368.27,349.2,364.61Z" transform="translate(-12.31 -12.31)" style="fill:#fff"/><path d="M339,370.41c-6.66,0-12.76-1.49-17-4.33a12.21,12.21,0,0,1-5.68-8.35,2.79,2.79,0,0,0-2.21-2.47,3.15,3.15,0,0,1-.78-.36c-1.76-1.27-1.68-2.25-1.31-2.86.9-1.47,4.68-1.7,6.16-.94.78.41.78,1.14.79,1.86a5.36,5.36,0,0,0,.25,1.87c3.94,9,15.94,12.71,29.84,9.3h0c14.66-3.6,23.07-15.78,22.44-25-.46-3.61.37-4.9,1.14-5.34a2.43,2.43,0,0,1,2.71.52c2.51,1.94,1.39,4.84.49,7.16a14.54,14.54,0,0,0-.71,2.11c-2,9.32-7.93,21.3-24.87,25.46A47.56,47.56,0,0,1,339,370.41Zm-23-18.75c-1.3,0-2.72.35-3.06.91s.63,1.22,1,1.52a3,3,0,0,0,.54.23,3.76,3.76,0,0,1,2.86,3.27,11.25,11.25,0,0,0,5.25,7.66c6.3,4.25,17.08,5.35,27.46,2.81,16.44-4,22.2-15.66,24.13-24.7a15.81,15.81,0,0,1,.76-2.26c.86-2.22,1.75-4.52-.17-6-.65-.49-1.23-.66-1.6-.44s-1.08.9-.64,4.37c.65,9.66-8,22.36-23.21,26.08h0c-14.39,3.53-26.85-.45-31-9.9A6.41,6.41,0,0,1,318,353c0-.73,0-.86-.25-1A4.09,4.09,0,0,0,316,351.66Z" transform="translate(-12.31 -12.31)" style="fill:#1d1d1b"/><path d="M147.78,122.68c-.95,0-1.65-1.42-1.86-2.86l-.72-5a3.78,3.78,0,0,1,.42-2.75,1,1,0,0,1,.71-.4l.89-.06c1-.07,1.71,1.39,1.92,2.86l.72,5a3.81,3.81,0,0,1-.41,2.74,1,1,0,0,1-.72.4l-.89.06Zm-.5-10-.88.06a3,3,0,0,0-.21,2l.72,5c.18,1.29.71,2,.87,2l.86-.06a2.77,2.77,0,0,0,.23-2l-.72-5A2.91,2.91,0,0,0,147.28,112.65Zm1.38,9Z" transform="translate(-12.31 -12.31)" style="fill:#1d1d1b"/><path d="M277.25,111c-.9,0-1.59-1.4-1.78-2.75l-.72-5a3.62,3.62,0,0,1,.41-2.64.94.94,0,0,1,.66-.37l.93-.06c.92-.07,1.64,1.33,1.84,2.74l.72,5a3.61,3.61,0,0,1-.41,2.63.87.87,0,0,1-.66.37l-.93.07Zm-.44-10h0l-.93.07a.2.2,0,0,0-.13.09,3.11,3.11,0,0,0-.25,2.06l.72,5c.19,1.32.77,2.1,1,2.1h0l.93-.06a.26.26,0,0,0,.13-.1,3,3,0,0,0,.25-2.06l-.72-5C277.66,101.7,277.08,100.91,276.81,100.91Z" transform="translate(-12.31 -12.31)" style="fill:#1d1d1b"/><path d="M320.52,237.54c2,4.3,10.58,24.52,12.56,28.83.41.89.26,2,.66,2.92s1.13,2.47,2,2.66a3.62,3.62,0,0,0,2.95-1.46c.75-1.08.23-2.34-1-3.2a5.39,5.39,0,0,1-1.72-1.87c-2-4.15-16.77-37.22-17.19-41" transform="translate(-12.31 -12.31)" style="fill:none"/><rect x="223.17" y="345.1" width="1" height="41.48" style="fill:#1d1d1b"/><polygon points="309.14 232.14 115.83 274.58 97.8 123.12 291.94 104.38 309.14 232.14" style="fill:#fff"/><path d="M127.7,287.5l-.06-.55L109.55,135l.51,0,194.63-18.78.06.47L322,244.84Zm-17-151.62,17.9,150.4,192.32-42.22L303.82,117.24Z" transform="translate(-12.31 -12.31)" style="fill:#1d1d1b"/><polygon points="141.09 299.47 133.41 295.23 106.03 252.01 105.01 244.34 141.09 299.47" style="fill:#fff"/><path d="M154.92,313.19l-9.55-5.27-.07-.11L117.86,264.5l-1.33-10Zm-8.85-6,5.8,3.21-33.76-51.6.71,5.38Z" transform="translate(-12.31 -12.31)" style="fill:#1d1d1b"/><path d="M136.78,159.06c-.54,1.11-1,2-1.65,3.24l-.4.64a17.92,17.92,0,0,1,6.17,2.8c1.79,1.39,2.19,3.61,1.72,4.4a1.07,1.07,0,0,1-.47.51c-.81.43-.4-.24-.25-.56a3.54,3.54,0,0,0-.92-3.67c-1.83-1.62-4.42-2.17-6.81-2.64a9.22,9.22,0,0,1-3.33,3.07c-3.93,1.9-6.6-2.35-1.54-3.88a11.72,11.72,0,0,1,4.72-.2,33.68,33.68,0,0,0,2-3.63c-5.41.17-7.11-5.68-.67-7.15.79-.19.86.2,0,.32-3.87.47-5.13,7.07.91,6.36.22-.51,1.6-4,1.6-4,2.78-7.17,6.64-5.76,6.77-4.21C145,154.23,140.79,158.38,136.78,159.06Zm-7.26,4.69c-4.55,1.16-2.43,4.23,1,2.57a7.87,7.87,0,0,0,2.89-2.65A8.89,8.89,0,0,0,129.52,163.75Zm9.18-8.47s-.88,1.67-1.65,3.27c3.38-.75,6.83-4.23,6.81-7.71C143.84,149.58,141.62,149.58,138.7,155.28Z" transform="translate(-12.31 -12.31)" style="fill:#1d1d1b"/><path d="M145.1,165.2c-.62,0-1.51-.46-.94-2.43a9.55,9.55,0,0,1-1.36,1.77c-2.16,2.07-3.59-1.23-.75-4.63,1.13-1.34,3.29-2,4.36-.87.27.29.12.6-.2.55-.21-.7-.91-.85-1.6-.47a8,8,0,0,0-2.5,2.69,6.83,6.83,0,0,0-.78,1.9c-.18,1.32.85,1.17,1.74.11a15.84,15.84,0,0,0,1.67-2.63c.41-.79.68-1.24,1.28-1.21a2.59,2.59,0,0,0,.79.08,10.64,10.64,0,0,0-1.75,3.52c-.15.77-.06,1.13.19,1.13.79,0,2-2.36,2.42-3.16.17-.34.46-.23.27.15C147.37,162.84,146.23,165.1,145.1,165.2Z" transform="translate(-12.31 -12.31)" style="fill:#1d1d1b"/><path d="M215.21,217.61c-2.11.2-8.91.6-8.21-9.19.53-7,4.59-16.63,7.83-25.73,4-11.31-1.72-9.59-10.82,5.09-3.18,5.1-11.74,21.84-13.53,27.17s-5.62,3.94-4.66,2.09a108.83,108.83,0,0,0,9.82-35.16c.73-7.51-3.64-6.23-7.63.17-8.79,14.11-11.28,21.52-18.11,40.25-.8,2.28-4.7,3.12-4.21,1.2,4.28-8.4,11-29.18,12.1-38.7,2.54-23.24-23-2.11-27.77,14-4.16,14.14,3,19,9.72,14.88,6.55-4.06,11.26-19.23,3.1-16.38-.93.3-2.22-.41.24-1.25,8.57-3.1,7.67,11.36-3.38,18.73-7.56,5-17.39-1.41-12.41-16,7.16-20.63,35.1-37.57,33.48-14.52a59.62,59.62,0,0,1-2.53,11.87c-.64,2.3-.18,2.49.67.49a97.89,97.89,0,0,1,8.21-15.47c3.9-6.1,12.35-10.09,11.65-.24-.53,7.42-2.75,14.77-4.77,22.32,2.06-4.07,5.84-10.89,10-17.55,11.67-18.85,19.43-16.71,13.68-2.42-4.35,10.76-13.62,36.21-1.65,33.23C218,216,217.27,217.43,215.21,217.61Z" transform="translate(-12.31 -12.31)" style="fill:#1d1d1b"/><path d="M227.51,208.74c-1.69.45-4.13-.54-2.66-6.83a37.27,37.27,0,0,1-3.64,6.1c-5.83,7.46-9.86-1.72-2.23-13.6,3-4.66,8.93-8,11.9-5a1,1,0,0,1-.54,1.77c-.6-2-2.5-2.06-4.39-.54-2.3,1.89-4.93,5.79-6.74,9.52a26,26,0,0,0-2,6.18c-.46,4.09,2.36,3.07,4.74-.61a60.74,60.74,0,0,0,4.48-8.9c1.1-2.62,1.8-4.13,3.45-4.35a6.75,6.75,0,0,0,2.16-.21,42.11,42.11,0,0,0-4.65,11.62c-.38,2.42-.11,3.45.56,3.31,2.16-.32,5.46-8.24,6.51-10.91.45-1.11,1.23-.93.73.32C233.65,200.36,230.6,207.83,227.51,208.74Z" transform="translate(-12.31 -12.31)" style="fill:#1d1d1b"/><path d="M237.25,195.64c-.25,1-.75,2.49-1,4-1.45,7.15,2.67,7.29,5.34,2.52a75.06,75.06,0,0,0,3.72-8c.45-1.06,1.22-1.1.77.13-1.24,3.28-3.82,11.51-9,12.56-5.76,1.16-3.38-7.14-2.55-10.74A116.69,116.69,0,0,1,242,174.4c3.57-7.51,9.13-7.84,5.55,2A64.51,64.51,0,0,1,237.25,195.64Zm8.28-22.23c-2.47,4.44-6.36,15.44-7.9,20.32a73,73,0,0,0,9.16-18C247.79,172.9,248.25,168.46,245.53,173.41Z" transform="translate(-12.31 -12.31)" style="fill:#1d1d1b"/><path d="M248.14,193.44c-.24,1-.74,2.49-1,4-1.46,7.15,2.67,7.29,5.34,2.52a75.06,75.06,0,0,0,3.72-8c.45-1.06,1.22-1.1.77.13-1.24,3.28-3.82,11.51-9,12.56-5.76,1.16-3.39-7.14-2.55-10.74a116.69,116.69,0,0,1,7.56-21.68c3.57-7.51,9.13-7.84,5.54,2A64.06,64.06,0,0,1,248.14,193.44Zm8.29-22.23c-2.47,4.44-6.36,15.44-7.9,20.32a73,73,0,0,0,9.16-18C258.69,170.7,259.15,166.26,256.43,171.21Z" transform="translate(-12.31 -12.31)" style="fill:#1d1d1b"/><path d="M260,202.3c-2.57.52-4.91-.89-5-4.47-.09-3.41,1.6-8,3.83-11.45,2.58-3.94,6.46-6.9,8.75-5.48,2,1.26.53,5.44-2.73,8.89a17,17,0,0,1-6.29,3.78c-.75,2.21-1.55,8.14,1.84,7.45,4.53-.91,7.22-8.19,8.37-11.45.4-1.11,1.42-1.43.92-.13C267.8,194.38,265.66,201.15,260,202.3Zm1.91-15.74a43,43,0,0,0-3,6,12.73,12.73,0,0,0,5.42-3.6C268.44,184.15,268.09,176.79,261.87,186.56Z" transform="translate(-12.31 -12.31)" style="fill:#1d1d1b"/><path d="M241.75,243.11c-1.37.37-3.34-.44-2.15-5.53a30.53,30.53,0,0,1-2.95,4.94c-4.72,6-8-1.39-1.8-11,2.45-3.78,7.22-6.46,9.63-4.08a.8.8,0,0,1-.44,1.44c-.48-1.62-2-1.68-3.55-.44a25.13,25.13,0,0,0-5.46,7.71,20.77,20.77,0,0,0-1.65,5c-.38,3.31,1.91,2.48,3.83-.5a47.23,47.23,0,0,0,3.63-7.21c.89-2.12,1.46-3.34,2.8-3.52a5.31,5.31,0,0,0,1.75-.17,34.27,34.27,0,0,0-3.77,9.41c-.31,2-.09,2.79.45,2.68,1.75-.26,4.43-6.67,5.28-8.83.36-.91,1-.76.58.25C246.72,236.33,244.25,242.38,241.75,243.11Zm1.56-18.77c-.37.08-4.94-1.78-5.74-2a2,2,0,0,1-1.57-1.77,1.12,1.12,0,0,1,.78-1.13c.79-.16,6.94,4.11,6.95,4.43A.51.51,0,0,1,243.31,224.34Z" transform="translate(-12.31 -12.31)" style="fill:#1d1d1b"/><path d="M258.07,306c3.6,0,9.11.69,10.31,4.39,2.95,9-10.74,19.8-20.56,21.79-6.93,1.38-11.13,1.38-14.52,1-4.2,4.47-8.94,7.38-13.91,8.33-11.12,2.26-7.36-11.84,4.91-11.52,2,.11,4.48.89,7.91,1.47,7.26-9.34,11.19-25.24,20.52-38.63l3.1-4.56a67.28,67.28,0,0,0-20.89,7.39c-15.11,8.13-20.07,22.83-12,22.72,6.44-.08,10.15-7.66,9.87-9.16,0-.32,1.15-1.13,1.15.07v0c-.82,5.67-6.76,10.66-11.57,10.52-11.12-.25-5.94-17.76,13.26-26.72a70.61,70.61,0,0,1,21.49-6.49,15.89,15.89,0,0,1,3-2.83c1.75-1.28,1.86-.61.55.64a9.65,9.65,0,0,0-1.58,2c9.38-.65,14.94,2.4,11.24,9.93C268,301.05,262.16,304.47,258.07,306Zm-35.13,25.81c-8.35-.18-9.27,9.62-2.18,7.69A22.43,22.43,0,0,0,231,332.81,59.85,59.85,0,0,0,222.94,331.78ZM258.45,288c-7.31,12.41-14.62,30.93-21.87,41.15l-2.08,2.63a41,41,0,0,0,13.26-1c14.24-3.32,22.8-20.5,12.22-22.14-4.26-.69-9.6.34-10.15-.68,0-1.86,3.66-1.95,7.91-3.33,6.77-2.31,15.88-15.15,5.84-16.58A21.3,21.3,0,0,0,258.45,288Z" transform="translate(-12.31 -12.31)" style="fill:#1d1d1b"/><path d="M282.68,318.48c-1.64.53-2.78.31-3.49-.28a11.58,11.58,0,0,1-4.75,3.39c-4.14,1.24-4.74-3.53-2.67-9.06,2.13-5.7,6.65-11.43,10.36-12.53,4.15-1.29,4.75,3.53,2.68,9.06a32.47,32.47,0,0,1-4.59,7.93c.44.67,1.26.95,2.57.53,3.49-1.14,6.33-8.82,7.64-11.87.27-.63,1.2-.71.81.23C290.32,308.25,287.26,317,282.68,318.48Zm-7.15-7.39c-2.12,5.17-2.62,9.15-.65,9.11,1-.07,2.4-1.06,3.71-2.57a3.64,3.64,0,0,1-.87-2.39,3,3,0,0,1,1.9-3,1.16,1.16,0,0,1,1.64,1.11,2.39,2.39,0,0,1-.11.63,32.22,32.22,0,0,0,1.69-3.49c2.13-5.17,2.4-9.13.44-9.09C280.93,301.54,277.55,306.13,275.53,311.09Z" transform="translate(-12.31 -12.31)" style="fill:#1d1d1b"/><path d="M300.41,313.37c-1.91.62-4.53.17-2.89-5.44a40.88,40.88,0,0,1,3-6.7c1.31-2.55.33-3.71-3.87,1.59-1.86,2.29-4.53,6.21-7.59,13.26-.43.91-.92,1.12-2.07,1.49a5,5,0,0,0-1.85.93c2.61-6,4.85-11.94,7.52-17.72,1.42-3.08,2.13-4.24,3.88-4.69a8.78,8.78,0,0,0,2.29-.53c-1.64,1.4-4.64,7.83-6.6,12.4a62.9,62.9,0,0,1,4.53-6.38c2.61-3.2,8.23-8.46,10.09-8.41,0,0-5.84,12.16-6.55,16.2-.44,2.38.17,2.68.87,2.45,2.84-.92,6.33-9.2,7.48-11.87.43-1.12,1.31-1,.76.24C307.77,304.05,304.61,312,300.41,313.37Z" transform="translate(-12.31 -12.31)" style="fill:#1d1d1b"/><path d="M323.49,272l.27-.09a8.69,8.69,0,0,0,2.29-.53,164.42,164.42,0,0,0-12,22.12c-2.78,6.41-5.13,14.87-1.42,14.43,1.26-.14,2.78-1.73,4.69-4.64a43.59,43.59,0,0,0,4.09-8.09c1.42-4.06,1.37-7.54-2.07-6.09-1.64.69-1.69-.92.76-1.34,4-.69,5.08,2.55,4.37,6.27-1,4.9-4.31,11.17-8.89,13.86-6.22,3.71-8.51,1.23-7.53-3a47.2,47.2,0,0,1,2.4-6.78c-2.51,5.56-4.69,10.2-5.78,11.59-.44.52-.77,0-.44-.57,3.71-6.12,10.91-24.77,15.6-33.27C321.14,273.47,322.29,272.28,323.49,272Z" transform="translate(-12.31 -12.31)" style="fill:#1d1d1b"/><path d="M338.05,300.49a3.59,3.59,0,0,1-3.49-.28,11.56,11.56,0,0,1-4.74,3.39c-4.15,1.24-4.75-3.53-2.68-9.06,2.13-5.71,6.66-11.43,10.37-12.53,4.14-1.29,4.74,3.53,2.67,9.06A32.73,32.73,0,0,1,335.6,299c.43.67,1.25.95,2.56.53,3.49-1.14,6.33-8.82,7.64-11.87.27-.63,1.2-.71.82.23C345.69,290.26,342.64,299,338.05,300.49Zm-7.14-7.39c-2.13,5.17-2.62,9.14-.66,9.11,1-.07,2.4-1.06,3.71-2.57a3.64,3.64,0,0,1-.87-2.39,3,3,0,0,1,1.91-3,1.15,1.15,0,0,1,1.63,1.11,3,3,0,0,1-.1.63,33.15,33.15,0,0,0,1.69-3.49c2.12-5.17,2.4-9.13.43-9.09C336.31,283.55,332.93,288.14,330.91,293.1Z" transform="translate(-12.31 -12.31)" style="fill:#1d1d1b"/><path d="M355.78,295.38c-1.91.62-4.52.16-2.89-5.44a41.78,41.78,0,0,1,3-6.7c1.31-2.56.33-3.71-3.87,1.58a56,56,0,0,0-7.58,13.27c-.44.9-.93,1.12-2.08,1.49a5.1,5.1,0,0,0-1.85.93c2.62-6,4.85-11.94,7.53-17.72,1.42-3.08,2.12-4.24,3.87-4.7a8.28,8.28,0,0,0,2.29-.52c-1.63,1.4-4.64,7.83-6.6,12.4a64.53,64.53,0,0,1,4.53-6.38c2.62-3.2,8.24-8.46,10.09-8.41,0,0-5.84,12.15-6.54,16.2-.44,2.38.16,2.68.87,2.45,2.83-.93,6.33-9.21,7.47-11.87.44-1.12,1.31-1,.76.24C363.15,286.06,360,294,355.78,295.38Z" transform="translate(-12.31 -12.31)" style="fill:#1d1d1b"/><path d="M367.4,291.06a7.88,7.88,0,0,1-2.23,1.27c-6.6,2.15-5.35-5.84-2.73-6.8,1.47-3.26,3.27-7.39,4.69-11,1-2.45,2.62-5.27,4.53-6.17a3.52,3.52,0,0,1,2-.38c1,.17.76,1.17-.22,1a2.45,2.45,0,0,0-1.75.51c-2.5,2-2,5.6-1.14,7.3s2.07,3.36,2,5.8c-.11,2.16-1.74,5.2-3.87,7.31l.38-.06c1.86-.33,3.55-2,4.91-4.11a73.16,73.16,0,0,0,4.09-8.48c.27-.63,1.09-.57.82.07C376.84,282.54,373.57,290.91,367.4,291.06Zm-3.71-3.48c-1.74,2.31-1,4.64,1.1,3.95a3.26,3.26,0,0,0,1.09-.57C364.73,290.62,363.8,289.61,363.69,287.58Zm4.81-14c-1.48,3.42-3.82,8.93-5.13,11.76,0,0,1.2-.45,1.14,1.37-.11,2.11,1,3.26,2.29,3.46a10.46,10.46,0,0,0,2.41-6.46C369.37,280.22,368.06,276.18,368.5,273.58Z" transform="translate(-12.31 -12.31)" style="fill:#1d1d1b"/><path d="M255.89,30.54C132,30.54,31.51,131,31.51,254.92S132,479.3,255.89,479.3,480.27,378.84,480.27,254.92,379.81,30.54,255.89,30.54Zm0,439.73C137,470.27,40.54,373.85,40.54,254.92S137,39.57,255.89,39.57,471.24,136,471.24,254.92,374.82,470.27,255.89,470.27Z" transform="translate(-12.31 -12.31)" style="fill:#95c9d1"/><circle cx="242.81" cy="4.44" r="4.44" style="fill:#ed6d86"/><circle cx="201.42" cy="8.06" r="4.44" style="fill:#ed6d86"/><circle cx="161.28" cy="18.82" r="4.44" style="fill:#ed6d86"/><circle cx="123.63" cy="36.38" r="4.44" style="fill:#ed6d86"/><circle cx="89.59" cy="60.21" r="4.44" style="fill:#ed6d86"/><circle cx="60.21" cy="89.59" r="4.44" style="fill:#ed6d86"/><circle cx="36.38" cy="123.63" r="4.44" style="fill:#ed6d86"/><circle cx="18.82" cy="161.28" r="4.44" style="fill:#ed6d86"/><circle cx="8.06" cy="201.42" r="4.44" style="fill:#ed6d86"/><circle cx="4.44" cy="242.81" r="4.44" style="fill:#ed6d86"/><circle cx="8.06" cy="284.2" r="4.44" style="fill:#ed6d86"/><circle cx="18.82" cy="324.33" r="4.44" style="fill:#ed6d86"/><circle cx="36.38" cy="361.99" r="4.44" style="fill:#ed6d86"/><circle cx="60.21" cy="396.03" r="4.44" style="fill:#ed6d86"/><circle cx="89.59" cy="425.41" r="4.44" style="fill:#ed6d86"/><circle cx="123.63" cy="449.24" r="4.44" style="fill:#ed6d86"/><circle cx="161.28" cy="466.8" r="4.44" style="fill:#ed6d86"/><circle cx="201.42" cy="477.55" r="4.44" style="fill:#ed6d86"/><circle cx="242.81" cy="481.17" r="4.44" style="fill:#ed6d86"/><circle cx="284.2" cy="477.55" r="4.44" style="fill:#ed6d86"/><circle cx="324.33" cy="466.8" r="4.44" style="fill:#ed6d86"/><circle cx="361.99" cy="449.24" r="4.44" style="fill:#ed6d86"/><circle cx="396.03" cy="425.41" r="4.44" style="fill:#ed6d86"/><circle cx="425.41" cy="396.03" r="4.44" style="fill:#ed6d86"/><circle cx="449.24" cy="361.99" r="4.44" style="fill:#ed6d86"/><circle cx="466.8" cy="324.33" r="4.44" style="fill:#ed6d86"/><circle cx="477.55" cy="284.2" r="4.44" style="fill:#ed6d86"/><circle cx="481.17" cy="242.81" r="4.44" style="fill:#ed6d86"/><circle cx="477.55" cy="201.42" r="4.44" style="fill:#ed6d86"/><circle cx="466.8" cy="161.28" r="4.44" style="fill:#ed6d86"/><circle cx="449.24" cy="123.63" r="4.44" style="fill:#ed6d86"/><circle cx="425.41" cy="89.59" r="4.44" style="fill:#ed6d86"/><circle cx="396.03" cy="60.21" r="4.44" style="fill:#ed6d86"/><circle cx="361.99" cy="36.38" r="4.44" style="fill:#ed6d86"/><circle cx="324.33" cy="18.82" r="4.44" style="fill:#ed6d86"/><circle cx="284.2" cy="8.06" r="4.44" style="fill:#ed6d86"/></svg>