<svg id="ac764bf8-6424-4366-a176-5a1224f03879" data-name="Calque 1" xmlns="http://www.w3.org/2000/svg" viewBox="0 0 40.36 40.36"><path d="M20.18,1A19.18,19.18,0,1,0,39.36,20.18,19.2,19.2,0,0,0,20.18,1ZM7.73,11.4H32.62a1.34,1.34,0,1,1,0,2.68H7.73a1.34,1.34,0,0,1,0-2.68ZM32.62,29H7.73a1.34,1.34,0,0,1,0-2.68H32.62a1.34,1.34,0,1,1,0,2.68Zm0-7.43H7.73a1.34,1.34,0,0,1,0-2.68H32.62a1.34,1.34,0,1,1,0,2.68Z" style="fill:#fff"/><path d="M20.18,0A20.18,20.18,0,1,0,40.36,20.18,20.2,20.2,0,0,0,20.18,0Zm0,39.86A19.68,19.68,0,1,1,39.86,20.18,19.68,19.68,0,0,1,20.18,39.86Z" style="fill:#fff"/></svg>