<svg xmlns="http://www.w3.org/2000/svg" xmlns:xlink="http://www.w3.org/1999/xlink" viewBox="0 0 105.49 744.41"><defs><radialGradient id="b8f09312-9ee3-464f-b4be-cf60727413e2" cx="48.85" cy="371.3" r="42.42" gradientTransform="matrix(-1, 0, 0, 1, 105.85, 0)" gradientUnits="userSpaceOnUse"><stop offset="0.54" stop-color="#fff"/><stop offset="0.81" stop-color="#fff"/><stop offset="0.86" stop-color="#f6fbfe"/><stop offset="0.93" stop-color="#def1fd"/><stop offset="1" stop-color="#c0e5fb"/></radialGradient><radialGradient id="f3d6b75f-d4ce-4009-8dd1-95cac7a1e861" cx="20.93" cy="343.01" r="81.25" gradientTransform="matrix(-1, 0, 0, 1, 105.85, 0)" gradientUnits="userSpaceOnUse"><stop offset="0.01" stop-color="#fff"/><stop offset="0.34" stop-color="#fff"/><stop offset="0.44" stop-color="#f6fbfd"/><stop offset="0.62" stop-color="#def1f8"/><stop offset="0.84" stop-color="#b6e1ef"/><stop offset="1" stop-color="#94d3e8"/></radialGradient><linearGradient id="a8104980-2b7b-4230-958a-a164802a73a7" x1="3084.24" y1="306.29" x2="3084.2" y2="306.08" gradientTransform="translate(-3054.54 40.01) rotate(-1.96)" gradientUnits="userSpaceOnUse"><stop offset="0" stop-color="#73122e" stop-opacity="0"/><stop offset="0.31" stop-color="#73122e" stop-opacity="0.02"/><stop offset="0.48" stop-color="#731230" stop-opacity="0.09"/><stop offset="0.62" stop-color="#731232" stop-opacity="0.21"/><stop offset="0.75" stop-color="#731235" stop-opacity="0.39"/><stop offset="0.86" stop-color="#731139" stop-opacity="0.61"/><stop offset="0.96" stop-color="#73113e" stop-opacity="0.88"/><stop offset="1" stop-color="#731140"/></linearGradient><linearGradient id="e730b16b-a1e1-4b5b-a39d-40d738fd1643" x1="3084.17" y1="308.1" x2="3084.13" y2="307.89" gradientTransform="matrix(1, 0.03, 0.03, -1, -3054.54, 708.21)" xlink:href="#a8104980-2b7b-4230-958a-a164802a73a7"/><clipPath id="a6472a23-ea45-442b-a037-333e373e662a"><path d="M39.5,717.48l-.44,2.12s.34.55,2,1.25a5.49,5.49,0,0,0,2.44.61s2.21-.91,2.33-.9a1.76,1.76,0,0,0,.25-.34l18-42.28c.41-1.6,1-4.09,1-4.14s-1-2.28-1-2.28a5.54,5.54,0,0,0-2.16-1.3,4.68,4.68,0,0,0-2.33-.56l-3.29,5.05Z" style="fill:none"/></clipPath><clipPath id="b965dae0-49bc-4c7a-a032-45aab28d6b73"><path d="M43.49,33.42,43,31.3a4.76,4.76,0,0,1,2.05-1.25,5.47,5.47,0,0,1,2.44-.61s2.2.91,2.32.9a1.76,1.76,0,0,1,.25.34L68.11,73c.41,1.59,1,4.08,1,4.14s-1,2.27-1,2.27a5.54,5.54,0,0,1-2.15,1.3,4.68,4.68,0,0,1-2.33.56l-3.29-5Z" style="fill:none"/></clipPath><radialGradient id="baa4b24d-a872-4066-a2eb-4ecc037a2c87" cx="48.85" cy="375.11" r="42.42" gradientTransform="translate(105.85 748.22) rotate(180)" xlink:href="#b8f09312-9ee3-464f-b4be-cf60727413e2"/><radialGradient id="a5fc7969-0956-408f-840a-018d381f27ae" cx="20.93" cy="346.82" r="81.25" gradientTransform="translate(105.85 748.22) rotate(180)" xlink:href="#f3d6b75f-d4ce-4009-8dd1-95cac7a1e861"/><linearGradient id="aa3c3b6a-845a-4abb-b23c-8a905cd29a96" x1="3084.17" y1="308.1" x2="3084.13" y2="307.89" gradientTransform="matrix(1, 0.03, 0.03, -1, -3054.54, 708.21)" xlink:href="#a8104980-2b7b-4230-958a-a164802a73a7"/><linearGradient id="fe6e605a-0d3d-4f13-94b6-a520febd0c5e" x1="3084.24" y1="306.29" x2="3084.2" y2="306.08" gradientTransform="matrix(1, -0.03, 0.03, 1, -3054.54, 40.01)" xlink:href="#a8104980-2b7b-4230-958a-a164802a73a7"/></defs><g style="isolation:isolate"><g id="a9841780-5927-46a3-bc9b-cdab3ce7bada" data-name="Calque 1"><path d="M44.69,549.5a31.44,31.44,0,0,0,12.55-7.19,22.28,22.28,0,0,0,6-8.9,10,10,0,0,0,.31-6.69,3.44,3.44,0,0,0-3.27-2.29,5,5,0,0,0-3.62,1.27,15.87,15.87,0,0,0-2.75,3.51,39.2,39.2,0,0,1-4.19,5.58,27.8,27.8,0,0,1-8.21,6.2,20.67,20.67,0,0,1-13.15,2,18.8,18.8,0,0,1-7.41-3.29,26,26,0,0,1-6.41-6.93c-.44-.73-.92-1.44-1.33-2.21s-.8-1.58-1.21-2.37l-1-2.49a26.91,26.91,0,0,1-.75-2.64,25.73,25.73,0,0,1-.61-6.85c.07-.88.18-1.77.32-2.65a34.44,34.44,0,0,1,2.6-8h0a47,47,0,0,1,7.24-11.12c1.58-1.67,3.22-3.23,4.87-4.67a70.68,70.68,0,0,1,8.79-6.45,93.74,93.74,0,0,1,32.06-12.35c8.94-1.68,15.54-1.89,19.92-2.55a16.09,16.09,0,0,0,2.9-.63,7.59,7.59,0,0,0,2.13-.91,4.26,4.26,0,0,0,2-3.38,3.75,3.75,0,0,0-1.59-3.58,8,8,0,0,0-2.32-1.13,19.21,19.21,0,0,0-3.33-.6c-5.1-.48-12.8.63-22.15,4a109.09,109.09,0,0,0-31.6,18.34,86.67,86.67,0,0,0-8.23,7.72c-1.61,1.73-3.2,3.57-4.72,5.53a47.44,47.44,0,0,0-7.21,11.15h0v0h0a36.27,36.27,0,0,0-2.7,8.34v0h0c-.17,1-.3,2.08-.38,3.13a29.63,29.63,0,0,0,0,7c.17,1,.24,2,.5,2.93s.51,1.9.76,2.83.65,1.79,1,2.67.75,1.72,1.12,2.57a31.85,31.85,0,0,0,6.2,9,25.12,25.12,0,0,0,8.75,5.72,26.16,26.16,0,0,0,9.57,1.72A30.73,30.73,0,0,0,44.69,549.5Z" style="fill:#ed6d86"/><path d="M26.13,740a7.53,7.53,0,0,0,5.44-3,8.11,8.11,0,0,0,2.33-5.55,11.19,11.19,0,0,0-2.24-5.86c-.35-.53-.74-1.06-1.18-1.61s-.87-1.15-1.36-1.74-1-1.21-1.6-1.84-1.1-1.34-1.72-2-1.26-1.42-1.88-2.21l-2-2.43L19.85,711c-.7-.94-1.35-2-2.08-3a56.07,56.07,0,0,1-7.23-15.81c-.21-.79-.42-1.6-.64-2.42s-.34-1.67-.51-2.52c-.08-.43-.16-.86-.25-1.29S9,685.1,9,684.66c-.11-.89-.22-1.78-.34-2.69a74.17,74.17,0,0,1-.1-11.48,89.5,89.5,0,0,1,1.77-12.28,118.41,118.41,0,0,1,3.54-12.78c.21-.62.44-1.25.66-1.88,2-4.56,4.22-9,6.46-13.37s4.46-8.5,6.75-12.68q-.94,2.28-1.79,4.5c-3.87,10.13-6.08,19.25-6.56,26.67s.7,13,2.87,16.35a8.41,8.41,0,0,0,9.08,3.9,12.42,12.42,0,0,0,2.83-.78,4.5,4.5,0,0,0,1.73-1.23,3.31,3.31,0,0,0,.73-1.7,6.61,6.61,0,0,0,0-2.26c-.47-3.39-2.56-8.42-4.14-15.33A75.92,75.92,0,0,1,30.87,622a80.5,80.5,0,0,1,3.83-17c.19-.35.39-.7.59-1.05q5.52-9.85,10.87-19.69c-.13.41-.27.82-.39,1.23a82.07,82.07,0,0,0-3.86,22c-.11,6.32,1,11.44,3.23,14.84a9.8,9.8,0,0,0,9.73,4.68c8.09-.79,3.55-8.56-.41-20.78a73.14,73.14,0,0,1-4-21.19,52.7,52.7,0,0,1,.8-10.34c4-7.54,7.77-15.14,11.24-22.85q6-13.26,11.39-26.68l1.35-3.34,1.29-3.37c.91-2.23,1.7-4.5,2.55-6.75s1.58-4.54,2.34-6.82,1.5-4.56,2.13-6.87l1-3.47c.31-1.16.58-2.33.86-3.49.59-2.33,1-4.68,1.51-7,.25-1.17.45-2.35.64-3.53l.6-3.54c.33-2.37.65-4.74.93-7.11.14-1.22.25-2.43.36-3.65.38-1.66.74-3.26,1.1-4.81.76-3.15,1.37-6.08,2-8.75s1.06-5.11,1.47-7.28.58-4.08.67-5.72a12.23,12.23,0,0,0-.37-4.09c-.64-2.15-2.15-3.15-5.06-3s-4.32,1.33-4.77,3.42a13,13,0,0,0,0,3.89c.13,1.55.43,3.36.82,5.44s.76,4.42,1.14,7.05.74,5.54.88,8.73c.1,1.58.16,3.24.17,5-.15,1.16-.31,2.33-.47,3.49q-.53,3.51-1.13,7L85.18,480c-.2,1.16-.42,2.33-.68,3.48-.49,2.32-1,4.64-1.51,6.95-.27,1.15-.51,2.31-.79,3.46l-.85,3.46c-.51,2.32-1.17,4.61-1.75,6.92s-1.28,4.6-2,6.89-1.38,4.57-2.16,6.84l-1.17,3.4-1.24,3.38a242.67,242.67,0,0,1-11.91,26.34c-.39.76-.8,1.51-1.19,2.26-4.44,4.85-10.12,7.06-14.61,8.44-6.09,1.87-10.13,2.34-6.87,6.05,2.61,3,6.71,2.48,11.32-1.08a36.63,36.63,0,0,0,6.08-6.16c-.65,1.3-1.28,2.6-1.9,3.89-2.23,4.08-4.5,8.15-6.77,12.24-3.84,6.85-7.78,13.69-11.67,20.61C30.4,605.1,22.87,608.1,17.1,610.05,10.88,612.14,6.72,613,10,616.71c2.65,3,6.78,2.2,11.49-1.57,4-3.25,8.57-8.66,13-15.92-.61,1.08-1.21,2.16-1.81,3.25q-3.59,6.51-7,13.18c-2.31,4.45-4.55,9-6.68,13.58-2,4.43-4,9-5.74,13.61l-.94,2A152.36,152.36,0,0,0,3,669.56,96.78,96.78,0,0,0,.54,681.84c-.09,1-.19,2-.28,3,0,.5-.1,1-.13,1.51s0,1,0,1.5c0,1-.07,2-.08,3s.06,2,.08,2.93a67.12,67.12,0,0,0,4.19,20.84c.58,1.46,1.12,2.92,1.74,4.26s1.26,2.62,1.88,3.85,1.32,2.32,2,3.41a35.15,35.15,0,0,0,2,3c.67.93,1.32,1.83,2,2.65s1.33,1.53,2,2.22,1.27,1.34,1.89,1.9,1.25,1,1.85,1.49A10.56,10.56,0,0,0,26.13,740ZM54.75,563.11c.36-.83.76-1.68,1.17-2.52l.66-.86C56,560.86,55.37,562,54.75,563.11Z" style="fill:#ed6d86"/><polygon points="9.72 664.09 9.72 664.09 9.72 664.09 9.72 664.09" style="fill:#ed6d86"/><path d="M68.89,732.06a62.19,62.19,0,0,1-27.57-8l-1.07-.46h0A56.8,56.8,0,0,1,28,715.88h0a56.55,56.55,0,0,1-16.7-23.41h0a56.81,56.81,0,0,1-3.62-19.86,53.3,53.3,0,0,1,.71-8.74l1.37.22a51.82,51.82,0,0,0-.7,8.52,54.82,54.82,0,0,0,19.84,42.21h0a54.84,54.84,0,0,0,12,7.54l1.63.71.81.35.82.3,1.67.63,1.69.54a41.76,41.76,0,0,0,6.85,1.6h0a42.09,42.09,0,0,0,6.34.48,43.53,43.53,0,0,0,39.66-25.65h0a38.53,38.53,0,0,0,2.32-6.62h0c.14-.51.25-1,.37-1.54s.16-.87.22-1.3c.09-1.15.23-2.28.28-3.41s0-2.24-.07-3.33A32.2,32.2,0,0,0,100.15,673a32.83,32.83,0,0,0-6.71-9.09,29.94,29.94,0,0,0-8.31-5.7c-.36-.17-.7-.37-1.07-.51l-1.1-.4-1.07-.4a8.41,8.41,0,0,0-1.07-.36,29.53,29.53,0,0,0-4.2-.92l-1-.15-1,0-1,0-.47,0-.48,0-1.84.09-1.76.27a11.68,11.68,0,0,0-1.68.37,11.51,11.51,0,0,0-1.58.45l-1.5.52-1.4.63-.68.3-.63.37-1.23.68-1.12.77a10.09,10.09,0,0,0-1.06.75,41.35,41.35,0,0,0-6,5.91c-.66.91-1.43,1.63-2,2.34a14.79,14.79,0,0,1-1.81,1.66,4.32,4.32,0,0,1-3.91.77A3.46,3.46,0,0,1,42,668.11,8.36,8.36,0,0,1,42.2,665a17.05,17.05,0,0,1,1.55-4,26.67,26.67,0,0,1,8.4-9,16.1,16.1,0,0,1,1.61-1c.56-.32,1.12-.66,1.71-1l1.87-.83,1-.42,1-.33c.68-.22,1.37-.45,2.08-.66l2.2-.47a17.22,17.22,0,0,1,2.3-.34,18.49,18.49,0,0,1,2.38-.19h2.45l2.51.22.64.06.63.12,1.27.25,1.29.26,1.27.38a39.46,39.46,0,0,1,5,1.91,10.12,10.12,0,0,1,1.23.62l1.23.67,1.23.67c.41.24.79.52,1.19.79A36.41,36.41,0,0,1,97,660.68a38.23,38.23,0,0,1,6.24,11,37,37,0,0,1,.92,22.39c-.07.31-.14.62-.22.92h0a39.65,39.65,0,0,1-2.4,6.84h0a44.76,44.76,0,0,1-19.28,20.89,24.2,24.2,0,0,1,3.06-.94c1.17-.24,2-.19,2.41.29s.48,1.42,0,2.81c-.84,2.48-2.9,4.23-6.06,5.44a26.08,26.08,0,0,1-5.58,1.35A46.45,46.45,0,0,1,68.89,732.06Z" style="fill:#ed6d86"/><path d="M94.19,558.33a114.56,114.56,0,0,0-6.72-22.23c-2.45-6.25-5.32-12.77-8.33-19.69q-2.4-6.09-4.78-12.17c-1.87-4.79-3.69-9.6-5.42-14.44q-3.36-10.64-5.44-20.24a147.7,147.7,0,0,1-3.36-40.24c.31-5.31.82-9.91,1.37-13.82.1-1,.26-1.91.38-2.81s.2-1.53.29-2.25a7.17,7.17,0,0,1-2.28,1.22,7.61,7.61,0,0,1-3.88.87h-.89a10,10,0,0,1-3.88-.77c-.1.85-.21,1.74-.25,2.66a95.14,95.14,0,0,0,.12,15c.87,11.38,3.76,25.28,9.12,41,2.14,6.31,4.63,12.92,7.42,19.87,1.73,4.84,3.55,9.64,5.42,14.41,1.63,4.21,3.29,8.4,4.93,12.6,2.43,7,4.58,13.56,6.25,19.81A95.8,95.8,0,0,1,87.88,559,38.12,38.12,0,0,1,85,575.49a32.57,32.57,0,0,1-1.55,3.07c-.6.93-1.13,1.85-1.77,2.66s-1.26,1.58-1.86,2.33-1.29,1.38-1.9,2c-2.56,2.51-5,4.42-6.9,6.06-.93.85-1.8,1.57-2.48,2.31A12,12,0,0,0,67,596a4,4,0,0,0-.15,4,3.62,3.62,0,0,0,3.48,2,8.28,8.28,0,0,0,2.88-.48,18.26,18.26,0,0,0,3.6-1.59,33.93,33.93,0,0,0,8.88-7.2c.77-.89,1.55-1.83,2.31-2.86a38.63,38.63,0,0,0,2.16-3.35,38.21,38.21,0,0,0,1.93-3.84,39,39,0,0,0,1.5-4.31A39.5,39.5,0,0,0,95,568.79,52.9,52.9,0,0,0,94.19,558.33Z" style="fill:#ed6d86"/><polygon points="18.61 541.61 18.61 541.61 18.61 541.61 18.61 541.61" style="fill:#ed6d86"/><path d="M18.61,541.61Z" style="fill:#ed6d86"/><path d="M44.69,195.72a31.44,31.44,0,0,1,12.55,7.19,22.28,22.28,0,0,1,6,8.9,10.07,10.07,0,0,1,.31,6.7,3.44,3.44,0,0,1-3.27,2.28,5,5,0,0,1-3.62-1.27A15.87,15.87,0,0,1,53.88,216a38.64,38.64,0,0,0-4.19-5.57,27.81,27.81,0,0,0-8.21-6.21,20.73,20.73,0,0,0-13.15-2,18.82,18.82,0,0,0-7.41,3.3,26,26,0,0,0-6.41,6.93c-.44.72-.92,1.44-1.33,2.21L12,217l-1,2.49c-.34.84-.49,1.75-.75,2.64A25.73,25.73,0,0,0,9.62,229c.07.89.18,1.77.32,2.66a34.52,34.52,0,0,0,2.6,8h0a46.63,46.63,0,0,0,7.24,11.12c1.58,1.68,3.22,3.23,4.87,4.67A70.79,70.79,0,0,0,33.45,262,93.9,93.9,0,0,0,65.51,274.3c8.94,1.68,15.54,1.9,19.92,2.55a16.09,16.09,0,0,1,2.9.63,7.9,7.9,0,0,1,2.13.91,4.26,4.26,0,0,1,2,3.38,3.74,3.74,0,0,1-1.59,3.58,7.72,7.72,0,0,1-2.32,1.13,19.21,19.21,0,0,1-3.33.6c-5.1.48-12.8-.63-22.15-4a109.26,109.26,0,0,1-31.6-18.33A88,88,0,0,1,23.22,257c-1.61-1.74-3.2-3.58-4.72-5.54a47.44,47.44,0,0,1-7.21-11.15h0a36.5,36.5,0,0,1-2.7-8.35h0v0c-.17-1-.3-2.08-.38-3.12a29.72,29.72,0,0,1,0-7c.17-1,.24-2,.5-2.93s.51-1.89.76-2.83.65-1.79,1-2.67.75-1.72,1.12-2.57a31.85,31.85,0,0,1,6.2-9,25.12,25.12,0,0,1,8.75-5.72,26.15,26.15,0,0,1,9.57-1.71A30.37,30.37,0,0,1,44.69,195.72Z" style="fill:#ed6d86"/><path d="M19.54,2.55c-.6.44-1.21.94-1.85,1.49s-1.24,1.21-1.89,1.9-1.3,1.43-2,2.22-1.3,1.72-2,2.65-1.36,1.91-2,3-1.32,2.21-2,3.41S6.64,19.76,6,21.09s-1.16,2.8-1.74,4.26A67.12,67.12,0,0,0,.08,46.19c0,1,0,2-.08,2.94s.05,2,.08,3c0,.5,0,1,.05,1.51s.09,1,.13,1.5c.09,1,.19,2,.28,3A96.64,96.64,0,0,0,3,70.43,152.36,152.36,0,0,0,12.3,95.17l.94,2c1.76,4.65,3.7,9.18,5.74,13.61,2.13,4.62,4.37,9.13,6.68,13.58s4.66,8.84,7.05,13.19c.6,1.08,1.2,2.16,1.81,3.24-4.45-7.26-9-12.66-13-15.91-4.71-3.77-8.84-4.59-11.49-1.58-3.29,3.74.87,4.58,7.09,6.66,5.77,1.95,13.3,4.95,18.45,12.69,3.89,6.93,7.83,13.76,11.67,20.62,2.27,4.08,4.54,8.16,6.77,12.24.62,1.29,1.25,2.58,1.9,3.88a36.63,36.63,0,0,0-6.08-6.16c-4.61-3.56-8.71-4.05-11.32-1.08-3.26,3.71.78,4.18,6.87,6.05,4.49,1.38,10.17,3.59,14.61,8.44.39.76.8,1.51,1.19,2.26a243.54,243.54,0,0,1,11.91,26.34l1.24,3.38,1.17,3.4c.78,2.27,1.44,4.57,2.16,6.85s1.33,4.58,2,6.88,1.24,4.6,1.75,6.92l.85,3.46c.28,1.15.52,2.31.79,3.47.55,2.3,1,4.62,1.51,6.94.26,1.16.48,2.32.68,3.48l.64,3.49q.6,3.5,1.13,7c.16,1.16.32,2.32.47,3.48,0,1.73-.07,3.39-.17,5-.14,3.18-.54,6.09-.88,8.72s-.82,5-1.14,7.06-.69,3.88-.82,5.43a13,13,0,0,0,0,3.89c.45,2.1,1.86,3.23,4.77,3.42s4.42-.8,5.06-3a12.17,12.17,0,0,0,.37-4.08c-.09-1.64-.34-3.56-.67-5.73s-.89-4.6-1.47-7.28-1.23-5.59-2-8.75c-.36-1.55-.72-3.15-1.1-4.81-.11-1.22-.22-2.43-.36-3.65-.28-2.37-.6-4.74-.93-7.11l-.6-3.53c-.19-1.19-.39-2.36-.64-3.54-.46-2.35-.92-4.7-1.51-7-.28-1.17-.55-2.34-.86-3.49l-1-3.47c-.63-2.31-1.42-4.59-2.13-6.88s-1.53-4.55-2.34-6.82-1.64-4.51-2.55-6.74l-1.29-3.37-1.35-3.35q-5.35-13.43-11.39-26.68c-3.47-7.71-7.27-15.31-11.24-22.85a52.66,52.66,0,0,1-.8-10.33,73.07,73.07,0,0,1,4-21.19c4-12.23,8.5-20,.41-20.78a9.77,9.77,0,0,0-9.73,4.68c-2.21,3.39-3.34,8.51-3.23,14.84a81.94,81.94,0,0,0,3.86,22c.12.41.26.83.39,1.24q-5.34-9.85-10.87-19.7c-.2-.35-.4-.7-.59-1.05a80.42,80.42,0,0,1-3.83-17,76,76,0,0,1,1.56-25.65C34,85.46,36.1,80.43,36.57,77a6.61,6.61,0,0,0,0-2.26,3.34,3.34,0,0,0-.73-1.7,4.38,4.38,0,0,0-1.73-1.22,11.88,11.88,0,0,0-2.83-.79A8.42,8.42,0,0,0,22.22,75c-2.17,3.34-3.38,8.94-2.87,16.36S22,107.86,25.91,118q.84,2.2,1.79,4.49c-2.29-4.18-4.56-8.39-6.75-12.68S16.53,101,14.49,96.45c-.22-.63-.45-1.26-.66-1.89a118.89,118.89,0,0,1-3.54-12.77A89.64,89.64,0,0,1,8.52,69.5,74,74,0,0,1,8.62,58c.12-.91.23-1.81.34-2.7.06-.44.11-.88.18-1.31s.17-.87.25-1.3c.17-.85.32-1.69.51-2.52s.43-1.62.64-2.42A56.07,56.07,0,0,1,17.77,32c.73-1,1.38-2.07,2.08-3l2.06-2.71c.69-.85,1.36-1.66,2-2.44s1.27-1.51,1.88-2.21,1.18-1.38,1.72-2,1.11-1.25,1.6-1.85.93-1.19,1.36-1.74.83-1.08,1.18-1.61A11.19,11.19,0,0,0,33.9,8.5,8.07,8.07,0,0,0,31.57,3a7.51,7.51,0,0,0-5.44-3A10.56,10.56,0,0,0,19.54,2.55Zm37,177.71-.66-.86c-.41-.84-.81-1.68-1.17-2.52C55.37,178,56,179.14,56.58,180.26Z" style="fill:#ed6d86"/><polygon points="9.72 75.9 9.72 75.9 9.72 75.9 9.72 75.9" style="fill:#ed6d86"/><path d="M68.89,7.94a62,62,0,0,0-27.57,8l-1.07.46h0A56.38,56.38,0,0,0,28,24.11h0a56.49,56.49,0,0,0-16.7,23.41h0A56.81,56.81,0,0,0,7.64,67.38a53.51,53.51,0,0,0,.71,8.75l1.37-.23A51.73,51.73,0,0,1,9,67.38,54.86,54.86,0,0,1,28.86,25.17h0a55.22,55.22,0,0,1,12-7.54l1.63-.71.81-.34.82-.31,1.67-.63,1.69-.54a41.73,41.73,0,0,1,6.85-1.59h0A42.09,42.09,0,0,1,60.64,13,43.53,43.53,0,0,1,100.3,38.67h0a38.13,38.13,0,0,1,2.32,6.61h0c.14.51.25,1,.37,1.54s.16.87.22,1.3c.09,1.15.23,2.29.28,3.41s0,2.24-.07,3.34A32.2,32.2,0,0,1,100.15,67a32.68,32.68,0,0,1-6.71,9.09,29.73,29.73,0,0,1-8.31,5.7c-.36.17-.7.37-1.07.51l-1.1.41-1.07.4a7,7,0,0,1-1.07.35,29.53,29.53,0,0,1-4.2.92l-1,.16-1,0-1,0-.47,0-.48,0-1.84-.09-1.76-.27a11.68,11.68,0,0,1-1.68-.37,11.49,11.49,0,0,1-1.58-.44l-1.5-.53L63,82.25l-.68-.3-.63-.36-1.23-.69-1.12-.77a10.09,10.09,0,0,1-1.06-.75,41.87,41.87,0,0,1-6-5.9c-.66-.92-1.43-1.64-2-2.35a14.79,14.79,0,0,0-1.81-1.66,4.32,4.32,0,0,0-3.91-.77A3.46,3.46,0,0,0,42,71.88,8.33,8.33,0,0,0,42.2,75a17.05,17.05,0,0,0,1.55,4,26.48,26.48,0,0,0,8.4,9,16.16,16.16,0,0,0,1.61,1c.56.31,1.12.65,1.71,1l1.87.82,1,.42,1,.33c.68.22,1.37.46,2.08.66l2.2.48a19,19,0,0,0,2.3.33,18.49,18.49,0,0,0,2.38.19l2.45,0L73.24,93l.64-.06.63-.12,1.27-.25,1.29-.26,1.27-.38a38,38,0,0,0,5-1.91,10.12,10.12,0,0,0,1.23-.62l1.23-.66,1.23-.68c.41-.23.79-.52,1.19-.78a36.67,36.67,0,0,0,8.76-8,38.23,38.23,0,0,0,6.24-11,37,37,0,0,0,.92-22.39c-.07-.31-.14-.62-.22-.92h0a39.65,39.65,0,0,0-2.4-6.84h0a44.78,44.78,0,0,0-19.28-20.9,24.2,24.2,0,0,0,3.06.94c1.17.25,2,.19,2.41-.29s.48-1.42,0-2.8c-.84-2.49-2.9-4.24-6.06-5.44A26.06,26.06,0,0,0,76.1,8.26,45.32,45.32,0,0,0,68.89,7.94Z" style="fill:#ed6d86"/><path d="M95,171.2a38.41,38.41,0,0,0-2.94-14A39.63,39.63,0,0,0,88,150c-.76-1-1.54-2-2.31-2.86a34.14,34.14,0,0,0-8.88-7.2,18.26,18.26,0,0,0-3.6-1.59,8.78,8.78,0,0,0-2.88-.48,3.64,3.64,0,0,0-3.48,2,4,4,0,0,0,.15,4,12.43,12.43,0,0,0,1.61,2.1c.68.73,1.55,1.46,2.48,2.31C73,150,75.39,151.9,78,154.42c.61.64,1.26,1.31,1.9,2s1.28,1.48,1.86,2.32,1.17,1.73,1.77,2.66A32.77,32.77,0,0,1,85,164.51,38.07,38.07,0,0,1,87.88,181a95.71,95.71,0,0,1-3.62,21.81c-1.67,6.25-3.82,12.86-6.25,19.82-1.64,4.19-3.3,8.39-4.93,12.59-1.87,4.78-3.69,9.57-5.42,14.41-2.79,7-5.28,13.57-7.42,19.87-5.36,15.73-8.25,29.63-9.12,41a95.14,95.14,0,0,0-.12,15c0,1.08.18,2.1.3,3.08s.23,1.92.39,2.81c.11.61.23,1.19.35,1.76a7.63,7.63,0,0,1,1.42-.65,7.52,7.52,0,0,1,3.88-.86h.45a10,10,0,0,1,4.81,1.22c-.1-.95-.21-2-.38-3.06-.1-.81-.21-1.67-.33-2.57s-.28-1.83-.38-2.81c-.55-3.91-1.06-8.51-1.37-13.82a147.72,147.72,0,0,1,3.36-40.24q2.07-9.58,5.44-20.24c1.73-4.84,3.55-9.65,5.42-14.44q2.37-6.09,4.78-12.17c3-6.92,5.88-13.44,8.33-19.68a114.77,114.77,0,0,0,6.72-22.23A53.06,53.06,0,0,0,95,171.2Z" style="fill:#ed6d86"/><polygon points="18.61 198.38 18.61 198.38 18.61 198.38 18.61 198.38" style="fill:#ed6d86"/><g id="e14f3f06-3ebe-4361-934c-5230da2c811f" data-name="calisson"><path d="M14.58,371.3A42.42,42.42,0,1,0,57,328.88,42.42,42.42,0,0,0,14.58,371.3Z" style="fill:#fff"/><path d="M77.07,360.1C74.3,368.43,65,374,57,371.3h0a16,16,0,0,0,3.1-1.42c4.94-3.3,6.79-7.93,7.72-12.56,0-12.8-10.24-21.66-21.32-27.13A42.72,42.72,0,0,1,57,328.88,42.26,42.26,0,0,1,70.33,331C76.4,339.46,80.67,350.21,77.07,360.1Z" style="fill:#7fcbe1"/><polygon points="56.99 371.3 56.99 371.3 56.99 371.3 56.99 371.3" style="fill:#f08588"/><path d="M75.22,386C66,386.94,58.56,380.46,57,371.3h0a23.12,23.12,0,0,0,2.57,2.35c8.26,5.88,18.44,2.18,24-5.22,5.55-8.33,4.63-16.66,4.52-25.72l-.06-.33a42.21,42.21,0,0,1,11.11,24l-.08.2C94.66,375.83,86.33,384.16,75.22,386Z" style="fill:#7fcbe1"/><path d="M50.23,388.79c-.92-6.48,1.85-13,6.76-17.49,0,0-.41,1.29-.93,3.47-2.13,7.54,3.43,15,9.91,18.65,9.79,4.45,21.28,1.19,29.65-4.59A42.59,42.59,0,0,1,77.91,408.2C65.86,407.93,53.56,402.1,50.23,388.79Z" style="fill:#7fcbe1"/><path d="M36.35,377.68c4.63-6.47,13-8.32,20.64-6.38a26.75,26.75,0,0,0-3.53,1.09c-5.08,2.52-8.78,6.22-10.63,11.77-2.37,12.61,4.67,23.2,15,29.53l-.79,0a42.21,42.21,0,0,1-21.84-6C30.71,398,29.74,387.24,36.35,377.68Z" style="fill:#7fcbe1"/><path d="M41.9,359.17c6.48.93,13,4.63,15.09,12.13A18.85,18.85,0,0,0,53.94,369c-3.71-3.38-8.33-3.38-13-2.45C27.37,370.36,23,382.79,22.12,395.43a42.09,42.09,0,0,1-7.36-20.33C20.88,365.75,30.24,358.45,41.9,359.17Z" style="fill:#7fcbe1"/><path d="M57.64,349.92c4.62,6.48,4.62,15.73-.64,21.38h0a16.33,16.33,0,0,0,.13-3.64c.52-7.56-6-12.19-11.51-15-9.68-3.73-20-.26-28.77,4.94A42.36,42.36,0,0,1,29,339.48C39.44,339.06,50.55,340.47,57.64,349.92Z" style="fill:#7fcbe1"/><rect x="56.99" y="371.3" style="fill:#7fcbe1"/><rect x="56.99" y="371.3" style="fill:#f08588"/><rect x="56.99" y="371.3" style="fill:#f08588"/><path d="M14.58,371.3A42.42,42.42,0,1,0,57,328.88,42.42,42.42,0,0,0,14.58,371.3Z" style="mix-blend-mode:multiply;fill:url(#b8f09312-9ee3-464f-b4be-cf60727413e2)"/><path d="M14.58,371.3A42.42,42.42,0,1,0,57,328.88,42.42,42.42,0,0,0,14.58,371.3Z" style="mix-blend-mode:multiply;fill:url(#f3d6b75f-d4ce-4009-8dd1-95cac7a1e861)"/><g style="opacity:0.8;mix-blend-mode:screen"><image width="300" height="132" transform="translate(20.97 333.78) scale(0.24)" xlink:href="montant1.png"/></g><g style="opacity:0.8;mix-blend-mode:screen"><image width="133" height="299" transform="translate(62.73 335.46) scale(0.24)" xlink:href="montant2.png"/></g></g><line x1="36.75" y1="240.99" x2="39.86" y2="240.1" style="fill:#d2c6ca"/><line x1="36.75" y1="240.99" x2="39.86" y2="240.1" style="opacity:0.46;fill:url(#a8104980-2b7b-4230-958a-a164802a73a7)"/><ellipse cx="37.23" cy="236.56" rx="12.45" ry="12.07" style="fill:#fabc5e"/><path d="M38.62,247.57a12.27,12.27,0,0,1-12.44-12.08,11.9,11.9,0,0,1,4-8.9,12,12,0,0,0-5.43,10,12.27,12.27,0,0,0,12.44,12.08,12.63,12.63,0,0,0,8.41-3.17A12.7,12.7,0,0,1,38.62,247.57Z" style="fill:#f3925f;opacity:0.61"/><circle cx="38.16" cy="235.4" r="10.65" transform="matrix(0.53, -0.85, 0.85, 0.53, -182.14, 144.1)" style="fill:#fefbe2"/><polygon points="37.93 234.14 37.93 234.14 37.93 234.14 37.93 234.14" style="fill:#e78290"/><polygon points="37.93 234.14 37.93 234.14 37.93 234.14 37.93 234.14" style="fill:#e78290"/><path d="M44.6,242a10.09,10.09,0,0,0,3.07-6.38l-8.86-.11Z" style="fill:#aecd85"/><path d="M32.24,242.31a8.55,8.55,0,0,0,5.82,2.44h.09l.08-8.88Z" style="fill:#aecd85"/><path d="M38.57,235.84h0l-.08,8.87a8.47,8.47,0,0,0,5.87-2.38Z" style="fill:#aecd85"/><path d="M28.94,235.52a10.15,10.15,0,0,0,3,6.54l6-6.43Z" style="fill:#aecd85"/><polygon points="37.87 236.52 37.87 236.52 37.87 236.52 37.87 236.52" style="fill:#e78290"/><polygon points="37.87 236.52 37.87 236.52 37.87 236.52 37.87 236.52" style="fill:#e78290"/><path d="M44.69,228.81a10.15,10.15,0,0,1,3,6.45l-8.87-.1Z" style="fill:#aecd85"/><path d="M32.34,228.22a8.53,8.53,0,0,1,5.87-2.31h.09l-.09,8.87Z" style="fill:#aecd85"/><path d="M38.55,234.83h0l.09-8.87a8.55,8.55,0,0,1,5.83,2.53Z" style="fill:#aecd85"/><path d="M28.94,235a10.13,10.13,0,0,1,3.17-6.47L38,235.15Z" style="fill:#aecd85"/><path d="M40.39,235.62a1.83,1.83,0,1,1-1.82-1.7A1.77,1.77,0,0,1,40.39,235.62Z" style="fill:#fefbe2"/><ellipse cx="85.72" cy="116.44" rx="12.45" ry="12.07" style="fill:#aecd85"/><path d="M87.11,127.44a12.27,12.27,0,0,1-12.45-12.07,11.88,11.88,0,0,1,4-8.91,12,12,0,0,0-5.44,10,12.27,12.27,0,0,0,12.45,12.07,12.63,12.63,0,0,0,8.41-3.17A12.64,12.64,0,0,1,87.11,127.44Z" style="fill:#78b884"/><circle cx="86.65" cy="115.27" r="10.65" transform="translate(-53.01 151.21) rotate(-67.5)" style="fill:#fefbe2"/><polygon points="86.42 114.02 86.42 114.02 86.42 114.01 86.42 114.02" style="fill:#e78290"/><polygon points="86.42 114.01 86.42 114.02 86.42 114.01 86.42 114.01" style="fill:#e78290"/><path d="M93.08,121.88a10.15,10.15,0,0,0,3.08-6.38l-8.87-.1Z" style="fill:#e78290"/><path d="M80.72,122.18a8.48,8.48,0,0,0,5.83,2.44h.08l.09-8.87Z" style="fill:#e78290"/><path d="M87.06,115.72h0L87,124.59a8.53,8.53,0,0,0,5.88-2.39Z" style="fill:#e78290"/><path d="M77.43,115.4a10.21,10.21,0,0,0,3,6.54l6-6.43Z" style="fill:#e78290"/><polygon points="86.36 116.39 86.36 116.39 86.36 116.39 86.36 116.39" style="fill:#e78290"/><polygon points="86.36 116.39 86.36 116.39 86.36 116.39 86.36 116.39" style="fill:#e78290"/><path d="M93.18,108.69a10.2,10.2,0,0,1,2.95,6.45L87.26,115Z" style="fill:#e78290"/><path d="M80.83,108.09a8.48,8.48,0,0,1,5.87-2.3h.09l-.09,8.88Z" style="fill:#e78290"/><path d="M87,114.71h0l.08-8.88A8.53,8.53,0,0,1,93,108.36Z" style="fill:#e78290"/><path d="M77.43,114.91a10.11,10.11,0,0,1,3.17-6.46L86.47,115Z" style="fill:#e78290"/><path d="M88.88,115.5a1.83,1.83,0,1,1-1.83-1.71A1.77,1.77,0,0,1,88.88,115.5Z" style="fill:#fefbe2"/><line x1="36.75" y1="505.42" x2="39.86" y2="506.31" style="fill:#d2c6ca"/><line x1="36.75" y1="505.42" x2="39.86" y2="506.31" style="opacity:0.46;fill:url(#e730b16b-a1e1-4b5b-a39d-40d738fd1643)"/><ellipse cx="37.23" cy="509.84" rx="12.45" ry="12.07" style="fill:#fabc5e"/><path d="M38.62,498.84a12.26,12.26,0,0,0-12.44,12.07,11.9,11.9,0,0,0,4,8.91,12,12,0,0,1-5.43-10,12.26,12.26,0,0,1,12.44-12.07,12.63,12.63,0,0,1,8.41,3.17A12.7,12.7,0,0,0,38.62,498.84Z" style="fill:#f3925f;opacity:0.61"/><circle cx="38.16" cy="511.01" r="10.65" transform="translate(-262.95 96.38) rotate(-31.72)" style="fill:#fefbe2"/><polygon points="37.93 512.27 37.93 512.27 37.93 512.27 37.93 512.27" style="fill:#e78290"/><polygon points="37.93 512.27 37.93 512.27 37.93 512.27 37.93 512.27" style="fill:#e78290"/><path d="M44.6,504.4a10.09,10.09,0,0,1,3.07,6.38l-8.86.11Z" style="fill:#aecd85"/><path d="M32.24,504.1a8.5,8.5,0,0,1,5.82-2.44h.09l.08,8.87Z" style="fill:#aecd85"/><path d="M38.57,510.57h0l-.08-8.88a8.53,8.53,0,0,1,5.87,2.39Z" style="fill:#aecd85"/><path d="M28.94,510.88a10.17,10.17,0,0,1,3-6.54l6,6.44Z" style="fill:#aecd85"/><polygon points="37.87 509.89 37.87 509.89 37.87 509.89 37.87 509.89" style="fill:#e78290"/><polygon points="37.87 509.89 37.87 509.89 37.87 509.89 37.87 509.89" style="fill:#e78290"/><path d="M44.69,517.6a10.17,10.17,0,0,0,3-6.46l-8.87.11Z" style="fill:#aecd85"/><path d="M32.34,518.19a8.48,8.48,0,0,0,5.87,2.3h.09l-.09-8.87Z" style="fill:#aecd85"/><path d="M38.55,511.58h0l.09,8.87a8.55,8.55,0,0,0,5.83-2.53Z" style="fill:#aecd85"/><path d="M28.94,511.37a10.15,10.15,0,0,0,3.17,6.47L38,511.26Z" style="fill:#aecd85"/><path d="M40.39,510.78a1.83,1.83,0,1,0-1.82,1.71A1.77,1.77,0,0,0,40.39,510.78Z" style="fill:#fefbe2"/><ellipse cx="85.72" cy="627.97" rx="12.45" ry="12.07" style="fill:#aecd85"/><path d="M87.11,617A12.27,12.27,0,0,0,74.66,629a11.86,11.86,0,0,0,4,8.9,12,12,0,0,1-5.44-10,12.27,12.27,0,0,1,12.45-12.08,12.68,12.68,0,0,1,8.41,3.17A12.72,12.72,0,0,0,87.11,617Z" style="fill:#78b884"/><circle cx="86.65" cy="629.13" r="10.65" transform="translate(-234.16 81.05) rotate(-22.5)" style="fill:#fefbe2"/><polygon points="86.42 630.39 86.42 630.39 86.42 630.39 86.42 630.39" style="fill:#e78290"/><polygon points="86.42 630.39 86.42 630.39 86.42 630.39 86.42 630.39" style="fill:#e78290"/><path d="M93.08,622.52a10.2,10.2,0,0,1,3.08,6.38l-8.87.11Z" style="fill:#e78290"/><path d="M80.72,622.23a8.54,8.54,0,0,1,5.83-2.45h.08l.09,8.87Z" style="fill:#e78290"/><path d="M87.06,628.69h0L87,619.82a8.52,8.52,0,0,1,5.88,2.38Z" style="fill:#e78290"/><path d="M77.43,629a10.21,10.21,0,0,1,3-6.54l6,6.43Z" style="fill:#e78290"/><polygon points="86.36 628.01 86.36 628.01 86.36 628.01 86.36 628.01" style="fill:#e78290"/><polygon points="86.36 628.01 86.36 628.01 86.36 628.01 86.36 628.01" style="fill:#e78290"/><path d="M93.18,635.72a10.2,10.2,0,0,0,2.95-6.45l-8.87.11Z" style="fill:#e78290"/><path d="M80.83,636.32a8.57,8.57,0,0,0,5.87,2.3h.09l-.09-8.87Z" style="fill:#e78290"/><path d="M87,629.7h0l.08,8.87A8.52,8.52,0,0,0,93,636.05Z" style="fill:#e78290"/><path d="M77.43,629.5A10.13,10.13,0,0,0,80.6,636l5.87-6.57Z" style="fill:#e78290"/><path d="M88.88,628.91a1.83,1.83,0,1,0-1.83,1.7A1.78,1.78,0,0,0,88.88,628.91Z" style="fill:#fefbe2"/><path d="M6.15,153.71a6.62,6.62,0,0,1,8.68,4.34l.64,2.22,2.06,7.11,3.28,11.37a2,2,0,0,1-1.34,2.44h0A2,2,0,0,1,17,179.84l-5.33-18.48a1.78,1.78,0,0,1-.08-.45l-.36-1.25a2.93,2.93,0,0,0-3.95-1.88,3,3,0,0,0-1.63,3.57l.52,1.8a1.73,1.73,0,1,1-3.33,1l-.66-2.27A6.69,6.69,0,0,1,6.15,153.71Z" style="fill:#e8cce4"/><path d="M20.81,178.75A2,2,0,1,1,17,179.84l-.2-.71c.94-1.62,2-3.39,2.73-4.75Z" style="fill:#b53b60"/><polygon points="17.53 167.38 18.41 170.42 15.7 175.24 14.13 169.83 17.35 166.78 17.53 167.38" style="fill:#b53b60"/><path d="M14.83,158.05l.64,2.22.44,1.52c-.68,1-1.87,2.77-2.87,4.25l-1.2-4.13,2.94-4A.75.75,0,0,1,14.83,158.05Z" style="fill:#b53b60"/><path d="M13.33,155.4c-.79,1-1.77,2.29-2.57,3.3a2.88,2.88,0,0,0-1.51-1l1-4.15A6.59,6.59,0,0,1,13.33,155.4Z" style="fill:#b53b60"/><path d="M6.15,153.71l.2-.06.71,4.25a2.88,2.88,0,0,0-1.17,1.2l-2.46-3.41A6.49,6.49,0,0,1,6.15,153.71Z" style="fill:#b53b60"/><path d="M2.17,158.16l3.38,2.41a3,3,0,0,0,.12.78L6,162.44l-3.82-.75A6.81,6.81,0,0,1,2.17,158.16Z" style="fill:#b53b60"/><path d="M5,165.3a1.73,1.73,0,0,1-2.14-1.19l-.2-.7,3.59.1A1.73,1.73,0,0,1,5,165.3Z" style="fill:#b53b60"/><g style="opacity:0.64"><path d="M18.91,176.81,16.07,167l-1.78-6.16-.56-1.93a5.74,5.74,0,0,0-7.52-3.75,5.52,5.52,0,0,0-2.9,2.51,5.63,5.63,0,0,1,3.29-3.36A5.72,5.72,0,0,1,14.12,158l.56,1.93,1.78,6.16L19.31,176a1.74,1.74,0,0,1-.35,1.59A1.7,1.7,0,0,0,18.91,176.81Z" style="fill:#fff"/></g><path d="M15.09,169.61s-4.78-1.15-6.54.59,1.91,3.13,1.91,3.13-1.56,4.29,1.91,2.89,4.6-4.9,4.11-5.84A1.36,1.36,0,0,0,15.09,169.61Z" style="fill:#9acfdc"/><path d="M16.14,171.06l-3,2.32a9.24,9.24,0,0,1,1.5-1.79,28.26,28.26,0,0,0-3.37.15s2.39-1.35,3.44-1.2S16.52,170.32,16.14,171.06Z" style="fill:#84b2bd"/><path d="M17.6,169s3.17-3.76,5.62-3.4.31,3.66.31,3.66,3.8,2.53.17,3.45-6.61-1.22-6.76-2.27A1.34,1.34,0,0,1,17.6,169Z" style="fill:#9acfdc"/><path d="M17.61,170.75l3.78.1a9.48,9.48,0,0,0-2.27-.56,28.14,28.14,0,0,1,2.8-1.87s-2.72.33-3.48,1.07S16.86,170.37,17.61,170.75Z" style="fill:#84b2bd"/><path d="M14.65,171.23a2.16,2.16,0,1,0,1.49-2.67A2.16,2.16,0,0,0,14.65,171.23Z" style="fill:#9acfdc"/><path d="M23.63,304.12s5.9,1.15,6.86,2.75-4.36.77-4.36.77,2.18,3.33.9,3.72-3-2.95-3-2.95-.39,3.46-2.37,3.27.57-6.86.57-6.86Z" style="fill:#fabc5e"/><path d="M23.28,304.28l2.37,1.49a.12.12,0,0,1,0,.23l-1.42,0a.12.12,0,0,0-.08.2l.67.78a.12.12,0,0,1-.15.18l-1.07-.53a.11.11,0,0,0-.17.06L23,307.93a.13.13,0,0,1-.22,0l-1.39-1.66a.12.12,0,0,1,0-.16l1.69-1.84A.12.12,0,0,1,23.28,304.28Z" style="fill:#f3925f;opacity:0.61"/><path d="M14.67,295.16s-1.15-5.89-2.75-6.86-.77,4.36-.77,4.36-3.33-2.18-3.72-.9,3,2.95,3,2.95-3.46.39-3.27,2.37,6.86-.57,6.86-.57Z" style="fill:#fabc5e"/><path d="M14.51,295.51,13,293.14a.12.12,0,0,0-.23,0l0,1.42a.12.12,0,0,1-.2.08l-.78-.66a.11.11,0,0,0-.18.14l.53,1.07a.11.11,0,0,1-.06.17l-1.21.35a.13.13,0,0,0,0,.22l1.66,1.39a.12.12,0,0,0,.16,0l1.84-1.69A.12.12,0,0,0,14.51,295.51Z" style="fill:#f3925f;opacity:0.61"/><path d="M13.1,295.52c-2.08,2.08-1.49,6,1.32,8.85s6.77,3.4,8.85,1.32,1.49-6-1.32-8.85S15.18,293.44,13.1,295.52Z" style="fill:#e78290"/><path d="M23.71,299.27a101.39,101.39,0,0,0-10,4.36,8.84,8.84,0,0,1-.88-1.28A65.9,65.9,0,0,1,23,298,9.42,9.42,0,0,1,23.71,299.27Z" style="fill:#fabc5e"/><path d="M21.71,296.62a99.24,99.24,0,0,0-9.52,4.17,6.85,6.85,0,0,1-.33-1.73,66,66,0,0,1,8.4-3.56A8.81,8.81,0,0,1,21.71,296.62Z" style="fill:#fabc5e"/><path d="M24.51,302.35c-2.42.89-5.78,2.45-8.08,3.56a9.14,9.14,0,0,1-1.44-1,65.34,65.34,0,0,1,9.33-4A6.37,6.37,0,0,1,24.51,302.35Z" style="fill:#fabc5e"/><path d="M23.27,305.69a5,5,0,0,1-4.83,1c1.8-.86,3.95-1.71,5.71-2.37A4,4,0,0,1,23.27,305.69Z" style="fill:#fabc5e"/><path d="M13.1,295.52a5,5,0,0,1,4.85-1c-1.89.78-4.07,1.78-5.83,2.62A4,4,0,0,1,13.1,295.52Z" style="fill:#fabc5e"/><path d="M23.71,299.27a101.39,101.39,0,0,0-10,4.36,8.84,8.84,0,0,1-.88-1.28A65.9,65.9,0,0,1,23,298,9.42,9.42,0,0,1,23.71,299.27Z" style="fill:#fabc5e"/><path d="M21.71,296.62a99.24,99.24,0,0,0-9.52,4.17,6.85,6.85,0,0,1-.33-1.73,66,66,0,0,1,8.4-3.56A8.81,8.81,0,0,1,21.71,296.62Z" style="fill:#fabc5e"/><path d="M24.51,302.35c-2.42.89-5.78,2.45-8.08,3.56a9.14,9.14,0,0,1-1.44-1,65.34,65.34,0,0,1,9.33-4A6.37,6.37,0,0,1,24.51,302.35Z" style="fill:#fabc5e"/><path d="M23.27,305.69a5,5,0,0,1-4.83,1c1.8-.86,3.95-1.71,5.71-2.37A4,4,0,0,1,23.27,305.69Z" style="fill:#fabc5e"/><path d="M13.1,295.52a5,5,0,0,1,4.85-1c-1.89.78-4.07,1.78-5.83,2.62A4,4,0,0,1,13.1,295.52Z" style="fill:#fabc5e"/><path d="M19.3,295a4.67,4.67,0,0,0-3.89,1.2c-2.08,2.08-1.49,6.05,1.32,8.85a9.3,9.3,0,0,0,2.65,1.87,8.48,8.48,0,0,1-5-2.53c-2.81-2.81-3.4-6.77-1.32-8.85C14.58,294,17,293.92,19.3,295Z" style="fill:#f3925f;opacity:0.61"/><path d="M6.15,592.69a6.61,6.61,0,0,0,8.68-4.33l.64-2.22L17.53,579l3.28-11.37a2,2,0,0,0-1.34-2.44h0A2,2,0,0,0,17,566.57l-5.33,18.48a1.78,1.78,0,0,0-.08.45l-.36,1.25a2.92,2.92,0,0,1-3.95,1.87,3,3,0,0,1-1.63-3.56l.52-1.8a1.73,1.73,0,1,0-3.33-1l-.66,2.27A6.68,6.68,0,0,0,6.15,592.69Z" style="fill:#e8cce4"/><path d="M20.81,567.66A2,2,0,1,0,17,566.57l-.2.71c.94,1.62,2,3.39,2.73,4.75Z" style="fill:#b53b60"/><polygon points="17.53 579.03 18.41 575.99 15.7 571.16 14.13 576.58 17.35 579.63 17.53 579.03" style="fill:#b53b60"/><path d="M14.83,588.36l.64-2.22.44-1.52c-.68-1-1.87-2.78-2.87-4.25l-1.2,4.12,2.94,4A1,1,0,0,0,14.83,588.36Z" style="fill:#b53b60"/><path d="M13.33,591c-.79-1-1.77-2.29-2.57-3.3a3,3,0,0,1-1.51,1l1,4.15A6.76,6.76,0,0,0,13.33,591Z" style="fill:#b53b60"/><path d="M6.15,592.69l.2.07.71-4.26a2.77,2.77,0,0,1-1.17-1.2l-2.46,3.42A6.39,6.39,0,0,0,6.15,592.69Z" style="fill:#b53b60"/><path d="M2.17,588.25l3.38-2.42a3,3,0,0,1,.12-.77L6,584l-3.82.74A6.85,6.85,0,0,0,2.17,588.25Z" style="fill:#b53b60"/><path d="M5,581.11a1.73,1.73,0,0,0-2.14,1.19l-.2.7,3.59-.1A1.73,1.73,0,0,0,5,581.11Z" style="fill:#b53b60"/><g style="opacity:0.64"><path d="M18.91,569.59l-2.84,9.86-1.78,6.16-.56,1.92a5.73,5.73,0,0,1-7.52,3.76,5.57,5.57,0,0,1-2.9-2.51,5.63,5.63,0,0,0,3.29,3.36,5.73,5.73,0,0,0,7.52-3.75l.56-1.93,1.78-6.16,2.85-9.85a1.73,1.73,0,0,0-.35-1.59A1.65,1.65,0,0,1,18.91,569.59Z" style="fill:#fff"/></g><path d="M15.09,576.8s-4.78,1.15-6.54-.59,1.91-3.13,1.91-3.13-1.56-4.29,1.91-2.89,4.6,4.9,4.11,5.84A1.36,1.36,0,0,1,15.09,576.8Z" style="fill:#9acfdc"/><path d="M16.14,575.34l-3-2.31a9.24,9.24,0,0,0,1.5,1.79,28.26,28.26,0,0,1-3.37-.15s2.39,1.35,3.44,1.2S16.52,576.09,16.14,575.34Z" style="fill:#84b2bd"/><path d="M17.6,577.45s3.17,3.76,5.62,3.4.31-3.66.31-3.66,3.8-2.53.17-3.46S17.09,575,16.94,576A1.34,1.34,0,0,0,17.6,577.45Z" style="fill:#9acfdc"/><path d="M17.61,575.65l3.78-.09a9.48,9.48,0,0,1-2.27.56,28.14,28.14,0,0,0,2.8,1.87s-2.72-.33-3.48-1.07S16.86,576,17.61,575.65Z" style="fill:#84b2bd"/><path d="M14.65,575.18a2.16,2.16,0,1,1,1.49,2.67A2.17,2.17,0,0,1,14.65,575.18Z" style="fill:#9acfdc"/><path d="M23.63,442.29s5.9-1.15,6.86-2.75-4.36-.77-4.36-.77,2.18-3.34.9-3.72-3,2.95-3,2.95-.39-3.46-2.37-3.27.57,6.86.57,6.86Z" style="fill:#fabc5e"/><path d="M23.28,442.13l2.37-1.5a.11.11,0,0,0,0-.22l-1.42,0a.11.11,0,0,1-.08-.19l.67-.79a.12.12,0,0,0-.15-.18l-1.07.54a.11.11,0,0,1-.17-.06L23,438.48a.13.13,0,0,0-.22,0l-1.39,1.67a.12.12,0,0,0,0,.16l1.69,1.84A.13.13,0,0,0,23.28,442.13Z" style="fill:#f3925f;opacity:0.61"/><path d="M14.67,451.25s-1.15,5.89-2.75,6.85-.77-4.35-.77-4.35-3.33,2.17-3.72.89,3-2.94,3-2.94-3.46-.39-3.27-2.38,6.86.58,6.86.58Z" style="fill:#fabc5e"/><path d="M14.51,450.9,13,453.27a.12.12,0,0,1-.23,0l0-1.43a.12.12,0,0,0-.2-.07l-.78.66a.11.11,0,0,1-.18-.14l.53-1.07a.11.11,0,0,0-.06-.17l-1.21-.35a.13.13,0,0,1,0-.22l1.66-1.39a.12.12,0,0,1,.16,0l1.84,1.69A.12.12,0,0,1,14.51,450.9Z" style="fill:#f3925f;opacity:0.61"/><path d="M13.1,450.88c-2.08-2.07-1.49-6,1.32-8.85s6.77-3.4,8.85-1.32,1.49,6.05-1.32,8.85S15.18,453,13.1,450.88Z" style="fill:#e78290"/><path d="M23.71,447.13a96.84,96.84,0,0,1-10-4.36,9.51,9.51,0,0,0-.88,1.29A65.9,65.9,0,0,0,23,448.37,8.9,8.9,0,0,0,23.71,447.13Z" style="fill:#fabc5e"/><path d="M21.71,449.79a99.24,99.24,0,0,1-9.52-4.17,6.77,6.77,0,0,0-.33,1.73,67.43,67.43,0,0,0,8.4,3.56A9.39,9.39,0,0,0,21.71,449.79Z" style="fill:#fabc5e"/><path d="M24.51,444.06c-2.42-.89-5.78-2.46-8.08-3.56a9.14,9.14,0,0,0-1.44,1,65.34,65.34,0,0,0,9.33,4A6.45,6.45,0,0,0,24.51,444.06Z" style="fill:#fabc5e"/><path d="M23.27,440.71a5,5,0,0,0-4.83-1c1.8.86,3.95,1.71,5.71,2.36A4.17,4.17,0,0,0,23.27,440.71Z" style="fill:#fabc5e"/><path d="M13.1,450.88a5,5,0,0,0,4.85,1c-1.89-.77-4.07-1.77-5.83-2.61A4,4,0,0,0,13.1,450.88Z" style="fill:#fabc5e"/><path d="M23.71,447.13a96.84,96.84,0,0,1-10-4.36,9.51,9.51,0,0,0-.88,1.29A65.9,65.9,0,0,0,23,448.37,8.9,8.9,0,0,0,23.71,447.13Z" style="fill:#fabc5e"/><path d="M21.71,449.79a99.24,99.24,0,0,1-9.52-4.17,6.77,6.77,0,0,0-.33,1.73,67.43,67.43,0,0,0,8.4,3.56A9.39,9.39,0,0,0,21.71,449.79Z" style="fill:#fabc5e"/><path d="M24.51,444.06c-2.42-.89-5.78-2.46-8.08-3.56a9.14,9.14,0,0,0-1.44,1,65.34,65.34,0,0,0,9.33,4A6.45,6.45,0,0,0,24.51,444.06Z" style="fill:#fabc5e"/><path d="M23.27,440.71a5,5,0,0,0-4.83-1c1.8.86,3.95,1.71,5.71,2.36A4.17,4.17,0,0,0,23.27,440.71Z" style="fill:#fabc5e"/><path d="M13.1,450.88a5,5,0,0,0,4.85,1c-1.89-.77-4.07-1.77-5.83-2.61A4,4,0,0,0,13.1,450.88Z" style="fill:#fabc5e"/><path d="M19.3,451.43a4.65,4.65,0,0,1-3.89-1.21c-2.08-2.08-1.49-6,1.32-8.85a9.26,9.26,0,0,1,2.65-1.86,8.47,8.47,0,0,0-5,2.52c-2.81,2.81-3.4,6.78-1.32,8.85C14.58,452.36,17,452.49,19.3,451.43Z" style="fill:#f3925f;opacity:0.61"/><path d="M44.69,548.68a31.43,31.43,0,0,0,12.55-7.18,22.28,22.28,0,0,0,6-8.9,10.07,10.07,0,0,0,.31-6.7,3.43,3.43,0,0,0-3.27-2.28,5,5,0,0,0-3.62,1.27,15.64,15.64,0,0,0-2.75,3.51A38.64,38.64,0,0,1,49.69,534a27.63,27.63,0,0,1-8.21,6.2,20.6,20.6,0,0,1-13.15,2,18.8,18.8,0,0,1-7.41-3.29A26,26,0,0,1,14.51,532c-.44-.73-.92-1.44-1.33-2.21L12,527.37l-1-2.49c-.34-.84-.49-1.74-.75-2.63a25.76,25.76,0,0,1-.61-6.85c.07-.89.18-1.78.32-2.66a34.21,34.21,0,0,1,2.6-8v0h0a46.77,46.77,0,0,1,7.24-11.11c1.58-1.68,3.22-3.23,4.87-4.67a70.79,70.79,0,0,1,8.79-6.46,93.9,93.9,0,0,1,32.06-12.34c8.94-1.69,15.54-1.9,19.92-2.56a16.13,16.13,0,0,0,2.9-.62,7.6,7.6,0,0,0,2.13-.92,4.26,4.26,0,0,0,2-3.38,3.73,3.73,0,0,0-1.59-3.57,8,8,0,0,0-2.32-1.14,21.32,21.32,0,0,0-3.33-.6c-5.1-.47-12.8.64-22.15,4a109.09,109.09,0,0,0-31.6,18.34,88,88,0,0,0-8.23,7.72c-1.61,1.74-3.2,3.58-4.72,5.53a47.7,47.7,0,0,0-7.21,11.16h0a36.5,36.5,0,0,0-2.7,8.35h0v0c-.17,1-.3,2.08-.38,3.12a29.72,29.72,0,0,0,0,7c.17,1,.24,2,.5,2.93s.51,1.89.76,2.83l1,2.67c.33.88.75,1.72,1.12,2.57a32,32,0,0,0,6.2,9,25.12,25.12,0,0,0,8.75,5.72A26.15,26.15,0,0,0,36.05,550,30,30,0,0,0,44.69,548.68Z" style="fill:#ed6d86"/><path d="M26.13,744.4a7.46,7.46,0,0,0,5.44-2.95,8.1,8.1,0,0,0,2.33-5.55,11.2,11.2,0,0,0-2.24-5.85c-.35-.53-.74-1.06-1.18-1.61s-.87-1.15-1.36-1.75-1-1.21-1.6-1.84-1.1-1.34-1.72-2-1.26-1.41-1.88-2.21l-2-2.43-2.06-2.71c-.7-1-1.35-2-2.08-3a55.87,55.87,0,0,1-7.23-15.8c-.21-.8-.42-1.61-.64-2.42s-.34-1.67-.51-2.52c-.08-.43-.16-.86-.25-1.3S9,689.52,9,689.08c-.11-.89-.22-1.79-.34-2.7a74,74,0,0,1-.1-11.47,89.64,89.64,0,0,1,1.77-12.29,117.62,117.62,0,0,1,3.54-12.77c.21-.63.44-1.26.66-1.89,2-4.56,4.22-9,6.46-13.36s4.46-8.51,6.75-12.68c-.63,1.51-1.23,3-1.79,4.49-3.87,10.13-6.08,19.26-6.56,26.67s.7,13,2.87,16.36a8.42,8.42,0,0,0,9.08,3.9,11.88,11.88,0,0,0,2.83-.79,4.49,4.49,0,0,0,1.73-1.22,3.34,3.34,0,0,0,.73-1.71,6.61,6.61,0,0,0,0-2.26C36.1,664,34,658.94,32.43,652a76,76,0,0,1-1.56-25.65,80.42,80.42,0,0,1,3.83-17l.59-1.06q5.52-9.84,10.87-19.69c-.13.41-.27.83-.39,1.24a81.94,81.94,0,0,0-3.86,22c-.11,6.32,1,11.44,3.23,14.84a9.8,9.8,0,0,0,9.73,4.68c8.09-.78,3.55-8.55-.41-20.78a73.14,73.14,0,0,1-4-21.19,52.66,52.66,0,0,1,.8-10.33c4-7.54,7.77-15.14,11.24-22.85q6-13.28,11.39-26.68l1.35-3.35,1.29-3.37c.91-2.23,1.7-4.49,2.55-6.75s1.58-4.53,2.34-6.81,1.5-4.57,2.13-6.88l1-3.47c.31-1.16.58-2.32.86-3.49.59-2.33,1-4.68,1.51-7,.25-1.17.45-2.35.64-3.53l.6-3.54c.33-2.36.65-4.73.93-7.11.14-1.21.25-2.42.36-3.64.38-1.66.74-3.27,1.1-4.81.76-3.16,1.37-6.08,2-8.76s1.06-5.1,1.47-7.27.58-4.09.67-5.73a12.17,12.17,0,0,0-.37-4.08c-.64-2.16-2.15-3.15-5.06-3s-4.32,1.32-4.77,3.42a13,13,0,0,0,0,3.89c.13,1.55.43,3.35.82,5.43s.76,4.43,1.14,7.06.74,5.54.88,8.72c.1,1.59.16,3.25.17,5-.15,1.17-.31,2.33-.47,3.49q-.53,3.51-1.13,7l-.64,3.49c-.2,1.17-.42,2.33-.68,3.49-.49,2.31-1,4.63-1.51,6.94-.27,1.16-.51,2.32-.79,3.47l-.85,3.46c-.51,2.32-1.17,4.61-1.75,6.92s-1.28,4.59-2,6.88-1.38,4.58-2.16,6.85l-1.17,3.4-1.24,3.38a243.54,243.54,0,0,1-11.91,26.34c-.39.75-.8,1.5-1.19,2.25-4.44,4.86-10.12,7.07-14.61,8.45-6.09,1.86-10.13,2.33-6.87,6,2.61,3,6.71,2.49,11.32-1.07A36.63,36.63,0,0,0,55.89,565c-.65,1.3-1.28,2.59-1.9,3.88-2.23,4.08-4.5,8.16-6.77,12.24-3.84,6.86-7.78,13.69-11.67,20.62-5.15,7.74-12.68,10.74-18.45,12.69-6.22,2.08-10.38,2.92-7.09,6.66,2.65,3,6.78,2.19,11.49-1.58,4-3.25,8.57-8.66,13-15.92-.61,1.09-1.21,2.16-1.81,3.25-2.39,4.35-4.75,8.73-7,13.19s-4.55,9-6.68,13.57c-2,4.43-4,9-5.74,13.61l-.94,2A152.61,152.61,0,0,0,3,674,97.13,97.13,0,0,0,.54,686.25c-.09,1-.19,2-.28,3,0,.5-.1,1-.13,1.5s0,1,0,1.51c0,1-.07,2-.08,3s.06,2,.08,2.94a67.05,67.05,0,0,0,4.19,20.83c.58,1.47,1.12,2.93,1.74,4.27s1.26,2.61,1.88,3.85,1.32,2.32,2,3.41,1.33,2.08,2,3,1.32,1.83,2,2.66,1.33,1.53,2,2.22,1.27,1.34,1.89,1.9,1.25,1,1.85,1.49A10.49,10.49,0,0,0,26.13,744.4ZM54.75,567.53c.36-.84.76-1.68,1.17-2.53l.66-.86C56,565.27,55.37,566.4,54.75,567.53Z" style="fill:#ed6d86"/><polygon points="9.72 668.51 9.72 668.51 9.72 668.51 9.72 668.51" style="fill:#ed6d86"/><path d="M68.89,736.47a62,62,0,0,1-27.57-8L40.25,728h0A56.38,56.38,0,0,1,28,720.3h0a56.49,56.49,0,0,1-16.7-23.41h0A56.85,56.85,0,0,1,7.64,677a53.42,53.42,0,0,1,.71-8.75l1.37.23A51.64,51.64,0,0,0,9,677a54.82,54.82,0,0,0,19.84,42.2h0a54.8,54.8,0,0,0,12,7.53l1.63.71.81.35.82.31,1.67.62,1.69.55a41.73,41.73,0,0,0,6.85,1.59h0a40.84,40.84,0,0,0,6.34.49,43.53,43.53,0,0,0,39.66-25.65h0a38.42,38.42,0,0,0,2.32-6.61h0c.14-.51.25-1,.37-1.54s.16-.87.22-1.31c.09-1.15.23-2.28.28-3.4s0-2.24-.07-3.34a32.2,32.2,0,0,0-3.27-12.07,32.53,32.53,0,0,0-6.71-9.09,30,30,0,0,0-8.31-5.71c-.36-.16-.7-.36-1.07-.51l-1.1-.4-1.07-.4a7,7,0,0,0-1.07-.35,31.07,31.07,0,0,0-4.2-.93l-1-.15-1,0-1,0-.47,0-.48,0-1.84.1-1.76.27a13.18,13.18,0,0,0-1.68.36,11.51,11.51,0,0,0-1.58.45l-1.5.52-1.4.64-.68.3-.63.36-1.23.69-1.12.76a11.82,11.82,0,0,0-1.06.75,41.87,41.87,0,0,0-6,5.91c-.66.92-1.43,1.64-2,2.34a14.79,14.79,0,0,1-1.81,1.66,4.26,4.26,0,0,1-3.91.77A3.44,3.44,0,0,1,42,672.53a8.33,8.33,0,0,1,.24-3.13,17.11,17.11,0,0,1,1.55-4,26.56,26.56,0,0,1,8.4-9,16.16,16.16,0,0,1,1.61-1c.56-.32,1.12-.65,1.71-1l1.87-.83,1-.41,1-.33c.68-.22,1.37-.46,2.08-.66l2.2-.48a21.22,21.22,0,0,1,2.3-.34,20.49,20.49,0,0,1,2.38-.18l2.45,0,2.51.23.64.06.63.12,1.27.25,1.29.26,1.27.38a38,38,0,0,1,5,1.91,11.72,11.72,0,0,1,1.23.61l1.23.67,1.23.68c.41.23.79.52,1.19.78a36.62,36.62,0,0,1,8.76,8,38.42,38.42,0,0,1,6.24,11,37,37,0,0,1,.92,22.39c-.07.3-.14.61-.22.92h0a39.65,39.65,0,0,1-2.4,6.84h0a44.83,44.83,0,0,1-19.28,20.9,26.28,26.28,0,0,1,3.06-1c1.17-.24,2-.18,2.41.3s.48,1.41,0,2.8c-.84,2.49-2.9,4.23-6.06,5.44a26.67,26.67,0,0,1-5.58,1.36A46.53,46.53,0,0,1,68.89,736.47Z" style="fill:#ed6d86"/><path d="M95,573.2a38.4,38.4,0,0,1-2.94,14A38,38,0,0,1,90.12,591,37.36,37.36,0,0,1,88,594.37c-.76,1-1.54,2-2.31,2.85a34,34,0,0,1-8.88,7.21,18.87,18.87,0,0,1-3.6,1.59,8.78,8.78,0,0,1-2.88.48,3.66,3.66,0,0,1-3.48-2,4,4,0,0,1,.15-4,12.8,12.8,0,0,1,1.61-2.09c.68-.73,1.55-1.46,2.48-2.31,1.93-1.63,4.34-3.54,6.9-6.06.61-.64,1.26-1.31,1.9-2s1.28-1.48,1.86-2.33,1.17-1.72,1.77-2.66A32.57,32.57,0,0,0,85,579.9a38.1,38.1,0,0,0,2.85-16.52,95.71,95.71,0,0,0-3.62-21.81c-1.67-6.25-3.82-12.86-6.25-19.82-1.64-4.19-3.3-8.39-4.93-12.59-1.87-4.78-3.69-9.58-5.42-14.41-2.79-6.95-5.28-13.57-7.42-19.87-5.36-15.73-8.25-29.63-9.12-41a95,95,0,0,1-.12-15c0-1.08.18-2.1.3-3.09s.23-1.92.39-2.8c.11-.61.23-1.19.35-1.76a7,7,0,0,0,1.42.64,7.63,7.63,0,0,0,3.88.87h.45a10.08,10.08,0,0,0,4.81-1.22c-.1.95-.21,2-.38,3.06-.1.81-.21,1.67-.33,2.56s-.28,1.83-.38,2.82c-.55,3.91-1.06,8.5-1.37,13.82A147.72,147.72,0,0,0,63.5,474c1.38,6.38,3.2,13.15,5.44,20.23,1.73,4.84,3.55,9.65,5.42,14.44q2.37,6.09,4.78,12.18c3,6.92,5.88,13.43,8.33,19.68a114.77,114.77,0,0,1,6.72,22.23A52.9,52.9,0,0,1,95,573.2Z" style="fill:#ed6d86"/><polygon points="18.61 546.02 18.61 546.02 18.61 546.02 18.61 546.02" style="fill:#ed6d86"/><g id="ec7e98fc-a769-450a-9b09-b9fcd22002cd" data-name="bonbon ornement"><g id="b9f24730-039a-41cf-9e1c-efb1cdf0d9f7" data-name="sucette"><image width="60" height="107" transform="translate(57.45 668.82) scale(0.24)" xlink:href="montant3.png"/><image width="47" height="31" transform="translate(73.77 687.54) scale(0.24)" xlink:href="montant4.png"/><image width="48" height="25" transform="translate(76.65 690.66) scale(0.24)" xlink:href="montant5.png"/><image width="46" height="25" transform="translate(78.81 694.74) scale(0.24)" xlink:href="montant6.png"/><image width="40" height="32" transform="translate(80.49 698.34) scale(0.24)" xlink:href="montant7.png"/><image width="34" height="42" transform="translate(81.21 701.22) scale(0.24)" xlink:href="montant8.png"/><image width="29" height="46" transform="translate(80.25 704.34) scale(0.24)" xlink:href="montant9.png"/><image width="28" height="48" transform="translate(76.41 705.54) scale(0.24)" xlink:href="montant10.png"/><image width="37" height="38" transform="translate(70.89 707.94) scale(0.24)" xlink:href="montant11.png"/><image width="46" height="37" transform="translate(66.09 708.18) scale(0.24)" xlink:href="montant12.png"/><image width="48" height="29" transform="translate(62.49 707.46) scale(0.24)" xlink:href="montant13.png"/><image width="48" height="25" transform="translate(59.61 704.82) scale(0.24)" xlink:href="montant14.png"/><image width="41" height="31" transform="translate(59.13 699.06) scale(0.24)" xlink:href="montant15.png"/><image width="35" height="41" transform="translate(59.61 693.78) scale(0.24)" xlink:href="montant16.png"/><image width="30" height="47" transform="translate(61.53 689.46) scale(0.24)" xlink:href="montant17.png"/><image width="27" height="46" transform="translate(65.37 687.06) scale(0.24)" xlink:href="montant18.png"/><image width="34" height="39" transform="translate(69.45 687.06) scale(0.24)" xlink:href="montant19.png"/><image width="44" height="52" transform="translate(76.41 689.7) scale(0.24)" xlink:href="montant20.png" style="mix-blend-mode:multiply"/><image width="44" height="33" transform="translate(72.09 688.02) scale(0.24)" xlink:href="montant21.png"/><image width="46" height="28" transform="translate(74.49 691.62) scale(0.24)" xlink:href="montant22.png"/><image width="49" height="47" transform="translate(74.01 699.06) scale(0.24)" xlink:href="montant23.png" style="mix-blend-mode:multiply"/><image width="52" height="44" transform="translate(67.05 700.98) scale(0.24)" xlink:href="montant24.png" style="mix-blend-mode:multiply"/><image width="37" height="38" transform="translate(76.17 695.94) scale(0.24)" xlink:href="montant25.png"/><image width="45" height="50" transform="translate(64.17 696.9) scale(0.24)" xlink:href="montant26.png" style="mix-blend-mode:multiply"/><image width="28" height="46" transform="translate(76.65 698.34) scale(0.24)" xlink:href="montant27.png"/><image width="37" height="44" transform="translate(70.17 699.06) scale(0.24)" xlink:href="montant28.png"/><image width="44" height="39" transform="translate(66.33 699.06) scale(0.24)" xlink:href="montant29.png"/><image width="45" height="53" transform="translate(72.09 692.1) scale(0.24)" xlink:href="montant30.png" style="mix-blend-mode:multiply"/><image width="52" height="44" transform="translate(66.33 690.18) scale(0.24)" xlink:href="montant31.png" style="mix-blend-mode:multiply"/><image width="47" height="32" transform="translate(65.61 696.66) scale(0.24)" xlink:href="montant32.png"/><image width="42" height="32" transform="translate(66.81 692.58) scale(0.24)" xlink:href="montant33.png"/><image width="43" height="43" transform="translate(71.13 692.58) scale(0.24)" xlink:href="montant34.png"/><image width="45" height="50" transform="translate(67.77 695.7) scale(0.24)" xlink:href="montant35.png" style="mix-blend-mode:multiply"/><image width="40" height="45" transform="translate(71.37 695.7) scale(0.24)" xlink:href="montant36.png"/><image width="16" height="9" transform="translate(73.05 699.06) scale(0.24)" xlink:href="montant37.png"/><image width="28" height="26" transform="translate(70.17 698.1) scale(0.24)" xlink:href="montant38.png"/><image width="33" height="31" transform="translate(68.97 698.1) scale(0.24)" xlink:href="montant39.png"/></g><g id="fac0ee3a-2d51-42c4-b472-e182e23a78f8" data-name="canne"><g style="clip-path:url(#a6472a23-ea45-442b-a037-333e373e662a)"><image width="20" height="62" transform="translate(59.37 663.3) scale(0.24)" xlink:href="montant40.png"/><image width="21" height="62" transform="translate(56.73 669.54) scale(0.24)" xlink:href="montant41.png"/><image width="21" height="62" transform="translate(54.09 675.78) scale(0.24)" xlink:href="montant42.png"/><image width="20" height="62" transform="translate(51.69 682.02) scale(0.24)" xlink:href="montant43.png"/><image width="20" height="62" transform="translate(49.05 688.26) scale(0.24)" xlink:href="montant44.png"/><image width="20" height="61" transform="translate(46.41 694.74) scale(0.24)" xlink:href="montant45.png"/><image width="21" height="61" transform="translate(43.77 700.98) scale(0.24)" xlink:href="montant46.png"/><image width="20" height="62" transform="translate(38.73 713.46) scale(0.24)" xlink:href="montant47.png"/><image width="20" height="61" transform="translate(41.37 707.22) scale(0.24)" xlink:href="montant48.png"/></g></g><g id="b7a50c27-818a-429a-baa9-3bfe6c7eb2ac" data-name="bonbon ornement"><g id="e7049def-2873-4c6b-8480-6bbbf72458f5" data-name="sucette"><image width="61" height="108" transform="translate(61.29 56.34) scale(0.24)" xlink:href="montant49.png"/><image width="47" height="31" transform="translate(77.61 55.86) scale(0.24)" xlink:href="montant50.png"/><image width="48" height="25" transform="translate(80.49 54.18) scale(0.24)" xlink:href="montant51.png"/><image width="46" height="25" transform="translate(82.89 50.1) scale(0.24)" xlink:href="montant52.png"/><image width="40" height="32" transform="translate(84.33 44.82) scale(0.24)" xlink:href="montant53.png"/><image width="34" height="42" transform="translate(85.05 39.54) scale(0.24)" xlink:href="montant54.png"/><image width="29" height="46" transform="translate(84.09 35.46) scale(0.24)" xlink:href="montant55.png"/><image width="27" height="48" transform="translate(80.49 33.78) scale(0.24)" xlink:href="montant56.png"/><image width="38" height="38" transform="translate(74.73 33.78) scale(0.24)" xlink:href="montant57.png"/><image width="46" height="36" transform="translate(70.17 34.02) scale(0.24)" xlink:href="montant58.png"/><image width="48" height="29" transform="translate(66.33 36.42) scale(0.24)" xlink:href="montant59.png"/><image width="48" height="25" transform="translate(63.69 40.02) scale(0.24)" xlink:href="montant60.png"/><image width="42" height="31" transform="translate(62.97 44.34) scale(0.24)" xlink:href="montant61.png"/><image width="35" height="41" transform="translate(63.69 47.22) scale(0.24)" xlink:href="montant62.png"/><image width="30" height="47" transform="translate(65.61 50.1) scale(0.24)" xlink:href="montant63.png"/><image width="28" height="46" transform="translate(69.21 52.74) scale(0.24)" xlink:href="montant64.png"/><image width="34" height="39" transform="translate(73.53 54.42) scale(0.24)" xlink:href="montant65.png"/><image width="44" height="52" transform="translate(80.49 48.66) scale(0.24)" xlink:href="montant66.png" style="mix-blend-mode:multiply"/><image width="44" height="32" transform="translate(76.17 55.14) scale(0.24)" xlink:href="montant67.png"/><image width="45" height="29" transform="translate(78.57 52.5) scale(0.24)" xlink:href="montant68.png"/><image width="49" height="47" transform="translate(78.09 40.5) scale(0.24)" xlink:href="montant69.png" style="mix-blend-mode:multiply"/><image width="52" height="43" transform="translate(71.13 39.54) scale(0.24)" xlink:href="montant70.png" style="mix-blend-mode:multiply"/><image width="37" height="39" transform="translate(80.25 45.78) scale(0.24)" xlink:href="montant71.png"/><image width="45" height="50" transform="translate(68.25 41.94) scale(0.24)" xlink:href="montant72.png" style="mix-blend-mode:multiply"/><image width="28" height="46" transform="translate(80.73 41.46) scale(0.24)" xlink:href="montant73.png"/><image width="37" height="44" transform="translate(74.25 41.22) scale(0.24)" xlink:href="montant74.png"/><image width="45" height="39" transform="translate(70.17 42.42) scale(0.24)" xlink:href="montant75.png"/><image width="45" height="53" transform="translate(76.17 46.02) scale(0.24)" xlink:href="montant76.png" style="mix-blend-mode:multiply"/><image width="52" height="44" transform="translate(70.41 50.1) scale(0.24)" xlink:href="montant77.png" style="mix-blend-mode:multiply"/><image width="46" height="32" transform="translate(69.69 46.5) scale(0.24)" xlink:href="montant78.png"/><image width="42" height="32" transform="translate(70.65 50.58) scale(0.24)" xlink:href="montant79.png"/><image width="42" height="44" transform="translate(75.21 47.94) scale(0.24)" xlink:href="montant80.png"/><image width="45" height="51" transform="translate(71.61 43.14) scale(0.24)" xlink:href="montant81.png" style="mix-blend-mode:multiply"/><image width="40" height="46" transform="translate(75.21 44.34) scale(0.24)" xlink:href="montant82.png"/><image width="16" height="10" transform="translate(77.13 49.62) scale(0.24)" xlink:href="montant83.png"/><image width="28" height="26" transform="translate(74.01 46.5) scale(0.24)" xlink:href="montant84.png"/><image width="34" height="30" transform="translate(72.81 45.54) scale(0.24)" xlink:href="montant85.png"/></g><g id="f62de217-adba-43bc-9236-6e2e50483753" data-name="canne"><g style="clip-path:url(#b965dae0-49bc-4c7a-a032-45aab28d6b73)"><image width="20" height="61" transform="translate(63.45 72.9) scale(0.24)" xlink:href="montant86.png"/><image width="20" height="62" transform="translate(60.81 66.42) scale(0.24)" xlink:href="montant87.png"/><image width="20" height="62" transform="translate(58.17 60.18) scale(0.24)" xlink:href="montant88.png"/><image width="21" height="62" transform="translate(55.53 53.94) scale(0.24)" xlink:href="montant89.png"/><image width="20" height="62" transform="translate(53.13 47.7) scale(0.24)" xlink:href="montant90.png"/><image width="20" height="62" transform="translate(50.49 41.46) scale(0.24)" xlink:href="montant91.png"/><image width="20" height="62" transform="translate(47.85 35.22) scale(0.24)" xlink:href="montant92.png"/><image width="20" height="61" transform="translate(42.57 22.74) scale(0.24)" xlink:href="montant93.png"/><image width="19" height="61" transform="translate(45.45 28.98) scale(0.24)" xlink:href="montant94.png"/></g></g></g></g><g id="ffbe259b-5090-471e-a8e2-a482d8058a1a" data-name="calisson"><path d="M14.58,373.11A42.42,42.42,0,1,1,57,415.53,42.42,42.42,0,0,1,14.58,373.11Z" style="fill:#fff"/><path d="M77.07,384.31C74.3,376,65,370.43,57,373.11h0a16,16,0,0,1,3.1,1.42c4.94,3.3,6.79,7.93,7.72,12.55,0,12.81-10.24,21.67-21.32,27.14A42.72,42.72,0,0,0,57,415.53a42.26,42.26,0,0,0,13.33-2.15C76.4,405,80.67,394.2,77.07,384.31Z" style="fill:#7fcbe1"/><polygon points="56.99 373.11 56.99 373.11 56.99 373.11 56.99 373.11" style="fill:#f08588"/><path d="M75.22,358.39C66,357.47,58.56,364,57,373.11h0a23.69,23.69,0,0,1,2.57-2.36c8.26-5.88,18.44-2.18,24,5.23,5.55,8.33,4.63,16.66,4.52,25.72L88,402a42.2,42.2,0,0,0,11.11-24L99,377.8C94.66,368.57,86.33,360.25,75.22,358.39Z" style="fill:#7fcbe1"/><path d="M50.23,355.62c-.92,6.48,1.85,12.95,6.76,17.49,0,0-.41-1.29-.93-3.47C53.93,362.1,59.49,354.69,66,351c9.79-4.45,21.28-1.19,29.65,4.59a42.59,42.59,0,0,0-17.71-19.37C65.86,336.48,53.56,342.31,50.23,355.62Z" style="fill:#7fcbe1"/><path d="M36.35,366.72c4.63,6.48,13,8.33,20.64,6.39A26.75,26.75,0,0,1,53.46,372c-5.08-2.52-8.78-6.22-10.63-11.77-2.37-12.61,4.67-23.21,15-29.54l-.79,0a42.3,42.3,0,0,0-21.84,6.05C30.71,346.45,29.74,357.17,36.35,366.72Z" style="fill:#7fcbe1"/><path d="M41.9,385.23c6.48-.92,13-4.62,15.09-12.12a19.61,19.61,0,0,1-3.05,2.27c-3.71,3.37-8.33,3.37-13,2.45C27.37,374.05,23,361.62,22.12,349a42.05,42.05,0,0,0-7.36,20.32C20.88,378.65,30.24,386,41.9,385.23Z" style="fill:#7fcbe1"/><path d="M57.64,394.49c4.62-6.48,4.62-15.73-.64-21.38h0a16.27,16.27,0,0,1,.13,3.64c.52,7.56-6,12.19-11.51,15-9.68,3.72-20,.26-28.77-4.94A42.33,42.33,0,0,0,29,404.92C39.44,405.35,50.55,403.94,57.64,394.49Z" style="fill:#7fcbe1"/><rect x="56.99" y="373.11" style="fill:#7fcbe1"/><rect x="56.99" y="373.11" style="fill:#f08588"/><rect x="56.99" y="373.11" style="fill:#f08588"/><path d="M14.58,373.11A42.42,42.42,0,1,1,57,415.53,42.42,42.42,0,0,1,14.58,373.11Z" style="mix-blend-mode:multiply;fill:url(#baa4b24d-a872-4066-a2eb-4ecc037a2c87)"/><path d="M14.58,373.11A42.42,42.42,0,1,1,57,415.53,42.42,42.42,0,0,1,14.58,373.11Z" style="mix-blend-mode:multiply;fill:url(#a5fc7969-0956-408f-840a-018d381f27ae)"/><g style="opacity:0.8;mix-blend-mode:screen"><image width="300" height="132" transform="translate(20.97 378.9) scale(0.24)" xlink:href="montant95.png"/></g><g style="opacity:0.8;mix-blend-mode:screen"><image width="133" height="299" transform="translate(62.73 337.14) scale(0.24)" xlink:href="montant96.png"/></g></g><line x1="36.75" y1="505.42" x2="39.86" y2="506.31" style="fill:#d2c6ca"/><line x1="36.75" y1="505.42" x2="39.86" y2="506.31" style="opacity:0.46;fill:url(#aa3c3b6a-845a-4abb-b23c-8a905cd29a96)"/><ellipse cx="37.23" cy="509.84" rx="12.45" ry="12.07" style="fill:#fabc5e"/><path d="M38.62,498.84a12.26,12.26,0,0,0-12.44,12.07,11.9,11.9,0,0,0,4,8.91,12,12,0,0,1-5.43-10,12.26,12.26,0,0,1,12.44-12.07,12.63,12.63,0,0,1,8.41,3.17A12.7,12.7,0,0,0,38.62,498.84Z" style="fill:#f3925f;opacity:0.61"/><circle cx="38.16" cy="511.01" r="10.65" transform="translate(-262.95 96.38) rotate(-31.72)" style="fill:#fefbe2"/><polygon points="37.93 512.27 37.93 512.27 37.93 512.27 37.93 512.27" style="fill:#e78290"/><polygon points="37.93 512.27 37.93 512.27 37.93 512.27 37.93 512.27" style="fill:#e78290"/><path d="M44.6,504.4a10.09,10.09,0,0,1,3.07,6.38l-8.86.11Z" style="fill:#aecd85"/><path d="M32.24,504.1a8.5,8.5,0,0,1,5.82-2.44h.09l.08,8.87Z" style="fill:#aecd85"/><path d="M38.57,510.57h0l-.08-8.88a8.53,8.53,0,0,1,5.87,2.39Z" style="fill:#aecd85"/><path d="M28.94,510.88a10.17,10.17,0,0,1,3-6.54l6,6.44Z" style="fill:#aecd85"/><polygon points="37.87 509.89 37.87 509.89 37.87 509.89 37.87 509.89" style="fill:#e78290"/><polygon points="37.87 509.89 37.87 509.89 37.87 509.89 37.87 509.89" style="fill:#e78290"/><path d="M44.69,517.6a10.17,10.17,0,0,0,3-6.46l-8.87.11Z" style="fill:#aecd85"/><path d="M32.34,518.19a8.48,8.48,0,0,0,5.87,2.3h.09l-.09-8.87Z" style="fill:#aecd85"/><path d="M38.55,511.58h0l.09,8.87a8.55,8.55,0,0,0,5.83-2.53Z" style="fill:#aecd85"/><path d="M28.94,511.37a10.15,10.15,0,0,0,3.17,6.47L38,511.26Z" style="fill:#aecd85"/><path d="M40.39,510.78a1.83,1.83,0,1,0-1.82,1.71A1.77,1.77,0,0,0,40.39,510.78Z" style="fill:#fefbe2"/><ellipse cx="85.72" cy="627.97" rx="12.45" ry="12.07" style="fill:#aecd85"/><path d="M87.11,617A12.27,12.27,0,0,0,74.66,629a11.86,11.86,0,0,0,4,8.9,12,12,0,0,1-5.44-10,12.27,12.27,0,0,1,12.45-12.08,12.68,12.68,0,0,1,8.41,3.17A12.72,12.72,0,0,0,87.11,617Z" style="fill:#78b884"/><circle cx="86.65" cy="629.13" r="10.65" transform="translate(-234.16 81.05) rotate(-22.5)" style="fill:#fefbe2"/><polygon points="86.42 630.39 86.42 630.39 86.42 630.39 86.42 630.39" style="fill:#e78290"/><polygon points="86.42 630.39 86.42 630.39 86.42 630.39 86.42 630.39" style="fill:#e78290"/><path d="M93.08,622.52a10.2,10.2,0,0,1,3.08,6.38l-8.87.11Z" style="fill:#e78290"/><path d="M80.72,622.23a8.54,8.54,0,0,1,5.83-2.45h.08l.09,8.87Z" style="fill:#e78290"/><path d="M87.06,628.69h0L87,619.82a8.52,8.52,0,0,1,5.88,2.38Z" style="fill:#e78290"/><path d="M77.43,629a10.21,10.21,0,0,1,3-6.54l6,6.43Z" style="fill:#e78290"/><polygon points="86.36 628.01 86.36 628.01 86.36 628.01 86.36 628.01" style="fill:#e78290"/><polygon points="86.36 628.01 86.36 628.01 86.36 628.01 86.36 628.01" style="fill:#e78290"/><path d="M93.18,635.72a10.2,10.2,0,0,0,2.95-6.45l-8.87.11Z" style="fill:#e78290"/><path d="M80.83,636.32a8.57,8.57,0,0,0,5.87,2.3h.09l-.09-8.87Z" style="fill:#e78290"/><path d="M87,629.7h0l.08,8.87A8.52,8.52,0,0,0,93,636.05Z" style="fill:#e78290"/><path d="M77.43,629.5A10.13,10.13,0,0,0,80.6,636l5.87-6.57Z" style="fill:#e78290"/><path d="M88.88,628.91a1.83,1.83,0,1,0-1.83,1.7A1.78,1.78,0,0,0,88.88,628.91Z" style="fill:#fefbe2"/><line x1="36.75" y1="240.99" x2="39.86" y2="240.1" style="fill:#d2c6ca"/><line x1="36.75" y1="240.99" x2="39.86" y2="240.1" style="opacity:0.46;fill:url(#fe6e605a-0d3d-4f13-94b6-a520febd0c5e)"/><ellipse cx="37.23" cy="236.56" rx="12.45" ry="12.07" style="fill:#fabc5e"/><path d="M38.62,247.57a12.27,12.27,0,0,1-12.44-12.08,11.9,11.9,0,0,1,4-8.9,12,12,0,0,0-5.43,10,12.27,12.27,0,0,0,12.44,12.08,12.63,12.63,0,0,0,8.41-3.17A12.7,12.7,0,0,1,38.62,247.57Z" style="fill:#f3925f;opacity:0.61"/><circle cx="38.16" cy="235.4" r="10.65" transform="translate(-182.14 144.1) rotate(-58.28)" style="fill:#fefbe2"/><polygon points="37.93 234.14 37.93 234.14 37.93 234.14 37.93 234.14" style="fill:#e78290"/><polygon points="37.93 234.14 37.93 234.14 37.93 234.14 37.93 234.14" style="fill:#e78290"/><path d="M44.6,242a10.09,10.09,0,0,0,3.07-6.38l-8.86-.11Z" style="fill:#aecd85"/><path d="M32.24,242.31a8.55,8.55,0,0,0,5.82,2.44h.09l.08-8.88Z" style="fill:#aecd85"/><path d="M38.57,235.84h0l-.08,8.87a8.47,8.47,0,0,0,5.87-2.38Z" style="fill:#aecd85"/><path d="M28.94,235.52a10.15,10.15,0,0,0,3,6.54l6-6.43Z" style="fill:#aecd85"/><polygon points="37.87 236.52 37.87 236.52 37.87 236.52 37.87 236.52" style="fill:#e78290"/><polygon points="37.87 236.52 37.87 236.52 37.87 236.52 37.87 236.52" style="fill:#e78290"/><path d="M44.69,228.81a10.15,10.15,0,0,1,3,6.45l-8.87-.1Z" style="fill:#aecd85"/><path d="M32.34,228.22a8.53,8.53,0,0,1,5.87-2.31h.09l-.09,8.87Z" style="fill:#aecd85"/><path d="M38.55,234.83h0l.09-8.87a8.55,8.55,0,0,1,5.83,2.53Z" style="fill:#aecd85"/><path d="M28.94,235a10.13,10.13,0,0,1,3.17-6.47L38,235.15Z" style="fill:#aecd85"/><path d="M40.39,235.62a1.83,1.83,0,1,1-1.82-1.7A1.77,1.77,0,0,1,40.39,235.62Z" style="fill:#fefbe2"/><ellipse cx="85.72" cy="116.44" rx="12.45" ry="12.07" style="fill:#aecd85"/><path d="M87.11,127.44a12.27,12.27,0,0,1-12.45-12.07,11.88,11.88,0,0,1,4-8.91,12,12,0,0,0-5.44,10,12.27,12.27,0,0,0,12.45,12.07,12.63,12.63,0,0,0,8.41-3.17A12.64,12.64,0,0,1,87.11,127.44Z" style="fill:#78b884"/><circle cx="86.65" cy="115.27" r="10.65" transform="translate(-53.01 151.21) rotate(-67.5)" style="fill:#fefbe2"/><polygon points="86.42 114.02 86.42 114.02 86.42 114.01 86.42 114.02" style="fill:#e78290"/><polygon points="86.42 114.01 86.42 114.02 86.42 114.01 86.42 114.01" style="fill:#e78290"/><path d="M93.08,121.88a10.15,10.15,0,0,0,3.08-6.38l-8.87-.1Z" style="fill:#e78290"/><path d="M80.72,122.18a8.48,8.48,0,0,0,5.83,2.44h.08l.09-8.87Z" style="fill:#e78290"/><path d="M87.06,115.72h0L87,124.59a8.53,8.53,0,0,0,5.88-2.39Z" style="fill:#e78290"/><path d="M77.43,115.4a10.21,10.21,0,0,0,3,6.54l6-6.43Z" style="fill:#e78290"/><polygon points="86.36 116.39 86.36 116.39 86.36 116.39 86.36 116.39" style="fill:#e78290"/><polygon points="86.36 116.39 86.36 116.39 86.36 116.39 86.36 116.39" style="fill:#e78290"/><path d="M93.18,108.69a10.2,10.2,0,0,1,2.95,6.45L87.26,115Z" style="fill:#e78290"/><path d="M80.83,108.09a8.48,8.48,0,0,1,5.87-2.3h.09l-.09,8.88Z" style="fill:#e78290"/><path d="M87,114.71h0l.08-8.88A8.53,8.53,0,0,1,93,108.36Z" style="fill:#e78290"/><path d="M77.43,114.91a10.11,10.11,0,0,1,3.17-6.46L86.47,115Z" style="fill:#e78290"/><path d="M88.88,115.5a1.83,1.83,0,1,1-1.83-1.71A1.77,1.77,0,0,1,88.88,115.5Z" style="fill:#fefbe2"/><path d="M6.15,592.69a6.61,6.61,0,0,0,8.68-4.33l.64-2.22L17.53,579l3.28-11.37a2,2,0,0,0-1.34-2.44h0A2,2,0,0,0,17,566.57l-5.33,18.48a1.78,1.78,0,0,0-.08.45l-.36,1.25a2.92,2.92,0,0,1-3.95,1.87,3,3,0,0,1-1.63-3.56l.52-1.8a1.73,1.73,0,1,0-3.33-1l-.66,2.27A6.68,6.68,0,0,0,6.15,592.69Z" style="fill:#e8cce4"/><path d="M20.81,567.66A2,2,0,1,0,17,566.57l-.2.71c.94,1.62,2,3.39,2.73,4.75Z" style="fill:#b53b60"/><polygon points="17.53 579.03 18.41 575.99 15.7 571.16 14.13 576.58 17.35 579.63 17.53 579.03" style="fill:#b53b60"/><path d="M14.83,588.36l.64-2.22.44-1.52c-.68-1-1.87-2.78-2.87-4.25l-1.2,4.12,2.94,4A1,1,0,0,0,14.83,588.36Z" style="fill:#b53b60"/><path d="M13.33,591c-.79-1-1.77-2.29-2.57-3.3a3,3,0,0,1-1.51,1l1,4.15A6.76,6.76,0,0,0,13.33,591Z" style="fill:#b53b60"/><path d="M6.15,592.69l.2.07.71-4.26a2.77,2.77,0,0,1-1.17-1.2l-2.46,3.42A6.39,6.39,0,0,0,6.15,592.69Z" style="fill:#b53b60"/><path d="M2.17,588.25l3.38-2.42a3,3,0,0,1,.12-.77L6,584l-3.82.74A6.85,6.85,0,0,0,2.17,588.25Z" style="fill:#b53b60"/><path d="M5,581.11a1.73,1.73,0,0,0-2.14,1.19l-.2.7,3.59-.1A1.73,1.73,0,0,0,5,581.11Z" style="fill:#b53b60"/><g style="opacity:0.64"><path d="M18.91,569.59l-2.84,9.86-1.78,6.16-.56,1.92a5.73,5.73,0,0,1-7.52,3.76,5.57,5.57,0,0,1-2.9-2.51,5.63,5.63,0,0,0,3.29,3.36,5.73,5.73,0,0,0,7.52-3.75l.56-1.93,1.78-6.16,2.85-9.85a1.73,1.73,0,0,0-.35-1.59A1.65,1.65,0,0,1,18.91,569.59Z" style="fill:#fff"/></g><path d="M15.09,576.8s-4.78,1.15-6.54-.59,1.91-3.13,1.91-3.13-1.56-4.29,1.91-2.89,4.6,4.9,4.11,5.84A1.36,1.36,0,0,1,15.09,576.8Z" style="fill:#9acfdc"/><path d="M16.14,575.34l-3-2.31a9.24,9.24,0,0,0,1.5,1.79,28.26,28.26,0,0,1-3.37-.15s2.39,1.35,3.44,1.2S16.52,576.09,16.14,575.34Z" style="fill:#84b2bd"/><path d="M17.6,577.45s3.17,3.76,5.62,3.4.31-3.66.31-3.66,3.8-2.53.17-3.46S17.09,575,16.94,576A1.34,1.34,0,0,0,17.6,577.45Z" style="fill:#9acfdc"/><path d="M17.61,575.65l3.78-.09a9.48,9.48,0,0,1-2.27.56,28.14,28.14,0,0,0,2.8,1.87s-2.72-.33-3.48-1.07S16.86,576,17.61,575.65Z" style="fill:#84b2bd"/><path d="M14.65,575.18a2.16,2.16,0,1,1,1.49,2.67A2.17,2.17,0,0,1,14.65,575.18Z" style="fill:#9acfdc"/><path d="M23.63,442.29s5.9-1.15,6.86-2.75-4.36-.77-4.36-.77,2.18-3.34.9-3.72-3,2.95-3,2.95-.39-3.46-2.37-3.27.57,6.86.57,6.86Z" style="fill:#fabc5e"/><path d="M23.28,442.13l2.37-1.5a.11.11,0,0,0,0-.22l-1.42,0a.11.11,0,0,1-.08-.19l.67-.79a.12.12,0,0,0-.15-.18l-1.07.54a.11.11,0,0,1-.17-.06L23,438.48a.13.13,0,0,0-.22,0l-1.39,1.67a.12.12,0,0,0,0,.16l1.69,1.84A.13.13,0,0,0,23.28,442.13Z" style="fill:#f3925f;opacity:0.61"/><path d="M14.67,451.25s-1.15,5.89-2.75,6.85-.77-4.35-.77-4.35-3.33,2.17-3.72.89,3-2.94,3-2.94-3.46-.39-3.27-2.38,6.86.58,6.86.58Z" style="fill:#fabc5e"/><path d="M14.51,450.9,13,453.27a.12.12,0,0,1-.23,0l0-1.43a.12.12,0,0,0-.2-.07l-.78.66a.11.11,0,0,1-.18-.14l.53-1.07a.11.11,0,0,0-.06-.17l-1.21-.35a.13.13,0,0,1,0-.22l1.66-1.39a.12.12,0,0,1,.16,0l1.84,1.69A.12.12,0,0,1,14.51,450.9Z" style="fill:#f3925f;opacity:0.61"/><path d="M13.1,450.88c-2.08-2.07-1.49-6,1.32-8.85s6.77-3.4,8.85-1.32,1.49,6.05-1.32,8.85S15.18,453,13.1,450.88Z" style="fill:#e78290"/><path d="M23.71,447.13a96.84,96.84,0,0,1-10-4.36,9.51,9.51,0,0,0-.88,1.29A65.9,65.9,0,0,0,23,448.37,8.9,8.9,0,0,0,23.71,447.13Z" style="fill:#fabc5e"/><path d="M21.71,449.79a99.24,99.24,0,0,1-9.52-4.17,6.77,6.77,0,0,0-.33,1.73,67.43,67.43,0,0,0,8.4,3.56A9.39,9.39,0,0,0,21.71,449.79Z" style="fill:#fabc5e"/><path d="M24.51,444.06c-2.42-.89-5.78-2.46-8.08-3.56a9.14,9.14,0,0,0-1.44,1,65.34,65.34,0,0,0,9.33,4A6.45,6.45,0,0,0,24.51,444.06Z" style="fill:#fabc5e"/><path d="M23.27,440.71a5,5,0,0,0-4.83-1c1.8.86,3.95,1.71,5.71,2.36A4.17,4.17,0,0,0,23.27,440.71Z" style="fill:#fabc5e"/><path d="M13.1,450.88a5,5,0,0,0,4.85,1c-1.89-.77-4.07-1.77-5.83-2.61A4,4,0,0,0,13.1,450.88Z" style="fill:#fabc5e"/><path d="M23.71,447.13a96.84,96.84,0,0,1-10-4.36,9.51,9.51,0,0,0-.88,1.29A65.9,65.9,0,0,0,23,448.37,8.9,8.9,0,0,0,23.71,447.13Z" style="fill:#fabc5e"/><path d="M21.71,449.79a99.24,99.24,0,0,1-9.52-4.17,6.77,6.77,0,0,0-.33,1.73,67.43,67.43,0,0,0,8.4,3.56A9.39,9.39,0,0,0,21.71,449.79Z" style="fill:#fabc5e"/><path d="M24.51,444.06c-2.42-.89-5.78-2.46-8.08-3.56a9.14,9.14,0,0,0-1.44,1,65.34,65.34,0,0,0,9.33,4A6.45,6.45,0,0,0,24.51,444.06Z" style="fill:#fabc5e"/><path d="M23.27,440.71a5,5,0,0,0-4.83-1c1.8.86,3.95,1.71,5.71,2.36A4.17,4.17,0,0,0,23.27,440.71Z" style="fill:#fabc5e"/><path d="M13.1,450.88a5,5,0,0,0,4.85,1c-1.89-.77-4.07-1.77-5.83-2.61A4,4,0,0,0,13.1,450.88Z" style="fill:#fabc5e"/><path d="M19.3,451.43a4.65,4.65,0,0,1-3.89-1.21c-2.08-2.08-1.49-6,1.32-8.85a9.26,9.26,0,0,1,2.65-1.86,8.47,8.47,0,0,0-5,2.52c-2.81,2.81-3.4,6.78-1.32,8.85C14.58,452.36,17,452.49,19.3,451.43Z" style="fill:#f3925f;opacity:0.61"/><path d="M6.15,153.71a6.62,6.62,0,0,1,8.68,4.34l.64,2.22,2.06,7.11,3.28,11.37a2,2,0,0,1-1.34,2.44h0A2,2,0,0,1,17,179.84l-5.33-18.48a1.78,1.78,0,0,1-.08-.45l-.36-1.25a2.93,2.93,0,0,0-3.95-1.88,3,3,0,0,0-1.63,3.57l.52,1.8a1.73,1.73,0,1,1-3.33,1l-.66-2.27A6.69,6.69,0,0,1,6.15,153.71Z" style="fill:#e8cce4"/><path d="M20.81,178.75A2,2,0,1,1,17,179.84l-.2-.71c.94-1.62,2-3.39,2.73-4.75Z" style="fill:#b53b60"/><polygon points="17.53 167.38 18.41 170.42 15.7 175.24 14.13 169.83 17.35 166.78 17.53 167.38" style="fill:#b53b60"/><path d="M14.83,158.05l.64,2.22.44,1.52c-.68,1-1.87,2.77-2.87,4.25l-1.2-4.13,2.94-4A.75.75,0,0,1,14.83,158.05Z" style="fill:#b53b60"/><path d="M13.33,155.4c-.79,1-1.77,2.29-2.57,3.3a2.88,2.88,0,0,0-1.51-1l1-4.15A6.59,6.59,0,0,1,13.33,155.4Z" style="fill:#b53b60"/><path d="M6.15,153.71l.2-.06.71,4.25a2.88,2.88,0,0,0-1.17,1.2l-2.46-3.41A6.49,6.49,0,0,1,6.15,153.71Z" style="fill:#b53b60"/><path d="M2.17,158.16l3.38,2.41a3,3,0,0,0,.12.78L6,162.44l-3.82-.75A6.81,6.81,0,0,1,2.17,158.16Z" style="fill:#b53b60"/><path d="M5,165.3a1.73,1.73,0,0,1-2.14-1.19l-.2-.7,3.59.1A1.73,1.73,0,0,1,5,165.3Z" style="fill:#b53b60"/><g style="opacity:0.64"><path d="M18.91,176.81,16.07,167l-1.78-6.16-.56-1.93a5.74,5.74,0,0,0-7.52-3.75,5.52,5.52,0,0,0-2.9,2.51,5.63,5.63,0,0,1,3.29-3.36A5.72,5.72,0,0,1,14.12,158l.56,1.93,1.78,6.16L19.31,176a1.74,1.74,0,0,1-.35,1.59A1.7,1.7,0,0,0,18.91,176.81Z" style="fill:#fff"/></g><path d="M15.09,169.61s-4.78-1.15-6.54.59,1.91,3.13,1.91,3.13-1.56,4.29,1.91,2.89,4.6-4.9,4.11-5.84A1.36,1.36,0,0,0,15.09,169.61Z" style="fill:#9acfdc"/><path d="M16.14,171.06l-3,2.32a9.24,9.24,0,0,1,1.5-1.79,28.26,28.26,0,0,0-3.37.15s2.39-1.35,3.44-1.2S16.52,170.32,16.14,171.06Z" style="fill:#84b2bd"/><path d="M17.6,169s3.17-3.76,5.62-3.4.31,3.66.31,3.66,3.8,2.53.17,3.45-6.61-1.22-6.76-2.27A1.34,1.34,0,0,1,17.6,169Z" style="fill:#9acfdc"/><path d="M17.61,170.75l3.78.1a9.48,9.48,0,0,0-2.27-.56,28.14,28.14,0,0,1,2.8-1.87s-2.72.33-3.48,1.07S16.86,170.37,17.61,170.75Z" style="fill:#84b2bd"/><path d="M14.65,171.23a2.16,2.16,0,1,0,1.49-2.67A2.16,2.16,0,0,0,14.65,171.23Z" style="fill:#9acfdc"/><path d="M23.63,304.12s5.9,1.15,6.86,2.75-4.36.77-4.36.77,2.18,3.33.9,3.72-3-2.95-3-2.95-.39,3.46-2.37,3.27.57-6.86.57-6.86Z" style="fill:#fabc5e"/><path d="M23.28,304.28l2.37,1.49a.12.12,0,0,1,0,.23l-1.42,0a.12.12,0,0,0-.08.2l.67.78a.12.12,0,0,1-.15.18l-1.07-.53a.11.11,0,0,0-.17.06L23,307.93a.13.13,0,0,1-.22,0l-1.39-1.66a.12.12,0,0,1,0-.16l1.69-1.84A.12.12,0,0,1,23.28,304.28Z" style="fill:#f3925f;opacity:0.61"/><path d="M14.67,295.16s-1.15-5.89-2.75-6.86-.77,4.36-.77,4.36-3.33-2.18-3.72-.9,3,2.95,3,2.95-3.46.39-3.27,2.37,6.86-.57,6.86-.57Z" style="fill:#fabc5e"/><path d="M14.51,295.51,13,293.14a.12.12,0,0,0-.23,0l0,1.42a.12.12,0,0,1-.2.08l-.78-.66a.11.11,0,0,0-.18.14l.53,1.07a.11.11,0,0,1-.06.17l-1.21.35a.13.13,0,0,0,0,.22l1.66,1.39a.12.12,0,0,0,.16,0l1.84-1.69A.12.12,0,0,0,14.51,295.51Z" style="fill:#f3925f;opacity:0.61"/><path d="M13.1,295.52c-2.08,2.08-1.49,6,1.32,8.85s6.77,3.4,8.85,1.32,1.49-6-1.32-8.85S15.18,293.44,13.1,295.52Z" style="fill:#e78290"/><path d="M23.71,299.27a101.39,101.39,0,0,0-10,4.36,8.84,8.84,0,0,1-.88-1.28A65.9,65.9,0,0,1,23,298,9.42,9.42,0,0,1,23.71,299.27Z" style="fill:#fabc5e"/><path d="M21.71,296.62a99.24,99.24,0,0,0-9.52,4.17,6.85,6.85,0,0,1-.33-1.73,66,66,0,0,1,8.4-3.56A8.81,8.81,0,0,1,21.71,296.62Z" style="fill:#fabc5e"/><path d="M24.51,302.35c-2.42.89-5.78,2.45-8.08,3.56a9.14,9.14,0,0,1-1.44-1,65.34,65.34,0,0,1,9.33-4A6.37,6.37,0,0,1,24.51,302.35Z" style="fill:#fabc5e"/><path d="M23.27,305.69a5,5,0,0,1-4.83,1c1.8-.86,3.95-1.71,5.71-2.37A4,4,0,0,1,23.27,305.69Z" style="fill:#fabc5e"/><path d="M13.1,295.52a5,5,0,0,1,4.85-1c-1.89.78-4.07,1.78-5.83,2.62A4,4,0,0,1,13.1,295.52Z" style="fill:#fabc5e"/><path d="M23.71,299.27a101.39,101.39,0,0,0-10,4.36,8.84,8.84,0,0,1-.88-1.28A65.9,65.9,0,0,1,23,298,9.42,9.42,0,0,1,23.71,299.27Z" style="fill:#fabc5e"/><path d="M21.71,296.62a99.24,99.24,0,0,0-9.52,4.17,6.85,6.85,0,0,1-.33-1.73,66,66,0,0,1,8.4-3.56A8.81,8.81,0,0,1,21.71,296.62Z" style="fill:#fabc5e"/><path d="M24.51,302.35c-2.42.89-5.78,2.45-8.08,3.56a9.14,9.14,0,0,1-1.44-1,65.34,65.34,0,0,1,9.33-4A6.37,6.37,0,0,1,24.51,302.35Z" style="fill:#fabc5e"/><path d="M23.27,305.69a5,5,0,0,1-4.83,1c1.8-.86,3.95-1.71,5.71-2.37A4,4,0,0,1,23.27,305.69Z" style="fill:#fabc5e"/><path d="M13.1,295.52a5,5,0,0,1,4.85-1c-1.89.78-4.07,1.78-5.83,2.62A4,4,0,0,1,13.1,295.52Z" style="fill:#fabc5e"/><path d="M19.3,295a4.67,4.67,0,0,0-3.89,1.2c-2.08,2.08-1.49,6.05,1.32,8.85a9.3,9.3,0,0,0,2.65,1.87,8.48,8.48,0,0,1-5-2.53c-2.81-2.81-3.4-6.77-1.32-8.85C14.58,294,17,293.92,19.3,295Z" style="fill:#f3925f;opacity:0.61"/></g></g></svg>