<svg xmlns="http://www.w3.org/2000/svg" xmlns:xlink="http://www.w3.org/1999/xlink" width="262.61mm" height="37.21mm" viewBox="0 0 744.41 105.49"><defs><radialGradient id="a66b2731-54df-4e09-a8ef-470250a53b52" cx="381.38" cy="64.99" r="42.42" gradientTransform="matrix(0, -1, -1, 0, 438.1, 438.37)" gradientUnits="userSpaceOnUse"><stop offset="0.54" stop-color="#fff"/><stop offset="0.81" stop-color="#fff"/><stop offset="0.86" stop-color="#f6fbfe"/><stop offset="0.93" stop-color="#def1fd"/><stop offset="1" stop-color="#c0e5fb"/></radialGradient><radialGradient id="b6e0adea-192b-499f-894e-567aea95ab78" cx="353.45" cy="36.7" r="81.25" gradientTransform="matrix(0, -1, -1, 0, 438.1, 438.37)" gradientUnits="userSpaceOnUse"><stop offset="0.01" stop-color="#fff"/><stop offset="0.34" stop-color="#fff"/><stop offset="0.44" stop-color="#f6fbfd"/><stop offset="0.62" stop-color="#def1f8"/><stop offset="0.84" stop-color="#b6e1ef"/><stop offset="1" stop-color="#94d3e8"/></radialGradient><linearGradient id="adfb9771-02a9-474a-96d1-1d8622eb5d4b" x1="3390.55" y1="-0.47" x2="3390.51" y2="-0.68" gradientTransform="translate(387.34 -3350.18) rotate(88.04)" gradientUnits="userSpaceOnUse"><stop offset="0" stop-color="#73122e" stop-opacity="0"/><stop offset="0.31" stop-color="#73122e" stop-opacity="0.02"/><stop offset="0.48" stop-color="#731230" stop-opacity="0.09"/><stop offset="0.62" stop-color="#731232" stop-opacity="0.21"/><stop offset="0.75" stop-color="#731235" stop-opacity="0.39"/><stop offset="0.86" stop-color="#731139" stop-opacity="0.61"/><stop offset="0.96" stop-color="#73113e" stop-opacity="0.88"/><stop offset="1" stop-color="#731140"/></linearGradient><linearGradient id="b660a0b1-c9ee-4660-9bb2-dc3142d40143" x1="3390.49" y1="1.34" x2="3390.45" y2="1.13" gradientTransform="matrix(-0.03, 1, 1, 0.03, 353.25, -3350.18)" xlink:href="#adfb9771-02a9-474a-96d1-1d8622eb5d4b"/><clipPath id="ff9572c0-c5fe-49da-984f-7f03bf79cd5a"><path d="M26.93,39.5l-2.12-.44s-.55.34-1.25,2A5.49,5.49,0,0,0,23,43.54s.91,2.21.9,2.33a1.76,1.76,0,0,0,.34.25l42.28,18c1.6.41,4.09,1,4.14,1s2.28-1,2.28-1a5.54,5.54,0,0,0,1.3-2.16,4.68,4.68,0,0,0,.56-2.33l-5-3.29Z" style="fill:none"/></clipPath><clipPath id="ed53e67b-2e7a-47f3-9e20-1ded279f336d"><path d="M711,43.49l2.12-.45a4.76,4.76,0,0,1,1.25,2.05,5.52,5.52,0,0,1,.6,2.44s-.9,2.2-.89,2.32a1.66,1.66,0,0,1-.35.25l-42.28,18c-1.59.41-4.09,1-4.14,1s-2.28-1-2.28-1a5.47,5.47,0,0,1-1.29-2.15,4.52,4.52,0,0,1-.56-2.33l5-3.29Z" style="fill:none"/></clipPath><radialGradient id="b48700da-4e4c-41d9-89c2-0002fb62d6f2" cx="381.38" cy="68.8" r="42.42" gradientTransform="translate(302.49 438.37) rotate(-90)" xlink:href="#a66b2731-54df-4e09-a8ef-470250a53b52"/><radialGradient id="a653b728-f709-4546-9891-180897d55d2e" cx="353.45" cy="40.51" r="81.25" gradientTransform="translate(302.49 438.37) rotate(-90)" xlink:href="#b6e0adea-192b-499f-894e-567aea95ab78"/><linearGradient id="b2226643-8684-4535-a1dc-f43bb7a40204" x1="3390.49" y1="1.34" x2="3390.45" y2="1.13" gradientTransform="matrix(-0.03, 1, 1, 0.03, 353.25, -3350.18)" xlink:href="#adfb9771-02a9-474a-96d1-1d8622eb5d4b"/><linearGradient id="b6c6159c-c8af-49b9-b149-ecbfcb13d907" x1="3390.55" y1="-0.47" x2="3390.51" y2="-0.68" xlink:href="#adfb9771-02a9-474a-96d1-1d8622eb5d4b"/></defs><g style="isolation:isolate"><g id="bf194895-1b26-4ede-85db-bceeff9b9d91" data-name="Calque 1"><g id="b064087b-779b-40d6-a7ef-90d2608ce8f2" data-name="ornement droit"><path d="M194.91,44.69a31.54,31.54,0,0,0,7.18,12.55,22.31,22.31,0,0,0,8.91,6,10,10,0,0,0,6.69.31A3.43,3.43,0,0,0,220,60.25a4.94,4.94,0,0,0-1.26-3.62,15.87,15.87,0,0,0-3.51-2.75,38.1,38.1,0,0,1-5.58-4.19,27.63,27.63,0,0,1-6.2-8.21,20.6,20.6,0,0,1-2-13.15,18.8,18.8,0,0,1,3.29-7.41,26,26,0,0,1,6.93-6.41c.73-.44,1.44-.92,2.21-1.33L216.22,12l2.49-1c.84-.34,1.74-.49,2.63-.75a25.8,25.8,0,0,1,6.85-.61c.89.07,1.78.18,2.66.32a34.44,34.44,0,0,1,8,2.6h0A46.77,46.77,0,0,1,250,19.79c1.68,1.58,3.23,3.22,4.67,4.87a69.79,69.79,0,0,1,6.46,8.79,93.9,93.9,0,0,1,12.34,32.06c1.69,8.94,1.9,15.54,2.56,19.92a16.13,16.13,0,0,0,.62,2.9,7.9,7.9,0,0,0,.92,2.13,4.26,4.26,0,0,0,3.38,2,3.73,3.73,0,0,0,3.57-1.59,7.72,7.72,0,0,0,1.14-2.32,20.21,20.21,0,0,0,.6-3.33c.47-5.1-.64-12.8-4-22.15a109.09,109.09,0,0,0-18.34-31.6,88,88,0,0,0-7.72-8.23c-1.73-1.61-3.57-3.2-5.53-4.72a47.7,47.7,0,0,0-11.16-7.21h0a36.27,36.27,0,0,0-8.34-2.7h0c-1-.17-2.07-.3-3.12-.38a29.63,29.63,0,0,0-7,0c-1,.17-2,.24-2.93.5l-2.83.76-2.67,1c-.88.33-1.72.75-2.58,1.12a32.14,32.14,0,0,0-9,6.2,25,25,0,0,0-5.71,8.75,26.16,26.16,0,0,0-1.72,9.57A30.73,30.73,0,0,0,194.91,44.69Z" style="fill:#ed6d86"/><path d="M4.42,26.13a7.49,7.49,0,0,0,3,5.44,8.11,8.11,0,0,0,5.55,2.33,11.19,11.19,0,0,0,5.86-2.24c.52-.35,1.06-.74,1.6-1.18s1.15-.87,1.75-1.36,1.21-1,1.84-1.6,1.34-1.1,2-1.72,1.41-1.26,2.21-1.88l2.43-2,2.72-2.06c.94-.7,2-1.35,3-2.08a56,56,0,0,1,15.8-7.23l2.43-.64c.82-.19,1.66-.34,2.52-.51l1.29-.25c.44-.07.87-.12,1.32-.18l2.69-.34a74,74,0,0,1,11.47-.1A89.42,89.42,0,0,1,86.2,10.29,118.41,118.41,0,0,1,99,13.83l1.88.66c4.56,2,9,4.22,13.37,6.46s8.5,4.46,12.68,6.75q-2.28-.94-4.5-1.79c-10.13-3.87-19.26-6.08-26.67-6.56s-13,.7-16.36,2.87a8.42,8.42,0,0,0-3.89,9.08,11.47,11.47,0,0,0,.78,2.83,4.49,4.49,0,0,0,1.22,1.73,3.34,3.34,0,0,0,1.71.73,6.61,6.61,0,0,0,2.26,0c3.38-.47,8.42-2.56,15.33-4.14a75.9,75.9,0,0,1,25.64-1.56,80.5,80.5,0,0,1,17,3.83l1,.59q9.86,5.52,19.69,10.87L159,45.77a82.07,82.07,0,0,0-22-3.86c-6.32-.11-11.44,1-14.84,3.23a9.8,9.8,0,0,0-4.68,9.73c.78,8.09,8.55,3.55,20.78-.41a73.14,73.14,0,0,1,21.19-4,52.54,52.54,0,0,1,10.33.8c7.54,4,15.14,7.77,22.85,11.24q13.27,6,26.68,11.39l3.35,1.35L226,76.55c2.23.91,4.5,1.7,6.75,2.55s4.54,1.58,6.81,2.34,4.57,1.5,6.88,2.13l3.47,1c1.16.31,2.33.58,3.49.86,2.33.59,4.68,1,7,1.51,1.17.25,2.35.45,3.53.64l3.54.6c2.37.33,4.74.65,7.11.93,1.21.14,2.43.25,3.64.36l4.81,1.1c3.16.76,6.09,1.37,8.76,2s5.1,1.06,7.28,1.47,4.08.58,5.72.67a12.14,12.14,0,0,0,4.08-.37c2.16-.64,3.15-2.15,3-5.06s-1.33-4.32-3.42-4.77a13,13,0,0,0-3.89,0c-1.55.13-3.36.43-5.44.82s-4.43.76-7.06,1.14-5.54.74-8.72.88c-1.59.1-3.25.16-5,.17L274.91,87q-3.51-.53-7-1.13l-3.49-.64c-1.17-.2-2.33-.42-3.48-.68-2.32-.49-4.64-1-6.95-1.51-1.15-.27-2.31-.51-3.47-.79l-3.46-.85c-2.32-.51-4.61-1.17-6.92-1.75s-4.59-1.28-6.88-2-4.58-1.38-6.84-2.16L223,74.31l-3.38-1.24a243.69,243.69,0,0,1-26.35-11.91L191,60c-4.86-4.44-7.06-10.12-8.44-14.61-1.87-6.09-2.34-10.13-6-6.87-3,2.61-2.48,6.71,1.07,11.32a36.35,36.35,0,0,0,6.17,6.08c-1.3-.65-2.6-1.28-3.89-1.9-4.08-2.23-8.15-4.5-12.24-6.77C160.81,43.38,154,39.44,147,35.55c-7.74-5.15-10.73-12.68-12.69-18.45-2.08-6.22-2.92-10.38-6.66-7.09-3,2.65-2.19,6.78,1.58,11.49,3.25,4,8.66,8.57,15.92,13l-3.25-1.81c-4.35-2.39-8.73-4.75-13.19-7s-9-4.55-13.57-6.68c-4.43-2-9-4-13.61-5.74l-2-.94A152.36,152.36,0,0,0,74.85,3,97.13,97.13,0,0,0,62.57.54l-3-.28c-.51,0-1-.1-1.51-.13l-1.5,0c-1,0-2-.07-3-.08L50.61.08A67.06,67.06,0,0,0,29.77,4.27C28.31,4.85,26.84,5.39,25.5,6s-2.61,1.26-3.84,1.88-2.33,1.32-3.41,2a35.15,35.15,0,0,0-3,2c-.94.67-1.83,1.32-2.66,2s-1.53,1.33-2.22,2S9,17.07,8.45,17.69s-1,1.25-1.48,1.85A10.56,10.56,0,0,0,4.42,26.13ZM181.3,54.75c.83.36,1.67.76,2.52,1.17l.86.66C183.55,56,182.42,55.37,181.3,54.75Z" style="fill:#ed6d86"/><polygon points="80.32 9.72 80.32 9.72 80.32 9.72 80.32 9.72" style="fill:#ed6d86"/><path d="M12.35,68.89a62,62,0,0,1,8-27.57l.47-1.07h0A56.76,56.76,0,0,1,28.52,28h0a56.49,56.49,0,0,1,23.41-16.7h0A56.81,56.81,0,0,1,71.8,7.64a53.39,53.39,0,0,1,8.74.71l-.22,1.37A51.82,51.82,0,0,0,71.8,9,54.82,54.82,0,0,0,29.59,28.86h0a54.46,54.46,0,0,0-7.54,12l-.71,1.63-.35.81-.31.82-.62,1.67-.54,1.69a40.76,40.76,0,0,0-1.6,6.85h0a40.83,40.83,0,0,0-.48,6.34A43.48,43.48,0,0,0,43.09,100.3h0a38.23,38.23,0,0,0,6.62,2.32h0c.51.14,1,.25,1.54.37s.87.16,1.3.22c1.15.09,2.28.23,3.4.28s2.24,0,3.34-.07a32.2,32.2,0,0,0,12.07-3.27,32.73,32.73,0,0,0,9.1-6.71,29.94,29.94,0,0,0,5.7-8.31c.17-.36.36-.7.51-1.07s.27-.73.4-1.1.27-.72.4-1.07a8.41,8.41,0,0,0,.36-1.07,31,31,0,0,0,.92-4.2l.15-1c0-.33,0-.66,0-1s0-.65,0-1l0-.47,0-.48-.09-1.84-.27-1.76a13.2,13.2,0,0,0-.37-1.68,11.51,11.51,0,0,0-.45-1.58l-.52-1.5L86.66,63l-.3-.68L86,61.66q-.34-.63-.69-1.23l-.76-1.12a11.82,11.82,0,0,0-.75-1.06,41.35,41.35,0,0,0-5.91-6c-.92-.66-1.63-1.43-2.34-2a14.79,14.79,0,0,1-1.66-1.81,4.32,4.32,0,0,1-.77-3.91A3.45,3.45,0,0,1,76.3,42a8.36,8.36,0,0,1,3.13.24,17.05,17.05,0,0,1,4,1.55,26.67,26.67,0,0,1,9,8.4,18.19,18.19,0,0,1,1,1.61c.32.56.65,1.12,1,1.71s.55,1.24.83,1.87l.41,1c.11.34.23.67.34,1,.22.68.45,1.37.65,2.08s.32,1.45.48,2.2a17.22,17.22,0,0,1,.34,2.3,18.5,18.5,0,0,1,.18,2.38c0,.8,0,1.62,0,2.45s-.15,1.66-.22,2.51l-.07.64-.12.63c-.08.42-.16.85-.25,1.27s-.17.86-.25,1.29l-.39,1.27a36.67,36.67,0,0,1-1.91,5,10,10,0,0,1-.61,1.23c-.22.41-.44.82-.67,1.23l-.67,1.23c-.24.41-.53.79-.79,1.19a36.62,36.62,0,0,1-8,8.76,38.23,38.23,0,0,1-11,6.24,37,37,0,0,1-22.39.92l-.93-.22h0a39.85,39.85,0,0,1-6.83-2.4h0A44.76,44.76,0,0,1,21.63,82.28a24.2,24.2,0,0,1,.94,3.06c.24,1.17.18,2-.3,2.41s-1.41.48-2.8,0C17,86.9,15.24,84.84,14,81.68a26.08,26.08,0,0,1-1.35-5.58A46.45,46.45,0,0,1,12.35,68.89Z" style="fill:#ed6d86"/><path d="M186.08,94.19a114.77,114.77,0,0,0,22.23-6.72c6.25-2.45,12.77-5.32,19.68-8.33q6.09-2.4,12.18-4.78c4.79-1.87,9.6-3.69,14.44-5.42,7.09-2.24,13.85-4.06,20.23-5.44a147.75,147.75,0,0,1,40.24-3.36c5.32.31,9.92.82,13.83,1.37,1,.1,1.91.26,2.81.38l2.24.29a7.59,7.59,0,0,1-1.22-2.28,7.5,7.5,0,0,1-.86-3.88v-.89a10,10,0,0,1,.77-3.88c-.85-.1-1.74-.21-2.67-.25a95,95,0,0,0-15,.12c-11.38.87-25.28,3.76-41,9.12-6.3,2.14-12.92,4.63-19.87,7.42-4.83,1.73-9.63,3.55-14.4,5.42-4.21,1.63-8.4,3.29-12.6,4.93-7,2.43-13.56,4.58-19.82,6.25a95.62,95.62,0,0,1-21.81,3.62A38.1,38.1,0,0,1,168.92,85a32.57,32.57,0,0,1-3.07-1.55c-.93-.6-1.85-1.13-2.66-1.77s-1.59-1.26-2.33-1.86-1.38-1.29-2-1.9c-2.51-2.56-4.43-5-6.06-6.9-.85-.93-1.57-1.8-2.31-2.48A12.8,12.8,0,0,0,148.37,67a4,4,0,0,0-4-.15,3.65,3.65,0,0,0-2,3.48,8.56,8.56,0,0,0,.49,2.88,18.17,18.17,0,0,0,1.58,3.6,34.21,34.21,0,0,0,7.21,8.88c.89.77,1.83,1.55,2.86,2.31a37.16,37.16,0,0,0,3.35,2.16,38,38,0,0,0,3.83,1.93,38.58,38.58,0,0,0,14,2.94A52.9,52.9,0,0,0,186.08,94.19Z" style="fill:#ed6d86"/><polygon points="202.8 18.61 202.8 18.61 202.8 18.61 202.8 18.61" style="fill:#ed6d86"/><path d="M202.8,18.61Z" style="fill:#ed6d86"/><path d="M548.68,44.69a31.43,31.43,0,0,1-7.18,12.55,22.28,22.28,0,0,1-8.9,6,10.07,10.07,0,0,1-6.7.31,3.43,3.43,0,0,1-2.28-3.27,5,5,0,0,1,1.27-3.62,15.64,15.64,0,0,1,3.51-2.75A38.64,38.64,0,0,0,534,49.69a27.63,27.63,0,0,0,6.2-8.21,20.6,20.6,0,0,0,2-13.15,18.8,18.8,0,0,0-3.29-7.41A26,26,0,0,0,532,14.51c-.73-.44-1.44-.92-2.21-1.33L527.37,12l-2.49-1c-.84-.34-1.74-.49-2.63-.75a25.76,25.76,0,0,0-6.85-.61c-.89.07-1.78.18-2.66.32a34.21,34.21,0,0,0-8,2.6h0a46.77,46.77,0,0,0-11.11,7.24c-1.68,1.58-3.23,3.22-4.67,4.87a70.79,70.79,0,0,0-6.46,8.79,93.9,93.9,0,0,0-12.34,32.06c-1.69,8.94-1.9,15.54-2.56,19.92a16.13,16.13,0,0,1-.62,2.9,7.6,7.6,0,0,1-.92,2.13,4.26,4.26,0,0,1-3.38,2,3.73,3.73,0,0,1-3.57-1.59,8,8,0,0,1-1.14-2.32,21.32,21.32,0,0,1-.6-3.33c-.47-5.1.64-12.8,4-22.15a109.09,109.09,0,0,1,18.34-31.6,88,88,0,0,1,7.72-8.23c1.74-1.61,3.58-3.2,5.53-4.72a47.7,47.7,0,0,1,11.16-7.21h0a36.5,36.5,0,0,1,8.35-2.7h0c1-.17,2.08-.3,3.12-.38a29.72,29.72,0,0,1,7,0c1,.17,2,.24,2.93.5l2.83.76,2.67,1c.88.33,1.72.75,2.57,1.12a32,32,0,0,1,9,6.2,25.12,25.12,0,0,1,5.72,8.75A26.15,26.15,0,0,1,550,36.05,30,30,0,0,1,548.68,44.69Z" style="fill:#ed6d86"/><path d="M741.86,19.54c-.45-.6-.94-1.21-1.49-1.85s-1.22-1.24-1.9-1.89-1.43-1.3-2.22-2-1.72-1.3-2.66-2-1.91-1.36-3-2-2.21-1.32-3.41-2S724.65,6.64,723.32,6s-2.8-1.16-4.27-1.74A67.05,67.05,0,0,0,698.22.08L695.28,0c-1,0-2,.05-3,.08L690.8.13c-.5,0-1,.09-1.5.13l-3,.28A97.13,97.13,0,0,0,674,3a152.61,152.61,0,0,0-24.73,9.35l-2,.94c-4.64,1.76-9.18,3.7-13.61,5.74-4.61,2.13-9.13,4.37-13.57,6.68s-8.84,4.66-13.19,7.05l-3.25,1.81c7.26-4.45,12.67-9,15.92-13,3.77-4.71,4.59-8.84,1.58-11.49-3.74-3.29-4.58.87-6.66,7.09-2,5.77-5,13.3-12.69,18.45-6.93,3.89-13.76,7.83-20.62,11.67-4.08,2.27-8.16,4.54-12.24,6.77-1.29.62-2.58,1.25-3.88,1.9a36.63,36.63,0,0,0,6.16-6.08c3.56-4.61,4-8.71,1.07-11.32-3.71-3.26-4.18.78-6,6.87-1.38,4.49-3.59,10.17-8.45,14.61l-2.25,1.19a243.54,243.54,0,0,1-26.34,11.91l-3.38,1.24-3.4,1.17c-2.27.78-4.57,1.44-6.85,2.16s-4.58,1.33-6.88,2-4.6,1.24-6.92,1.75l-3.46.85c-1.15.28-2.31.52-3.47.79-2.31.55-4.63,1-6.94,1.51-1.16.26-2.32.48-3.49.68l-3.49.64q-3.5.6-7,1.13l-3.49.47c-1.72,0-3.38-.07-5-.17-3.18-.14-6.09-.54-8.72-.88s-5-.82-7.06-1.14-3.88-.69-5.43-.82a13,13,0,0,0-3.89,0c-2.1.45-3.24,1.86-3.42,4.77s.8,4.42,3,5.06a12.17,12.17,0,0,0,4.08.37c1.64-.09,3.56-.34,5.73-.67s4.6-.89,7.27-1.47,5.6-1.23,8.76-2l4.81-1.1c1.22-.11,2.43-.22,3.64-.36,2.38-.28,4.75-.6,7.11-.93l3.54-.6c1.18-.19,2.36-.39,3.53-.64,2.35-.46,4.7-.92,7-1.51,1.17-.28,2.33-.55,3.49-.86l3.47-1c2.31-.63,4.59-1.42,6.88-2.13s4.55-1.53,6.81-2.34,4.52-1.64,6.75-2.55l3.37-1.29,3.35-1.35q13.41-5.35,26.68-11.39c7.71-3.47,15.31-7.27,22.85-11.24a52.66,52.66,0,0,1,10.33-.8,73.14,73.14,0,0,1,21.19,4c12.23,4,20,8.5,20.78.41a9.8,9.8,0,0,0-4.68-9.73c-3.4-2.21-8.52-3.34-14.84-3.23a81.94,81.94,0,0,0-22,3.86l-1.24.39q9.86-5.34,19.69-10.87l1.06-.59a80.42,80.42,0,0,1,17-3.83A76,76,0,0,1,652,32.43c6.9,1.58,11.94,3.67,15.32,4.14a6.61,6.61,0,0,0,2.26,0,3.34,3.34,0,0,0,1.71-.73,4.49,4.49,0,0,0,1.22-1.73,11.88,11.88,0,0,0,.79-2.83,8.42,8.42,0,0,0-3.9-9.08c-3.34-2.17-8.94-3.38-16.36-2.87S636.54,22,626.41,25.91c-1.47.56-3,1.16-4.49,1.79,4.17-2.29,8.39-4.56,12.68-6.75s8.8-4.42,13.36-6.46c.63-.22,1.26-.45,1.89-.66a117.62,117.62,0,0,1,12.77-3.54,89.64,89.64,0,0,1,12.29-1.77,74,74,0,0,1,11.47.1l2.7.34c.44.06.88.11,1.31.18l1.3.25c.85.17,1.69.32,2.52.51l2.42.64a55.87,55.87,0,0,1,15.8,7.23c1.05.73,2.08,1.38,3,2.08l2.71,2.06,2.43,2c.8.62,1.52,1.27,2.21,1.88s1.39,1.18,2,1.72,1.25,1.11,1.84,1.6,1.19.93,1.75,1.36,1.08.83,1.61,1.18a11.2,11.2,0,0,0,5.85,2.24,8.1,8.1,0,0,0,5.55-2.33,7.46,7.46,0,0,0,2.95-5.44A10.49,10.49,0,0,0,741.86,19.54Zm-177.72,37,.86-.66c.85-.41,1.69-.81,2.53-1.17Z" style="fill:#ed6d86"/><polygon points="668.51 9.72 668.51 9.72 668.51 9.72 668.51 9.72" style="fill:#ed6d86"/><path d="M736.47,68.89a62,62,0,0,0-8-27.57L728,40.25h0A56.38,56.38,0,0,0,720.3,28h0a56.49,56.49,0,0,0-23.41-16.7h0A56.85,56.85,0,0,0,677,7.64a53.42,53.42,0,0,0-8.75.71l.23,1.37A51.64,51.64,0,0,1,677,9a54.82,54.82,0,0,1,42.2,19.84h0a54.8,54.8,0,0,1,7.53,12l.71,1.63.35.81.31.82.62,1.67.55,1.69a41.73,41.73,0,0,1,1.59,6.85h0a40.84,40.84,0,0,1,.49,6.34,43.53,43.53,0,0,1-25.65,39.66h0a38.42,38.42,0,0,1-6.61,2.32h0c-.51.14-1,.25-1.54.37s-.87.16-1.31.22c-1.15.09-2.28.23-3.4.28s-2.24,0-3.34-.07a32.2,32.2,0,0,1-12.07-3.27,32.53,32.53,0,0,1-9.09-6.71,30,30,0,0,1-5.71-8.31c-.16-.36-.36-.7-.51-1.07s-.26-.73-.4-1.1-.27-.72-.4-1.07a7,7,0,0,1-.35-1.07,31.07,31.07,0,0,1-.93-4.2l-.15-1c0-.33,0-.66,0-1s0-.65,0-1l0-.47,0-.48c0-.62.07-1.23.1-1.84l.27-1.76a13.18,13.18,0,0,1,.36-1.68,11.51,11.51,0,0,1,.45-1.58l.52-1.5.64-1.4.3-.68.36-.63c.24-.42.46-.83.69-1.23l.76-1.12a11.82,11.82,0,0,1,.75-1.06,41.87,41.87,0,0,1,5.91-6c.92-.66,1.64-1.43,2.34-2a14.79,14.79,0,0,0,1.66-1.81,4.26,4.26,0,0,0,.77-3.91A3.44,3.44,0,0,0,672.53,42a8.33,8.33,0,0,0-3.13.24,17.11,17.11,0,0,0-4,1.55,26.56,26.56,0,0,0-9,8.4,16.16,16.16,0,0,0-1,1.61c-.32.56-.65,1.12-1,1.71s-.55,1.24-.83,1.87c-.13.32-.27.64-.41,1l-.33,1c-.22.68-.46,1.37-.66,2.08s-.32,1.45-.48,2.2a21.22,21.22,0,0,0-.34,2.3,20.49,20.49,0,0,0-.18,2.38c0,.8,0,1.62,0,2.45s.15,1.66.23,2.51l.06.64.12.63c.08.42.16.85.25,1.27s.17.86.26,1.29.25.85.38,1.27a38,38,0,0,0,1.91,5,11.72,11.72,0,0,0,.61,1.23l.67,1.23c.22.41.45.82.68,1.23s.52.79.78,1.19a36.62,36.62,0,0,0,8,8.76,38.42,38.42,0,0,0,11,6.24,37,37,0,0,0,22.39.92l.92-.22h0a39.65,39.65,0,0,0,6.84-2.4h0a44.83,44.83,0,0,0,20.9-19.28,26.28,26.28,0,0,0-1,3.06c-.24,1.17-.18,2,.3,2.41s1.41.48,2.8,0c2.49-.84,4.23-2.9,5.44-6.06a26.67,26.67,0,0,0,1.36-5.58A46.53,46.53,0,0,0,736.47,68.89Z" style="fill:#ed6d86"/><path d="M573.2,95a38.4,38.4,0,0,0,14-2.94A38,38,0,0,0,591,90.12,37.36,37.36,0,0,0,594.37,88c1-.76,2-1.54,2.85-2.31a34,34,0,0,0,7.21-8.88,18.87,18.87,0,0,0,1.59-3.6,8.78,8.78,0,0,0,.48-2.88,3.66,3.66,0,0,0-2-3.48,4,4,0,0,0-4,.15,12.8,12.8,0,0,0-2.09,1.61c-.73.68-1.46,1.55-2.31,2.48C594.42,73,592.51,75.39,590,78c-.64.61-1.31,1.26-2,1.9s-1.48,1.28-2.33,1.86-1.72,1.17-2.66,1.77A32.57,32.57,0,0,1,579.9,85a38.1,38.1,0,0,1-16.52,2.85,95.71,95.71,0,0,1-21.81-3.62c-6.25-1.67-12.86-3.82-19.82-6.25-4.19-1.64-8.39-3.3-12.59-4.93-4.78-1.87-9.58-3.69-14.41-5.42-6.95-2.79-13.57-5.28-19.87-7.42-15.73-5.36-29.63-8.25-41-9.12a95,95,0,0,0-15-.12c-1.08,0-2.1.18-3.09.3s-1.92.23-2.8.39c-.61.11-1.19.23-1.76.35a7,7,0,0,1,.64,1.42,7.63,7.63,0,0,1,.87,3.88v.45a10.08,10.08,0,0,1-1.22,4.81c.95-.1,2-.21,3.06-.38l2.56-.33c.9-.12,1.83-.28,2.82-.38,3.91-.55,8.5-1.06,13.82-1.37A147.72,147.72,0,0,1,474,63.5c6.38,1.38,13.15,3.2,20.23,5.44,4.84,1.73,9.65,3.55,14.44,5.42q6.09,2.37,12.18,4.78c6.92,3,13.43,5.88,19.68,8.33a114.77,114.77,0,0,0,22.23,6.72A52.9,52.9,0,0,0,573.2,95Z" style="fill:#ed6d86"/><polygon points="546.02 18.61 546.02 18.61 546.02 18.61 546.02 18.61" style="fill:#ed6d86"/><g id="a60ed8cd-1ff6-4b7a-9cc9-285ca0d4a226" data-name="calisson"><path d="M373.11,14.58A42.42,42.42,0,1,0,415.53,57,42.42,42.42,0,0,0,373.11,14.58Z" style="fill:#fff"/><path d="M384.31,77.07C376,74.3,370.43,65,373.11,57h0a16,16,0,0,0,1.42,3.1c3.3,4.94,7.93,6.79,12.55,7.72,12.81,0,21.67-10.24,27.14-21.32A42.72,42.72,0,0,1,415.53,57a42.26,42.26,0,0,1-2.15,13.33C405,76.4,394.2,80.67,384.31,77.07Z" style="fill:#7fcbe1"/><polygon points="373.11 56.99 373.11 56.99 373.11 56.99 373.11 56.99" style="fill:#f08588"/><path d="M358.39,75.22C357.47,66,364,58.56,373.11,57h0a23.69,23.69,0,0,0-2.36,2.57c-5.88,8.26-2.18,18.44,5.23,24,8.33,5.55,16.66,4.63,25.72,4.52L402,88a42.2,42.2,0,0,1-24,11.11L377.8,99C368.57,94.66,360.25,86.33,358.39,75.22Z" style="fill:#7fcbe1"/><path d="M355.62,50.23c6.48-.92,12.95,1.85,17.49,6.76,0,0-1.29-.41-3.47-.93C362.1,53.93,354.69,59.49,351,66c-4.45,9.79-1.19,21.28,4.59,29.65a42.59,42.59,0,0,1-19.37-17.71C336.48,65.86,342.31,53.56,355.62,50.23Z" style="fill:#7fcbe1"/><path d="M366.72,36.35c6.48,4.63,8.33,13,6.39,20.64A26.75,26.75,0,0,0,372,53.46c-2.52-5.08-6.22-8.78-11.77-10.63-12.61-2.37-23.21,4.67-29.54,15,0-.26,0-.53,0-.79a42.3,42.3,0,0,1,6.05-21.84C346.45,30.71,357.17,29.74,366.72,36.35Z" style="fill:#7fcbe1"/><path d="M385.23,41.9c-.92,6.48-4.62,13-12.12,15.09a19.61,19.61,0,0,0,2.27-3.05c3.37-3.71,3.37-8.33,2.45-13C374.05,27.37,361.62,23,349,22.12a42.05,42.05,0,0,1,20.32-7.36C378.65,20.88,386,30.24,385.23,41.9Z" style="fill:#7fcbe1"/><path d="M394.49,57.64c-6.48,4.62-15.73,4.62-21.38-.64h0a16.27,16.27,0,0,0,3.64.13c7.56.52,12.19-6,15-11.51,3.72-9.68.26-20-4.94-28.77A42.33,42.33,0,0,1,404.92,29C405.35,39.44,403.94,50.55,394.49,57.64Z" style="fill:#7fcbe1"/><rect x="373.11" y="56.99" style="fill:#7fcbe1"/><rect x="373.11" y="56.99" style="fill:#f08588"/><rect x="373.11" y="56.99" style="fill:#f08588"/><path d="M373.11,14.58A42.42,42.42,0,1,0,415.53,57,42.42,42.42,0,0,0,373.11,14.58Z" style="mix-blend-mode:multiply;fill:url(#a66b2731-54df-4e09-a8ef-470250a53b52)"/><path d="M373.11,14.58A42.42,42.42,0,1,0,415.53,57,42.42,42.42,0,0,0,373.11,14.58Z" style="mix-blend-mode:multiply;fill:url(#b6e0adea-192b-499f-894e-567aea95ab78)"/><g style="opacity:0.8;mix-blend-mode:screen"><image width="133" height="299" transform="translate(378.78 20.99) scale(0.24)" xlink:href="separation-footer1.png"/></g><g style="opacity:0.8;mix-blend-mode:screen"><image width="299" height="132" transform="translate(337.26 62.75) scale(0.24)" xlink:href="separation-footer2.png"/></g></g><line x1="503.42" y1="36.75" x2="504.31" y2="39.86" style="fill:#d2c6ca"/><line x1="503.42" y1="36.75" x2="504.31" y2="39.86" style="opacity:0.46;fill:url(#adfb9771-02a9-474a-96d1-1d8622eb5d4b)"/><ellipse cx="507.84" cy="37.23" rx="12.07" ry="12.45" style="fill:#fabc5e"/><path d="M496.84,38.62a12.26,12.26,0,0,1,12.07-12.44,11.9,11.9,0,0,1,8.91,4,12,12,0,0,0-10-5.43,12.26,12.26,0,0,0-12.07,12.44,12.63,12.63,0,0,0,3.17,8.41A12.7,12.7,0,0,1,496.84,38.62Z" style="fill:#f3925f;opacity:0.61"/><circle cx="509.01" cy="38.16" r="10.65" transform="translate(208.95 451.09) rotate(-58.28)" style="fill:#fefbe2"/><polygon points="510.27 37.93 510.27 37.93 510.27 37.93 510.27 37.93" style="fill:#e78290"/><polygon points="510.27 37.93 510.27 37.93 510.27 37.93 510.27 37.93" style="fill:#e78290"/><path d="M502.4,44.6a10.09,10.09,0,0,0,6.38,3.07l.11-8.86Z" style="fill:#aecd85"/><path d="M502.1,32.24a8.5,8.5,0,0,0-2.44,5.82v.09l8.87.08Z" style="fill:#aecd85"/><path d="M508.57,38.57h0l-8.88-.08a8.53,8.53,0,0,0,2.39,5.87Z" style="fill:#aecd85"/><path d="M508.88,28.94a10.17,10.17,0,0,0-6.54,3l6.44,6Z" style="fill:#aecd85"/><polygon points="507.89 37.87 507.89 37.87 507.89 37.87 507.89 37.87" style="fill:#e78290"/><polygon points="507.89 37.87 507.89 37.87 507.89 37.87 507.89 37.87" style="fill:#e78290"/><path d="M515.6,44.69a10.17,10.17,0,0,1-6.46,3l.11-8.87Z" style="fill:#aecd85"/><path d="M516.19,32.34a8.48,8.48,0,0,1,2.3,5.87v.09l-8.87-.09Z" style="fill:#aecd85"/><path d="M509.58,38.55h0l8.87.09a8.55,8.55,0,0,1-2.53,5.83Z" style="fill:#aecd85"/><path d="M509.37,28.94a10.15,10.15,0,0,1,6.47,3.17L509.26,38Z" style="fill:#aecd85"/><path d="M508.78,40.39a1.83,1.83,0,1,1,1.71-1.82A1.77,1.77,0,0,1,508.78,40.39Z" style="fill:#fefbe2"/><ellipse cx="627.97" cy="85.72" rx="12.07" ry="12.45" style="fill:#aecd85"/><path d="M617,87.11A12.27,12.27,0,0,1,629,74.66a11.86,11.86,0,0,1,8.9,4,12,12,0,0,0-10-5.44,12.27,12.27,0,0,0-12.08,12.45,12.68,12.68,0,0,0,3.17,8.41A12.72,12.72,0,0,1,617,87.11Z" style="fill:#78b884"/><circle cx="629.13" cy="86.65" r="10.65" transform="translate(308.32 634.73) rotate(-67.5)" style="fill:#fefbe2"/><polygon points="630.39 86.42 630.39 86.42 630.39 86.42 630.39 86.42" style="fill:#e78290"/><polygon points="630.39 86.42 630.39 86.42 630.39 86.42 630.39 86.42" style="fill:#e78290"/><path d="M622.52,93.08a10.2,10.2,0,0,0,6.38,3.08l.11-8.87Z" style="fill:#e78290"/><path d="M622.23,80.72a8.54,8.54,0,0,0-2.45,5.83s0,0,0,.08l8.87.09Z" style="fill:#e78290"/><path d="M628.69,87.06h0L619.82,87a8.52,8.52,0,0,0,2.38,5.88Z" style="fill:#e78290"/><path d="M629,77.43a10.21,10.21,0,0,0-6.54,3l6.43,6Z" style="fill:#e78290"/><polygon points="628.01 86.36 628.01 86.36 628.01 86.36 628.01 86.36" style="fill:#e78290"/><polygon points="628.01 86.36 628.01 86.36 628.01 86.36 628.01 86.36" style="fill:#e78290"/><path d="M635.72,93.18a10.2,10.2,0,0,1-6.45,2.95l.11-8.87Z" style="fill:#e78290"/><path d="M636.32,80.83a8.57,8.57,0,0,1,2.3,5.87s0,.06,0,.09l-8.87-.09Z" style="fill:#e78290"/><path d="M629.7,87h0l8.87.08A8.52,8.52,0,0,1,636.05,93Z" style="fill:#e78290"/><path d="M629.5,77.43A10.13,10.13,0,0,1,636,80.6l-6.57,5.87Z" style="fill:#e78290"/><path d="M628.91,88.88a1.83,1.83,0,1,1,1.7-1.83A1.78,1.78,0,0,1,628.91,88.88Z" style="fill:#fefbe2"/><line x1="238.99" y1="36.75" x2="238.1" y2="39.86" style="fill:#d2c6ca"/><line x1="238.99" y1="36.75" x2="238.1" y2="39.86" style="opacity:0.46;fill:url(#b660a0b1-c9ee-4660-9bb2-dc3142d40143)"/><ellipse cx="234.56" cy="37.23" rx="12.07" ry="12.45" style="fill:#fabc5e"/><path d="M245.57,38.62a12.27,12.27,0,0,0-12.08-12.44,11.9,11.9,0,0,0-8.9,4,12,12,0,0,1,10-5.43,12.27,12.27,0,0,1,12.08,12.44,12.63,12.63,0,0,1-3.17,8.41A12.7,12.7,0,0,0,245.57,38.62Z" style="fill:#f3925f;opacity:0.61"/><circle cx="233.4" cy="38.16" r="10.65" transform="translate(14.8 128.4) rotate(-31.72)" style="fill:#fefbe2"/><polygon points="232.14 37.93 232.14 37.93 232.14 37.93 232.14 37.93" style="fill:#e78290"/><polygon points="232.14 37.93 232.14 37.93 232.14 37.93 232.14 37.93" style="fill:#e78290"/><path d="M240,44.6a10.09,10.09,0,0,1-6.38,3.07l-.11-8.86Z" style="fill:#aecd85"/><path d="M240.31,32.24a8.55,8.55,0,0,1,2.44,5.82v.09l-8.88.08Z" style="fill:#aecd85"/><path d="M233.84,38.57h0l8.87-.08a8.47,8.47,0,0,1-2.38,5.87Z" style="fill:#aecd85"/><path d="M233.52,28.94a10.15,10.15,0,0,1,6.54,3l-6.43,6Z" style="fill:#aecd85"/><polygon points="234.52 37.87 234.52 37.87 234.52 37.87 234.52 37.87" style="fill:#e78290"/><polygon points="234.52 37.87 234.52 37.87 234.52 37.87 234.52 37.87" style="fill:#e78290"/><path d="M226.81,44.69a10.15,10.15,0,0,0,6.45,3l-.1-8.87Z" style="fill:#aecd85"/><path d="M226.22,32.34a8.53,8.53,0,0,0-2.31,5.87.28.28,0,0,1,0,.09l8.87-.09Z" style="fill:#aecd85"/><path d="M232.83,38.55h0l-8.87.09a8.55,8.55,0,0,0,2.53,5.83Z" style="fill:#aecd85"/><path d="M233,28.94a10.13,10.13,0,0,0-6.47,3.17L233.15,38Z" style="fill:#aecd85"/><path d="M233.62,40.39a1.83,1.83,0,1,0-1.7-1.82A1.77,1.77,0,0,0,233.62,40.39Z" style="fill:#fefbe2"/><ellipse cx="116.44" cy="85.72" rx="12.07" ry="12.45" style="fill:#aecd85"/><path d="M127.44,87.11a12.27,12.27,0,0,0-12.07-12.45,11.88,11.88,0,0,0-8.91,4,12,12,0,0,1,10-5.44,12.27,12.27,0,0,1,12.07,12.45,12.63,12.63,0,0,1-3.17,8.41A12.64,12.64,0,0,0,127.44,87.11Z" style="fill:#78b884"/><circle cx="115.27" cy="86.65" r="10.65" transform="translate(-24.38 50.71) rotate(-22.5)" style="fill:#fefbe2"/><polygon points="114.02 86.42 114.02 86.42 114.01 86.42 114.02 86.42" style="fill:#e78290"/><polygon points="114.01 86.42 114.02 86.42 114.01 86.42 114.01 86.42" style="fill:#e78290"/><path d="M121.88,93.08a10.15,10.15,0,0,1-6.38,3.08l-.1-8.87Z" style="fill:#e78290"/><path d="M122.18,80.72a8.48,8.48,0,0,1,2.44,5.83v.08l-8.87.09Z" style="fill:#e78290"/><path d="M115.72,87.06h0l8.87-.09a8.53,8.53,0,0,1-2.39,5.88Z" style="fill:#e78290"/><path d="M115.4,77.43a10.21,10.21,0,0,1,6.54,3l-6.43,6Z" style="fill:#e78290"/><polygon points="116.39 86.36 116.39 86.36 116.39 86.36 116.39 86.36" style="fill:#e78290"/><polygon points="116.39 86.36 116.39 86.36 116.39 86.36 116.39 86.36" style="fill:#e78290"/><path d="M108.69,93.18a10.2,10.2,0,0,0,6.45,2.95L115,87.26Z" style="fill:#e78290"/><path d="M108.09,80.83a8.48,8.48,0,0,0-2.3,5.87v.09l8.88-.09Z" style="fill:#e78290"/><path d="M114.71,87h0l-8.88.08A8.53,8.53,0,0,0,108.36,93Z" style="fill:#e78290"/><path d="M114.91,77.43a10.11,10.11,0,0,0-6.46,3.17L115,86.47Z" style="fill:#e78290"/><path d="M115.5,88.88a1.83,1.83,0,1,0-1.71-1.83A1.77,1.77,0,0,0,115.5,88.88Z" style="fill:#fefbe2"/><path d="M590.69,6.15a6.61,6.61,0,0,1-4.33,8.68l-2.22.64L577,17.53l-11.37,3.28a2,2,0,0,1-2.44-1.34h0A2,2,0,0,1,564.57,17l18.48-5.33a1.78,1.78,0,0,1,.45-.08l1.25-.36a2.92,2.92,0,0,0,1.87-3.95,3,3,0,0,0-3.56-1.63l-1.8.52a1.73,1.73,0,1,1-1-3.33l2.27-.66A6.68,6.68,0,0,1,590.69,6.15Z" style="fill:#e8cce4"/><path d="M565.66,20.81A2,2,0,1,1,564.57,17l.71-.2c1.62.94,3.39,2,4.75,2.73Z" style="fill:#b53b60"/><polygon points="577.03 17.53 573.99 18.41 569.16 15.7 574.58 14.13 577.63 17.35 577.03 17.53" style="fill:#b53b60"/><path d="M586.36,14.83l-2.22.64-1.52.44c-1-.68-2.78-1.87-4.25-2.87l4.12-1.2,4,2.94Z" style="fill:#b53b60"/><path d="M589,13.33c-1-.79-2.29-1.77-3.3-2.57a3,3,0,0,0,1-1.51l4.15,1A6.76,6.76,0,0,1,589,13.33Z" style="fill:#b53b60"/><path d="M590.69,6.15c0,.07,0,.14.07.2l-4.26.71a2.77,2.77,0,0,0-1.2-1.17l3.42-2.46A6.39,6.39,0,0,1,590.69,6.15Z" style="fill:#b53b60"/><path d="M586.25,2.17l-2.42,3.38a3,3,0,0,0-.77.12L582,6l.74-3.82A6.85,6.85,0,0,1,586.25,2.17Z" style="fill:#b53b60"/><path d="M579.11,5a1.73,1.73,0,0,1,1.19-2.14l.7-.2-.1,3.59A1.73,1.73,0,0,1,579.11,5Z" style="fill:#b53b60"/><g style="opacity:0.64"><path d="M567.59,18.91l9.86-2.84,6.16-1.78,1.92-.56a5.73,5.73,0,0,0,3.76-7.52,5.57,5.57,0,0,0-2.51-2.9,5.63,5.63,0,0,1,3.36,3.29,5.73,5.73,0,0,1-3.75,7.52l-1.93.56-6.16,1.78-9.85,2.85a1.73,1.73,0,0,1-1.59-.35A1.65,1.65,0,0,0,567.59,18.91Z" style="fill:#fff"/></g><path d="M574.8,15.09s1.15-4.78-.59-6.54-3.13,1.91-3.13,1.91-4.29-1.56-2.89,1.91,4.9,4.6,5.84,4.11A1.36,1.36,0,0,0,574.8,15.09Z" style="fill:#9acfdc"/><path d="M573.34,16.14l-2.31-3a9.24,9.24,0,0,1,1.79,1.5,28.26,28.26,0,0,0-.15-3.37s1.35,2.39,1.2,3.44S574.09,16.52,573.34,16.14Z" style="fill:#84b2bd"/><path d="M575.45,17.6s3.76,3.17,3.4,5.62-3.66.31-3.66.31-2.53,3.8-3.46.17S573,17.09,574,16.94A1.34,1.34,0,0,1,575.45,17.6Z" style="fill:#9acfdc"/><path d="M573.65,17.61l-.09,3.78a9.48,9.48,0,0,0,.56-2.27,28.14,28.14,0,0,1,1.87,2.8s-.33-2.72-1.07-3.48S574,16.86,573.65,17.61Z" style="fill:#84b2bd"/><path d="M573.18,14.65a2.16,2.16,0,1,0,2.67,1.49A2.17,2.17,0,0,0,573.18,14.65Z" style="fill:#9acfdc"/><path d="M440.29,23.63s-1.15,5.9-2.75,6.86-.77-4.36-.77-4.36-3.34,2.18-3.72.9,2.95-3,2.95-3-3.46-.39-3.27-2.37,6.86.57,6.86.57Z" style="fill:#fabc5e"/><path d="M440.13,23.28l-1.5,2.37a.11.11,0,0,1-.22,0l0-1.42a.11.11,0,0,0-.19-.08l-.79.67a.12.12,0,0,1-.18-.15l.54-1.07a.11.11,0,0,0-.06-.17L436.48,23a.13.13,0,0,1,0-.22l1.67-1.39a.12.12,0,0,1,.16,0l1.84,1.69A.13.13,0,0,1,440.13,23.28Z" style="fill:#f3925f;opacity:0.61"/><path d="M449.25,14.67s5.89-1.15,6.85-2.75-4.35-.77-4.35-.77,2.17-3.33.89-3.72-2.94,3-2.94,3-.39-3.46-2.38-3.27.58,6.86.58,6.86Z" style="fill:#fabc5e"/><path d="M448.9,14.51,451.27,13a.12.12,0,0,0,0-.23l-1.43,0a.12.12,0,0,1-.07-.2l.66-.78a.11.11,0,0,0-.14-.18l-1.07.53a.11.11,0,0,1-.17-.06l-.35-1.21a.13.13,0,0,0-.22,0l-1.39,1.66a.12.12,0,0,0,0,.16l1.69,1.84A.12.12,0,0,0,448.9,14.51Z" style="fill:#f3925f;opacity:0.61"/><path d="M448.88,13.1c-2.07-2.08-6-1.49-8.85,1.32s-3.4,6.77-1.32,8.85,6.05,1.49,8.85-1.32S451,15.18,448.88,13.1Z" style="fill:#e78290"/><path d="M445.13,23.71a96.84,96.84,0,0,0-4.36-10,9.51,9.51,0,0,1,1.29-.88A65.9,65.9,0,0,1,446.37,23,8.9,8.9,0,0,1,445.13,23.71Z" style="fill:#fabc5e"/><path d="M447.79,21.71a99.24,99.24,0,0,0-4.17-9.52,6.77,6.77,0,0,1,1.73-.33,67.43,67.43,0,0,1,3.56,8.4A9.39,9.39,0,0,1,447.79,21.71Z" style="fill:#fabc5e"/><path d="M442.06,24.51c-.89-2.42-2.46-5.78-3.56-8.08a9.14,9.14,0,0,1,1-1.44,65.34,65.34,0,0,1,4,9.33A6.45,6.45,0,0,1,442.06,24.51Z" style="fill:#fabc5e"/><path d="M438.71,23.27a5,5,0,0,1-1-4.83c.86,1.8,1.71,3.95,2.36,5.71A4.17,4.17,0,0,1,438.71,23.27Z" style="fill:#fabc5e"/><path d="M448.88,13.1a5,5,0,0,1,1,4.85c-.77-1.89-1.77-4.07-2.61-5.83A4,4,0,0,1,448.88,13.1Z" style="fill:#fabc5e"/><path d="M445.13,23.71a96.84,96.84,0,0,0-4.36-10,9.51,9.51,0,0,1,1.29-.88A65.9,65.9,0,0,1,446.37,23,8.9,8.9,0,0,1,445.13,23.71Z" style="fill:#fabc5e"/><path d="M447.79,21.71a99.24,99.24,0,0,0-4.17-9.52,6.77,6.77,0,0,1,1.73-.33,67.43,67.43,0,0,1,3.56,8.4A9.39,9.39,0,0,1,447.79,21.71Z" style="fill:#fabc5e"/><path d="M442.06,24.51c-.89-2.42-2.46-5.78-3.56-8.08a9.14,9.14,0,0,1,1-1.44,65.34,65.34,0,0,1,4,9.33A6.45,6.45,0,0,1,442.06,24.51Z" style="fill:#fabc5e"/><path d="M438.71,23.27a5,5,0,0,1-1-4.83c.86,1.8,1.71,3.95,2.36,5.71A4.17,4.17,0,0,1,438.71,23.27Z" style="fill:#fabc5e"/><path d="M448.88,13.1a5,5,0,0,1,1,4.85c-.77-1.89-1.77-4.07-2.61-5.83A4,4,0,0,1,448.88,13.1Z" style="fill:#fabc5e"/><path d="M449.43,19.3a4.65,4.65,0,0,0-1.21-3.89c-2.08-2.08-6-1.49-8.85,1.32a9.26,9.26,0,0,0-1.86,2.65,8.47,8.47,0,0,1,2.52-5c2.81-2.81,6.78-3.4,8.85-1.32C450.36,14.58,450.49,17,449.43,19.3Z" style="fill:#f3925f;opacity:0.61"/><path d="M151.71,6.15a6.62,6.62,0,0,0,4.34,8.68l2.22.64,7.11,2.06,11.37,3.28a2,2,0,0,0,2.44-1.34h0A2,2,0,0,0,177.84,17l-18.48-5.33a1.78,1.78,0,0,0-.45-.08l-1.25-.36a2.93,2.93,0,0,1-1.88-3.95,3,3,0,0,1,3.57-1.63l1.8.52a1.73,1.73,0,1,0,1-3.33l-2.27-.66A6.69,6.69,0,0,0,151.71,6.15Z" style="fill:#e8cce4"/><path d="M176.75,20.81A2,2,0,1,0,177.84,17l-.71-.2c-1.62.94-3.39,2-4.75,2.73Z" style="fill:#b53b60"/><polygon points="165.38 17.53 168.42 18.41 173.24 15.7 167.83 14.13 164.78 17.35 165.38 17.53" style="fill:#b53b60"/><path d="M156.05,14.83l2.22.64,1.52.44c1-.68,2.77-1.87,4.25-2.87l-4.13-1.2-4,2.94Z" style="fill:#b53b60"/><path d="M153.4,13.33c1-.79,2.29-1.77,3.3-2.57a2.88,2.88,0,0,1-1-1.51l-4.15,1A6.59,6.59,0,0,0,153.4,13.33Z" style="fill:#b53b60"/><path d="M151.71,6.15l-.06.2,4.25.71a2.88,2.88,0,0,1,1.2-1.17l-3.41-2.46A6.49,6.49,0,0,0,151.71,6.15Z" style="fill:#b53b60"/><path d="M156.16,2.17l2.41,3.38a3,3,0,0,1,.78.12l1.09.31-.75-3.82A6.81,6.81,0,0,0,156.16,2.17Z" style="fill:#b53b60"/><path d="M163.3,5a1.73,1.73,0,0,0-1.19-2.14l-.7-.2.1,3.59A1.73,1.73,0,0,0,163.3,5Z" style="fill:#b53b60"/><g style="opacity:0.64"><path d="M174.81,18.91,165,16.07l-6.16-1.78-1.93-.56a5.74,5.74,0,0,1-3.75-7.52,5.52,5.52,0,0,1,2.51-2.9,5.63,5.63,0,0,0-3.36,3.29A5.72,5.72,0,0,0,156,14.12l1.93.56,6.16,1.78L174,19.31a1.74,1.74,0,0,0,1.59-.35A1.7,1.7,0,0,1,174.81,18.91Z" style="fill:#fff"/></g><path d="M167.61,15.09s-1.15-4.78.59-6.54,3.13,1.91,3.13,1.91,4.29-1.56,2.89,1.91-4.9,4.6-5.84,4.11A1.36,1.36,0,0,1,167.61,15.09Z" style="fill:#9acfdc"/><path d="M169.06,16.14l2.32-3a9.24,9.24,0,0,0-1.79,1.5,28.26,28.26,0,0,1,.15-3.37s-1.35,2.39-1.2,3.44S168.32,16.52,169.06,16.14Z" style="fill:#84b2bd"/><path d="M167,17.6s-3.76,3.17-3.4,5.62,3.66.31,3.66.31,2.53,3.8,3.45.17-1.22-6.61-2.27-6.76A1.34,1.34,0,0,0,167,17.6Z" style="fill:#9acfdc"/><path d="M168.75,17.61l.1,3.78a9.48,9.48,0,0,1-.56-2.27,28.14,28.14,0,0,0-1.87,2.8s.33-2.72,1.07-3.48S168.37,16.86,168.75,17.61Z" style="fill:#84b2bd"/><path d="M169.23,14.65a2.16,2.16,0,1,1-2.67,1.49A2.16,2.16,0,0,1,169.23,14.65Z" style="fill:#9acfdc"/><path d="M302.12,23.63s1.15,5.9,2.75,6.86.77-4.36.77-4.36,3.33,2.18,3.72.9-2.95-3-2.95-3,3.46-.39,3.27-2.37-6.86.57-6.86.57Z" style="fill:#fabc5e"/><path d="M302.28,23.28l1.49,2.37a.12.12,0,0,0,.23,0l0-1.42a.12.12,0,0,1,.2-.08l.78.67a.12.12,0,0,0,.18-.15l-.53-1.07a.11.11,0,0,1,.06-.17l1.21-.35a.13.13,0,0,0,0-.22l-1.66-1.39a.12.12,0,0,0-.16,0l-1.84,1.69A.12.12,0,0,0,302.28,23.28Z" style="fill:#f3925f;opacity:0.61"/><path d="M293.16,14.67s-5.89-1.15-6.86-2.75,4.36-.77,4.36-.77-2.18-3.33-.9-3.72,2.95,3,2.95,3,.39-3.46,2.37-3.27-.57,6.86-.57,6.86Z" style="fill:#fabc5e"/><path d="M293.51,14.51,291.14,13a.12.12,0,0,1,0-.23l1.42,0a.12.12,0,0,0,.08-.2l-.66-.78a.11.11,0,0,1,.14-.18l1.07.53a.11.11,0,0,0,.17-.06l.35-1.21a.13.13,0,0,1,.22,0l1.39,1.66a.12.12,0,0,1,0,.16l-1.69,1.84A.12.12,0,0,1,293.51,14.51Z" style="fill:#f3925f;opacity:0.61"/><path d="M293.52,13.1c2.08-2.08,6-1.49,8.85,1.32s3.4,6.77,1.32,8.85-6,1.49-8.85-1.32S291.44,15.18,293.52,13.1Z" style="fill:#e78290"/><path d="M297.27,23.71a101.39,101.39,0,0,1,4.36-10,8.84,8.84,0,0,0-1.28-.88A65.9,65.9,0,0,0,296,23,9.42,9.42,0,0,0,297.27,23.71Z" style="fill:#fabc5e"/><path d="M294.62,21.71a99.24,99.24,0,0,1,4.17-9.52,6.85,6.85,0,0,0-1.73-.33,66,66,0,0,0-3.56,8.4A8.81,8.81,0,0,0,294.62,21.71Z" style="fill:#fabc5e"/><path d="M300.35,24.51c.89-2.42,2.45-5.78,3.56-8.08a9.14,9.14,0,0,0-1-1.44,65.34,65.34,0,0,0-4,9.33A6.37,6.37,0,0,0,300.35,24.51Z" style="fill:#fabc5e"/><path d="M303.69,23.27a5,5,0,0,0,1-4.83c-.86,1.8-1.71,3.95-2.37,5.71A4,4,0,0,0,303.69,23.27Z" style="fill:#fabc5e"/><path d="M293.52,13.1a5,5,0,0,0-1,4.85c.78-1.89,1.78-4.07,2.62-5.83A4,4,0,0,0,293.52,13.1Z" style="fill:#fabc5e"/><path d="M297.27,23.71a101.39,101.39,0,0,1,4.36-10,8.84,8.84,0,0,0-1.28-.88A65.9,65.9,0,0,0,296,23,9.42,9.42,0,0,0,297.27,23.71Z" style="fill:#fabc5e"/><path d="M294.62,21.71a99.24,99.24,0,0,1,4.17-9.52,6.85,6.85,0,0,0-1.73-.33,66,66,0,0,0-3.56,8.4A8.81,8.81,0,0,0,294.62,21.71Z" style="fill:#fabc5e"/><path d="M300.35,24.51c.89-2.42,2.45-5.78,3.56-8.08a9.14,9.14,0,0,0-1-1.44,65.34,65.34,0,0,0-4,9.33A6.37,6.37,0,0,0,300.35,24.51Z" style="fill:#fabc5e"/><path d="M303.69,23.27a5,5,0,0,0,1-4.83c-.86,1.8-1.71,3.95-2.37,5.71A4,4,0,0,0,303.69,23.27Z" style="fill:#fabc5e"/><path d="M293.52,13.1a5,5,0,0,0-1,4.85c.78-1.89,1.78-4.07,2.62-5.83A4,4,0,0,0,293.52,13.1Z" style="fill:#fabc5e"/><path d="M293,19.3a4.67,4.67,0,0,1,1.2-3.89c2.08-2.08,6.05-1.49,8.85,1.32a9.3,9.3,0,0,1,1.87,2.65,8.48,8.48,0,0,0-2.53-5c-2.81-2.81-6.77-3.4-8.85-1.32C292,14.58,291.92,17,293,19.3Z" style="fill:#f3925f;opacity:0.61"/><path d="M195.72,44.69a31.44,31.44,0,0,0,7.19,12.55,22.28,22.28,0,0,0,8.9,6,10.07,10.07,0,0,0,6.7.31,3.44,3.44,0,0,0,2.28-3.27,5,5,0,0,0-1.27-3.62A15.87,15.87,0,0,0,216,53.88a38.64,38.64,0,0,1-5.57-4.19,27.81,27.81,0,0,1-6.21-8.21,20.73,20.73,0,0,1-2-13.15,18.82,18.82,0,0,1,3.3-7.41,26,26,0,0,1,6.93-6.41c.72-.44,1.44-.92,2.21-1.33L217,12l2.49-1c.84-.34,1.75-.49,2.64-.75A25.73,25.73,0,0,1,229,9.62c.89.07,1.77.18,2.66.32a34.52,34.52,0,0,1,8,2.6h0a46.63,46.63,0,0,1,11.12,7.24c1.68,1.58,3.23,3.22,4.67,4.87A70.79,70.79,0,0,1,262,33.45,93.9,93.9,0,0,1,274.3,65.51c1.68,8.94,1.9,15.54,2.55,19.92a16.09,16.09,0,0,0,.63,2.9,7.9,7.9,0,0,0,.91,2.13,4.26,4.26,0,0,0,3.38,2,3.74,3.74,0,0,0,3.58-1.59,7.72,7.72,0,0,0,1.13-2.32,19.21,19.21,0,0,0,.6-3.33c.48-5.1-.63-12.8-4-22.15a109.26,109.26,0,0,0-18.33-31.6A88,88,0,0,0,257,23.22c-1.74-1.61-3.58-3.2-5.54-4.72a47.44,47.44,0,0,0-11.15-7.21h0a36.5,36.5,0,0,0-8.35-2.7h0c-1-.17-2.08-.3-3.12-.38a29.72,29.72,0,0,0-7,0c-1,.17-2,.24-2.93.5L216,9.44l-2.67,1c-.88.33-1.72.75-2.57,1.12a31.85,31.85,0,0,0-9,6.2,25.12,25.12,0,0,0-5.72,8.75,26.15,26.15,0,0,0-1.71,9.57A30.37,30.37,0,0,0,195.72,44.69Z" style="fill:#ed6d86"/><path d="M0,26.13a7.51,7.51,0,0,0,3,5.44A8.07,8.07,0,0,0,8.5,33.9a11.19,11.19,0,0,0,5.86-2.24c.53-.35,1.06-.74,1.61-1.18s1.15-.87,1.74-1.36,1.22-1,1.85-1.6,1.33-1.1,2-1.72S23,24.54,23.8,23.92s1.59-1.32,2.44-2L29,19.85c.95-.7,2-1.35,3-2.08a56.07,56.07,0,0,1,15.81-7.23L50.2,9.9c.83-.19,1.67-.34,2.52-.51L54,9.14c.43-.07.87-.12,1.31-.18L58,8.62a74,74,0,0,1,11.47-.1,89.64,89.64,0,0,1,12.29,1.77,118.89,118.89,0,0,1,12.77,3.54l1.89.66c4.55,2,9,4.22,13.36,6.46s8.5,4.46,12.68,6.75q-2.28-.94-4.49-1.79C107.86,22,98.74,19.83,91.33,19.35s-13,.7-16.36,2.87a8.42,8.42,0,0,0-3.9,9.08,11.88,11.88,0,0,0,.79,2.83,4.38,4.38,0,0,0,1.22,1.73,3.34,3.34,0,0,0,1.7.73,6.61,6.61,0,0,0,2.26,0c3.39-.47,8.42-2.56,15.33-4.14A76,76,0,0,1,118,30.87a80.42,80.42,0,0,1,17,3.83l1.05.59q9.85,5.52,19.7,10.87l-1.24-.39a81.94,81.94,0,0,0-22-3.86c-6.33-.11-11.45,1-14.84,3.23a9.77,9.77,0,0,0-4.68,9.73c.78,8.09,8.55,3.55,20.78-.41a73.07,73.07,0,0,1,21.19-4,52.66,52.66,0,0,1,10.33.8c7.54,4,15.14,7.77,22.85,11.24q13.26,6,26.68,11.39l3.35,1.35,3.37,1.29c2.23.91,4.49,1.7,6.74,2.55s4.54,1.58,6.82,2.34,4.57,1.5,6.88,2.13l3.47,1c1.15.31,2.32.58,3.49.86,2.32.59,4.67,1,7,1.51,1.18.25,2.35.45,3.54.64l3.53.6c2.37.33,4.74.65,7.11.93,1.22.14,2.43.25,3.65.36l4.81,1.1c3.16.76,6.08,1.37,8.75,2s5.11,1.06,7.28,1.47,4.09.58,5.73.67a12.17,12.17,0,0,0,4.08-.37c2.16-.64,3.15-2.15,3-5.06s-1.32-4.32-3.42-4.77a13,13,0,0,0-3.89,0c-1.55.13-3.36.43-5.43.82s-4.43.76-7.06,1.14-5.54.74-8.72.88c-1.59.1-3.25.16-5,.17L270.5,87q-3.51-.53-7-1.13L260,85.18c-1.16-.2-2.32-.42-3.48-.68-2.32-.49-4.64-1-6.94-1.51-1.16-.27-2.32-.51-3.47-.79l-3.46-.85c-2.32-.51-4.61-1.17-6.92-1.75s-4.59-1.28-6.88-2-4.58-1.38-6.85-2.16l-3.4-1.17-3.38-1.24a243.54,243.54,0,0,1-26.34-11.91c-.75-.39-1.5-.8-2.26-1.19-4.85-4.44-7.06-10.12-8.44-14.61-1.87-6.09-2.34-10.13-6.05-6.87-3,2.61-2.48,6.71,1.08,11.32a36.63,36.63,0,0,0,6.16,6.08c-1.3-.65-2.59-1.28-3.88-1.9-4.08-2.23-8.16-4.5-12.24-6.77-6.86-3.84-13.69-7.78-20.62-11.67-7.74-5.15-10.74-12.68-12.69-18.45C127.86,10.88,127,6.72,123.28,10c-3,2.65-2.19,6.78,1.58,11.49,3.25,4,8.65,8.57,15.91,13l-3.24-1.81q-6.53-3.59-13.19-7c-4.45-2.31-9-4.55-13.58-6.68-4.43-2-9-4-13.61-5.74l-2-.94A152.36,152.36,0,0,0,70.43,3,96.64,96.64,0,0,0,58.16.54l-3-.28c-.5,0-1-.1-1.5-.13L52.1.08c-1,0-2-.07-3-.08L46.19.08A67.12,67.12,0,0,0,25.35,4.27c-1.46.58-2.92,1.12-4.26,1.74s-2.61,1.26-3.85,1.88-2.32,1.32-3.41,2-2.08,1.33-3,2-1.82,1.32-2.65,2-1.53,1.33-2.22,2S4.6,17.07,4,17.69s-1,1.25-1.49,1.85A10.56,10.56,0,0,0,0,26.13ZM176.88,54.75c.84.36,1.68.76,2.52,1.17l.86.66Z" style="fill:#ed6d86"/><polygon points="75.9 9.72 75.9 9.72 75.9 9.72 75.9 9.72" style="fill:#ed6d86"/><path d="M7.94,68.89a62,62,0,0,1,8-27.57l.46-1.07h0A56.38,56.38,0,0,1,24.11,28h0a56.49,56.49,0,0,1,23.41-16.7h0A56.81,56.81,0,0,1,67.38,7.64a53.51,53.51,0,0,1,8.75.71L75.9,9.72A51.73,51.73,0,0,0,67.38,9,54.86,54.86,0,0,0,25.17,28.86h0a55.22,55.22,0,0,0-7.54,12l-.71,1.63-.34.81-.31.82-.63,1.67-.54,1.69a41.73,41.73,0,0,0-1.59,6.85h0A42.09,42.09,0,0,0,13,60.64,43.53,43.53,0,0,0,38.67,100.3h0a38.13,38.13,0,0,0,6.61,2.32h0c.51.14,1,.25,1.54.37s.87.16,1.3.22c1.15.09,2.29.23,3.41.28s2.24,0,3.34-.07A32.2,32.2,0,0,0,67,100.15a32.68,32.68,0,0,0,9.09-6.71,29.73,29.73,0,0,0,5.7-8.31c.17-.36.37-.7.51-1.07l.41-1.1c.13-.36.26-.72.4-1.07a7,7,0,0,0,.35-1.07,29.53,29.53,0,0,0,.92-4.2c0-.33.11-.66.16-1s0-.66,0-1,0-.65,0-1l0-.47,0-.48-.09-1.84-.27-1.76a11.68,11.68,0,0,0-.37-1.68,11.49,11.49,0,0,0-.44-1.58l-.53-1.5c-.21-.48-.42-.94-.63-1.4l-.3-.68-.36-.63-.69-1.23-.77-1.12a10.09,10.09,0,0,0-.75-1.06,41.87,41.87,0,0,0-5.9-6c-.92-.66-1.64-1.43-2.35-2a14.79,14.79,0,0,1-1.66-1.81,4.32,4.32,0,0,1-.77-3.91A3.46,3.46,0,0,1,71.88,42,8.33,8.33,0,0,1,75,42.2a17.05,17.05,0,0,1,4,1.55,26.48,26.48,0,0,1,9,8.4,16.16,16.16,0,0,1,1,1.61c.31.56.65,1.12,1,1.71l.82,1.87.42,1c.11.34.22.67.33,1,.22.68.46,1.37.66,2.08s.31,1.45.48,2.2A19,19,0,0,1,93,65.9a18.49,18.49,0,0,1,.19,2.38c0,.8,0,1.62,0,2.45s-.15,1.66-.23,2.51l-.06.64-.12.63c-.08.42-.17.85-.25,1.27s-.17.86-.26,1.29-.25.85-.38,1.27a38,38,0,0,1-1.91,5,10.12,10.12,0,0,1-.62,1.23l-.66,1.23-.68,1.23c-.23.41-.52.79-.78,1.19a36.67,36.67,0,0,1-8,8.76,38.23,38.23,0,0,1-11,6.24,37,37,0,0,1-22.39.92L45,104h0a39.65,39.65,0,0,1-6.84-2.4h0a44.78,44.78,0,0,1-20.9-19.28,24.2,24.2,0,0,1,.94,3.06c.25,1.17.19,2-.29,2.41s-1.42.48-2.8,0c-2.49-.84-4.24-2.9-5.44-6.06A26.06,26.06,0,0,1,8.26,76.1,45.32,45.32,0,0,1,7.94,68.89Z" style="fill:#ed6d86"/><path d="M171.2,95a38.41,38.41,0,0,1-14-2.94A39.63,39.63,0,0,1,150,88c-1-.76-2-1.54-2.86-2.31a34.14,34.14,0,0,1-7.2-8.88,18.26,18.26,0,0,1-1.59-3.6,8.78,8.78,0,0,1-.48-2.88,3.64,3.64,0,0,1,2-3.48,4,4,0,0,1,4,.15,12.43,12.43,0,0,1,2.1,1.61c.73.68,1.46,1.55,2.31,2.48C150,73,151.9,75.39,154.42,78c.64.61,1.31,1.26,2,1.9s1.48,1.28,2.32,1.86,1.73,1.17,2.66,1.77A32.77,32.77,0,0,0,164.51,85,38.07,38.07,0,0,0,181,87.88a95.71,95.71,0,0,0,21.81-3.62c6.25-1.67,12.86-3.82,19.82-6.25,4.19-1.64,8.39-3.3,12.59-4.93,4.78-1.87,9.57-3.69,14.41-5.42,7-2.79,13.57-5.28,19.87-7.42,15.73-5.36,29.63-8.25,41-9.12a95.14,95.14,0,0,1,15-.12c1.08,0,2.1.18,3.08.3s1.92.23,2.81.39c.61.11,1.19.23,1.76.35a7.63,7.63,0,0,0-.65,1.42,7.52,7.52,0,0,0-.86,3.88v.45a10,10,0,0,0,1.22,4.81c-.95-.1-2-.21-3.06-.38l-2.57-.33c-.89-.12-1.83-.28-2.81-.38-3.91-.55-8.51-1.06-13.82-1.37a147.72,147.72,0,0,0-40.24,3.36q-9.58,2.07-20.24,5.44c-4.84,1.73-9.65,3.55-14.44,5.42q-6.09,2.37-12.17,4.78c-6.92,3-13.44,5.88-19.68,8.33a114.77,114.77,0,0,1-22.23,6.72A53.06,53.06,0,0,1,171.2,95Z" style="fill:#ed6d86"/><polygon points="198.38 18.61 198.38 18.61 198.38 18.61 198.38 18.61" style="fill:#ed6d86"/><g id="bd142ad8-0c5c-4e2a-9194-19cc45cf8565" data-name="bonbon ornement"><g id="f8a649c8-a9b8-4213-a5b2-7b5fa82129fb" data-name="sucette"><image width="107" height="60" transform="translate(49.98 57.47) scale(0.24)" xlink:href="separation-footer3.png"/><image width="30" height="47" transform="translate(49.5 73.55) scale(0.24)" xlink:href="separation-footer4.png"/><image width="25" height="48" transform="translate(47.82 76.67) scale(0.24)" xlink:href="separation-footer5.png"/><image width="26" height="46" transform="translate(43.5 78.83) scale(0.24)" xlink:href="separation-footer6.png"/><image width="31" height="40" transform="translate(38.46 80.51) scale(0.24)" xlink:href="separation-footer7.png"/><image width="41" height="34" transform="translate(33.18 81.23) scale(0.24)" xlink:href="separation-footer8.png"/><image width="46" height="28" transform="translate(29.1 80.27) scale(0.24)" xlink:href="separation-footer9.png"/><image width="48" height="27" transform="translate(27.42 76.43) scale(0.24)" xlink:href="separation-footer10.png"/><image width="38" height="37" transform="translate(27.42 70.91) scale(0.24)" xlink:href="separation-footer11.png"/><image width="37" height="46" transform="translate(27.42 66.11) scale(0.24)" xlink:href="separation-footer12.png"/><image width="29" height="49" transform="translate(29.82 62.27) scale(0.24)" xlink:href="separation-footer13.png"/><image width="25" height="48" transform="translate(33.42 59.63) scale(0.24)" xlink:href="separation-footer14.png"/><image width="31" height="42" transform="translate(37.98 58.91) scale(0.24)" xlink:href="separation-footer15.png"/><image width="40" height="35" transform="translate(40.86 59.63) scale(0.24)" xlink:href="separation-footer16.png"/><image width="47" height="30" transform="translate(43.5 61.55) scale(0.24)" xlink:href="separation-footer17.png"/><image width="47" height="28" transform="translate(46.14 65.15) scale(0.24)" xlink:href="separation-footer18.png"/><image width="39" height="34" transform="translate(47.82 69.47) scale(0.24)" xlink:href="separation-footer19.png"/><image width="52" height="44" transform="translate(42.06 76.43) scale(0.24)" xlink:href="separation-footer20.png" style="mix-blend-mode:multiply"/><image width="32" height="44" transform="translate(48.54 72.11) scale(0.24)" xlink:href="separation-footer21.png"/><image width="29" height="46" transform="translate(45.9 74.51) scale(0.24)" xlink:href="separation-footer22.png"/><image width="46" height="49" transform="translate(34.14 74.03) scale(0.24)" xlink:href="separation-footer23.png" style="mix-blend-mode:multiply"/><image width="43" height="52" transform="translate(32.94 67.07) scale(0.24)" xlink:href="separation-footer24.png" style="mix-blend-mode:multiply"/><image width="39" height="37" transform="translate(39.18 76.19) scale(0.24)" xlink:href="separation-footer25.png"/><image width="51" height="45" transform="translate(35.34 64.19) scale(0.24)" xlink:href="separation-footer26.png" style="mix-blend-mode:multiply"/><image width="47" height="28" transform="translate(34.86 76.67) scale(0.24)" xlink:href="separation-footer27.png"/><image width="43" height="37" transform="translate(34.86 70.19) scale(0.24)" xlink:href="separation-footer28.png"/><image width="39" height="45" transform="translate(35.82 66.11) scale(0.24)" xlink:href="separation-footer29.png"/><image width="52" height="45" transform="translate(39.66 72.11) scale(0.24)" xlink:href="separation-footer30.png" style="mix-blend-mode:multiply"/><image width="44" height="52" transform="translate(43.74 66.35) scale(0.24)" xlink:href="separation-footer31.png" style="mix-blend-mode:multiply"/><image width="32" height="47" transform="translate(40.14 65.63) scale(0.24)" xlink:href="separation-footer32.png"/><image width="32" height="42" transform="translate(44.22 66.83) scale(0.24)" xlink:href="separation-footer33.png"/><image width="43" height="43" transform="translate(41.58 71.15) scale(0.24)" xlink:href="separation-footer34.png"/><image width="51" height="45" transform="translate(36.54 67.79) scale(0.24)" xlink:href="separation-footer35.png" style="mix-blend-mode:multiply"/><image width="46" height="40" transform="translate(37.74 71.39) scale(0.24)" xlink:href="separation-footer36.png"/><image width="10" height="16" transform="translate(43.02 73.07) scale(0.24)" xlink:href="separation-footer37.png"/><image width="26" height="28" transform="translate(40.14 70.19) scale(0.24)" xlink:href="separation-footer38.png"/><image width="31" height="33" transform="translate(38.94 68.99) scale(0.24)" xlink:href="separation-footer39.png"/></g><g id="ab121818-00ff-4ab8-8546-04f7ab6cdca8" data-name="canne"><g style="clip-path:url(#ff9572c0-c5fe-49da-984f-7f03bf79cd5a)"><image width="62" height="20" transform="translate(66.3 59.39) scale(0.24)" xlink:href="separation-footer40.png"/><image width="62" height="20" transform="translate(60.06 56.75) scale(0.24)" xlink:href="separation-footer41.png"/><image width="61" height="21" transform="translate(53.82 54.11) scale(0.24)" xlink:href="separation-footer42.png"/><image width="61" height="20" transform="translate(47.58 51.71) scale(0.24)" xlink:href="separation-footer43.png"/><image width="61" height="20" transform="translate(41.34 49.07) scale(0.24)" xlink:href="separation-footer44.png"/><image width="62" height="20" transform="translate(34.86 46.43) scale(0.24)" xlink:href="separation-footer45.png"/><image width="62" height="20" transform="translate(28.62 43.79) scale(0.24)" xlink:href="separation-footer46.png"/><image width="62" height="20" transform="translate(16.14 38.75) scale(0.24)" xlink:href="separation-footer47.png"/><image width="62" height="20" transform="translate(22.38 41.39) scale(0.24)" xlink:href="separation-footer48.png"/></g></g><g id="af8ebc3c-3f6b-4ba0-95f0-605e1696c9c6" data-name="bonbon ornement"><g id="aecad86f-ab30-404e-a030-c3038cead070" data-name="sucette"><image width="108" height="61" transform="translate(662.22 61.31) scale(0.24)" xlink:href="separation-footer49.png"/><image width="30" height="47" transform="translate(681.18 77.63) scale(0.24)" xlink:href="separation-footer50.png"/><image width="24" height="48" transform="translate(684.3 80.51) scale(0.24)" xlink:href="separation-footer51.png"/><image width="25" height="45" transform="translate(688.38 82.91) scale(0.24)" xlink:href="separation-footer52.png"/><image width="31" height="40" transform="translate(691.98 84.35) scale(0.24)" xlink:href="separation-footer53.png"/><image width="41" height="34" transform="translate(694.86 85.07) scale(0.24)" xlink:href="separation-footer54.png"/><image width="46" height="29" transform="translate(697.74 84.11) scale(0.24)" xlink:href="separation-footer55.png"/><image width="47" height="28" transform="translate(699.18 80.27) scale(0.24)" xlink:href="separation-footer56.png"/><image width="39" height="37" transform="translate(701.34 74.75) scale(0.24)" xlink:href="separation-footer57.png"/><image width="36" height="45" transform="translate(701.82 70.19) scale(0.24)" xlink:href="separation-footer58.png"/><image width="29" height="48" transform="translate(701.1 66.35) scale(0.24)" xlink:href="separation-footer59.png"/><image width="25" height="48" transform="translate(698.46 63.71) scale(0.24)" xlink:href="separation-footer60.png"/><image width="31" height="42" transform="translate(692.46 62.99) scale(0.24)" xlink:href="separation-footer61.png"/><image width="41" height="36" transform="translate(687.42 63.47) scale(0.24)" xlink:href="separation-footer62.png"/><image width="47" height="30" transform="translate(683.1 65.39) scale(0.24)" xlink:href="separation-footer63.png"/><image width="46" height="28" transform="translate(680.7 69.23) scale(0.24)" xlink:href="separation-footer64.png"/><image width="39" height="35" transform="translate(680.7 73.31) scale(0.24)" xlink:href="separation-footer65.png"/><image width="52" height="43" transform="translate(683.34 80.51) scale(0.24)" xlink:href="separation-footer66.png" style="mix-blend-mode:multiply"/><image width="32" height="44" transform="translate(681.66 76.19) scale(0.24)" xlink:href="separation-footer67.png"/><image width="29" height="45" transform="translate(685.02 78.59) scale(0.24)" xlink:href="separation-footer68.png"/><image width="47" height="49" transform="translate(692.7 78.11) scale(0.24)" xlink:href="separation-footer69.png" style="mix-blend-mode:multiply"/><image width="43" height="53" transform="translate(694.62 70.91) scale(0.24)" xlink:href="separation-footer70.png" style="mix-blend-mode:multiply"/><image width="39" height="38" transform="translate(689.34 80.03) scale(0.24)" xlink:href="separation-footer71.png"/><image width="51" height="45" transform="translate(690.3 68.27) scale(0.24)" xlink:href="separation-footer72.png" style="mix-blend-mode:multiply"/><image width="46" height="29" transform="translate(691.98 80.51) scale(0.24)" xlink:href="separation-footer73.png"/><image width="43" height="37" transform="translate(692.7 74.27) scale(0.24)" xlink:href="separation-footer74.png"/><image width="39" height="45" transform="translate(692.7 70.19) scale(0.24)" xlink:href="separation-footer75.png"/><image width="52" height="45" transform="translate(685.74 76.19) scale(0.24)" xlink:href="separation-footer76.png" style="mix-blend-mode:multiply"/><image width="44" height="51" transform="translate(683.58 70.43) scale(0.24)" xlink:href="separation-footer77.png" style="mix-blend-mode:multiply"/><image width="32" height="47" transform="translate(690.06 69.47) scale(0.24)" xlink:href="separation-footer78.png"/><image width="32" height="42" transform="translate(685.98 70.67) scale(0.24)" xlink:href="separation-footer79.png"/><image width="44" height="43" transform="translate(685.98 74.99) scale(0.24)" xlink:href="separation-footer80.png"/><image width="51" height="45" transform="translate(689.1 71.63) scale(0.24)" xlink:href="separation-footer81.png" style="mix-blend-mode:multiply"/><image width="46" height="40" transform="translate(689.1 75.23) scale(0.24)" xlink:href="separation-footer82.png"/><image width="10" height="16" transform="translate(692.46 77.15) scale(0.24)" xlink:href="separation-footer83.png"/><image width="25" height="28" transform="translate(691.74 74.03) scale(0.24)" xlink:href="separation-footer84.png"/><image width="31" height="34" transform="translate(691.5 72.83) scale(0.24)" xlink:href="separation-footer85.png"/></g><g id="bc407eca-13a3-4f18-9fdf-837450abe93a" data-name="canne"><g style="clip-path:url(#ed53e67b-2e7a-47f3-9e20-1ded279f336d)"><image width="62" height="20" transform="translate(656.7 63.47) scale(0.24)" xlink:href="separation-footer86.png"/><image width="61" height="20" transform="translate(663.18 60.83) scale(0.24)" xlink:href="separation-footer87.png"/><image width="61" height="20" transform="translate(669.42 58.19) scale(0.24)" xlink:href="separation-footer88.png"/><image width="61" height="20" transform="translate(675.66 55.55) scale(0.24)" xlink:href="separation-footer89.png"/><image width="62" height="21" transform="translate(681.9 52.91) scale(0.24)" xlink:href="separation-footer90.png"/><image width="62" height="20" transform="translate(688.14 50.51) scale(0.24)" xlink:href="separation-footer91.png"/><image width="62" height="20" transform="translate(694.38 47.87) scale(0.24)" xlink:href="separation-footer92.png"/><image width="62" height="20" transform="translate(706.86 42.59) scale(0.24)" xlink:href="separation-footer93.png"/><image width="62" height="19" transform="translate(700.62 45.47) scale(0.24)" xlink:href="separation-footer94.png"/></g></g></g></g><g id="bb93faee-123f-499e-9496-5914660a64c9" data-name="calisson"><path d="M371.3,14.58A42.42,42.42,0,1,1,328.88,57,42.42,42.42,0,0,1,371.3,14.58Z" style="fill:#fff"/><path d="M360.1,77.07C368.43,74.3,374,65,371.3,57h0a16,16,0,0,1-1.42,3.1c-3.3,4.94-7.93,6.79-12.56,7.72-12.8,0-21.66-10.24-27.13-21.32A42.72,42.72,0,0,0,328.88,57,42.26,42.26,0,0,0,331,70.33C339.46,76.4,350.21,80.67,360.1,77.07Z" style="fill:#7fcbe1"/><polygon points="371.3 56.99 371.3 56.99 371.3 56.99 371.3 56.99" style="fill:#f08588"/><path d="M386,75.22C386.94,66,380.46,58.56,371.3,57h0a23.12,23.12,0,0,1,2.35,2.57c5.88,8.26,2.18,18.44-5.22,24-8.33,5.55-16.66,4.63-25.72,4.52l-.33-.06a42.21,42.21,0,0,0,24,11.11l.2-.08C375.83,94.66,384.16,86.33,386,75.22Z" style="fill:#7fcbe1"/><path d="M388.79,50.23c-6.48-.92-13,1.85-17.49,6.76,0,0,1.29-.41,3.47-.93,7.54-2.13,15,3.43,18.65,9.91,4.45,9.79,1.19,21.28-4.59,29.65A42.59,42.59,0,0,0,408.2,77.91C407.93,65.86,402.1,53.56,388.79,50.23Z" style="fill:#7fcbe1"/><path d="M377.68,36.35c-6.47,4.63-8.32,13-6.38,20.64a26.75,26.75,0,0,1,1.09-3.53c2.52-5.08,6.22-8.78,11.77-10.63,12.61-2.37,23.2,4.67,29.53,15,0-.26,0-.53,0-.79a42.21,42.21,0,0,0-6-21.84C398,30.71,387.24,29.74,377.68,36.35Z" style="fill:#7fcbe1"/><path d="M359.17,41.9c.93,6.48,4.63,13,12.13,15.09A18.85,18.85,0,0,1,369,53.94c-3.38-3.71-3.38-8.33-2.45-13,3.78-13.61,16.21-17.95,28.85-18.86a42.09,42.09,0,0,0-20.33-7.36C365.75,20.88,358.45,30.24,359.17,41.9Z" style="fill:#7fcbe1"/><path d="M349.92,57.64c6.48,4.62,15.73,4.62,21.38-.64h0a16.33,16.33,0,0,1-3.64.13c-7.56.52-12.19-6-15-11.51-3.73-9.68-.26-20,4.94-28.77A42.36,42.36,0,0,0,339.48,29C339.06,39.44,340.47,50.55,349.92,57.64Z" style="fill:#7fcbe1"/><rect x="371.3" y="56.99" style="fill:#7fcbe1"/><rect x="371.3" y="56.99" style="fill:#f08588"/><rect x="371.3" y="56.99" style="fill:#f08588"/><path d="M371.3,14.58A42.42,42.42,0,1,1,328.88,57,42.42,42.42,0,0,1,371.3,14.58Z" style="mix-blend-mode:multiply;fill:url(#b48700da-4e4c-41d9-89c2-0002fb62d6f2)"/><path d="M371.3,14.58A42.42,42.42,0,1,1,328.88,57,42.42,42.42,0,0,1,371.3,14.58Z" style="mix-blend-mode:multiply;fill:url(#a653b728-f709-4546-9891-180897d55d2e)"/><g style="opacity:0.8;mix-blend-mode:screen"><image width="133" height="299" transform="translate(333.66 20.99) scale(0.24)" xlink:href="separation-footer95.png"/></g><g style="opacity:0.8;mix-blend-mode:screen"><image width="299" height="132" transform="translate(335.34 62.75) scale(0.24)" xlink:href="separation-footer96.png"/></g></g><line x1="238.99" y1="36.75" x2="238.1" y2="39.86" style="fill:#d2c6ca"/><line x1="238.99" y1="36.75" x2="238.1" y2="39.86" style="opacity:0.46;fill:url(#b2226643-8684-4535-a1dc-f43bb7a40204)"/><ellipse cx="234.56" cy="37.23" rx="12.07" ry="12.45" style="fill:#fabc5e"/><path d="M245.57,38.62a12.27,12.27,0,0,0-12.08-12.44,11.9,11.9,0,0,0-8.9,4,12,12,0,0,1,10-5.43,12.27,12.27,0,0,1,12.08,12.44,12.63,12.63,0,0,1-3.17,8.41A12.7,12.7,0,0,0,245.57,38.62Z" style="fill:#f3925f;opacity:0.61"/><circle cx="233.4" cy="38.16" r="10.65" transform="translate(14.8 128.4) rotate(-31.72)" style="fill:#fefbe2"/><polygon points="232.14 37.93 232.14 37.93 232.14 37.93 232.14 37.93" style="fill:#e78290"/><polygon points="232.14 37.93 232.14 37.93 232.14 37.93 232.14 37.93" style="fill:#e78290"/><path d="M240,44.6a10.09,10.09,0,0,1-6.38,3.07l-.11-8.86Z" style="fill:#aecd85"/><path d="M240.31,32.24a8.55,8.55,0,0,1,2.44,5.82v.09l-8.88.08Z" style="fill:#aecd85"/><path d="M233.84,38.57h0l8.87-.08a8.47,8.47,0,0,1-2.38,5.87Z" style="fill:#aecd85"/><path d="M233.52,28.94a10.15,10.15,0,0,1,6.54,3l-6.43,6Z" style="fill:#aecd85"/><polygon points="234.52 37.87 234.52 37.87 234.52 37.87 234.52 37.87" style="fill:#e78290"/><polygon points="234.52 37.87 234.52 37.87 234.52 37.87 234.52 37.87" style="fill:#e78290"/><path d="M226.81,44.69a10.15,10.15,0,0,0,6.45,3l-.1-8.87Z" style="fill:#aecd85"/><path d="M226.22,32.34a8.53,8.53,0,0,0-2.31,5.87.28.28,0,0,1,0,.09l8.87-.09Z" style="fill:#aecd85"/><path d="M232.83,38.55h0l-8.87.09a8.55,8.55,0,0,0,2.53,5.83Z" style="fill:#aecd85"/><path d="M233,28.94a10.13,10.13,0,0,0-6.47,3.17L233.15,38Z" style="fill:#aecd85"/><path d="M233.62,40.39a1.83,1.83,0,1,0-1.7-1.82A1.77,1.77,0,0,0,233.62,40.39Z" style="fill:#fefbe2"/><ellipse cx="116.44" cy="85.72" rx="12.07" ry="12.45" style="fill:#aecd85"/><path d="M127.44,87.11a12.27,12.27,0,0,0-12.07-12.45,11.88,11.88,0,0,0-8.91,4,12,12,0,0,1,10-5.44,12.27,12.27,0,0,1,12.07,12.45,12.63,12.63,0,0,1-3.17,8.41A12.64,12.64,0,0,0,127.44,87.11Z" style="fill:#78b884"/><circle cx="115.27" cy="86.65" r="10.65" transform="translate(-24.38 50.71) rotate(-22.5)" style="fill:#fefbe2"/><polygon points="114.02 86.42 114.02 86.42 114.01 86.42 114.02 86.42" style="fill:#e78290"/><polygon points="114.01 86.42 114.02 86.42 114.01 86.42 114.01 86.42" style="fill:#e78290"/><path d="M121.88,93.08a10.15,10.15,0,0,1-6.38,3.08l-.1-8.87Z" style="fill:#e78290"/><path d="M122.18,80.72a8.48,8.48,0,0,1,2.44,5.83v.08l-8.87.09Z" style="fill:#e78290"/><path d="M115.72,87.06h0l8.87-.09a8.53,8.53,0,0,1-2.39,5.88Z" style="fill:#e78290"/><path d="M115.4,77.43a10.21,10.21,0,0,1,6.54,3l-6.43,6Z" style="fill:#e78290"/><polygon points="116.39 86.36 116.39 86.36 116.39 86.36 116.39 86.36" style="fill:#e78290"/><polygon points="116.39 86.36 116.39 86.36 116.39 86.36 116.39 86.36" style="fill:#e78290"/><path d="M108.69,93.18a10.2,10.2,0,0,0,6.45,2.95L115,87.26Z" style="fill:#e78290"/><path d="M108.09,80.83a8.48,8.48,0,0,0-2.3,5.87v.09l8.88-.09Z" style="fill:#e78290"/><path d="M114.71,87h0l-8.88.08A8.53,8.53,0,0,0,108.36,93Z" style="fill:#e78290"/><path d="M114.91,77.43a10.11,10.11,0,0,0-6.46,3.17L115,86.47Z" style="fill:#e78290"/><path d="M115.5,88.88a1.83,1.83,0,1,0-1.71-1.83A1.77,1.77,0,0,0,115.5,88.88Z" style="fill:#fefbe2"/><line x1="503.42" y1="36.75" x2="504.31" y2="39.86" style="fill:#d2c6ca"/><line x1="503.42" y1="36.75" x2="504.31" y2="39.86" style="opacity:0.46;fill:url(#b6c6159c-c8af-49b9-b149-ecbfcb13d907)"/><ellipse cx="507.84" cy="37.23" rx="12.07" ry="12.45" style="fill:#fabc5e"/><path d="M496.84,38.62a12.26,12.26,0,0,1,12.07-12.44,11.9,11.9,0,0,1,8.91,4,12,12,0,0,0-10-5.43,12.26,12.26,0,0,0-12.07,12.44,12.63,12.63,0,0,0,3.17,8.41A12.7,12.7,0,0,1,496.84,38.62Z" style="fill:#f3925f;opacity:0.61"/><circle cx="509.01" cy="38.16" r="10.65" transform="translate(208.95 451.09) rotate(-58.28)" style="fill:#fefbe2"/><polygon points="510.27 37.93 510.27 37.93 510.27 37.93 510.27 37.93" style="fill:#e78290"/><polygon points="510.27 37.93 510.27 37.93 510.27 37.93 510.27 37.93" style="fill:#e78290"/><path d="M502.4,44.6a10.09,10.09,0,0,0,6.38,3.07l.11-8.86Z" style="fill:#aecd85"/><path d="M502.1,32.24a8.5,8.5,0,0,0-2.44,5.82v.09l8.87.08Z" style="fill:#aecd85"/><path d="M508.57,38.57h0l-8.88-.08a8.53,8.53,0,0,0,2.39,5.87Z" style="fill:#aecd85"/><path d="M508.88,28.94a10.17,10.17,0,0,0-6.54,3l6.44,6Z" style="fill:#aecd85"/><polygon points="507.89 37.87 507.89 37.87 507.89 37.87 507.89 37.87" style="fill:#e78290"/><polygon points="507.89 37.87 507.89 37.87 507.89 37.87 507.89 37.87" style="fill:#e78290"/><path d="M515.6,44.69a10.17,10.17,0,0,1-6.46,3l.11-8.87Z" style="fill:#aecd85"/><path d="M516.19,32.34a8.48,8.48,0,0,1,2.3,5.87v.09l-8.87-.09Z" style="fill:#aecd85"/><path d="M509.58,38.55h0l8.87.09a8.55,8.55,0,0,1-2.53,5.83Z" style="fill:#aecd85"/><path d="M509.37,28.94a10.15,10.15,0,0,1,6.47,3.17L509.26,38Z" style="fill:#aecd85"/><path d="M508.78,40.39a1.83,1.83,0,1,1,1.71-1.82A1.77,1.77,0,0,1,508.78,40.39Z" style="fill:#fefbe2"/><ellipse cx="627.97" cy="85.72" rx="12.07" ry="12.45" style="fill:#aecd85"/><path d="M617,87.11A12.27,12.27,0,0,1,629,74.66a11.86,11.86,0,0,1,8.9,4,12,12,0,0,0-10-5.44,12.27,12.27,0,0,0-12.08,12.45,12.68,12.68,0,0,0,3.17,8.41A12.72,12.72,0,0,1,617,87.11Z" style="fill:#78b884"/><circle cx="629.13" cy="86.65" r="10.65" transform="translate(308.32 634.73) rotate(-67.5)" style="fill:#fefbe2"/><polygon points="630.39 86.42 630.39 86.42 630.39 86.42 630.39 86.42" style="fill:#e78290"/><polygon points="630.39 86.42 630.39 86.42 630.39 86.42 630.39 86.42" style="fill:#e78290"/><path d="M622.52,93.08a10.2,10.2,0,0,0,6.38,3.08l.11-8.87Z" style="fill:#e78290"/><path d="M622.23,80.72a8.54,8.54,0,0,0-2.45,5.83s0,0,0,.08l8.87.09Z" style="fill:#e78290"/><path d="M628.69,87.06h0L619.82,87a8.52,8.52,0,0,0,2.38,5.88Z" style="fill:#e78290"/><path d="M629,77.43a10.21,10.21,0,0,0-6.54,3l6.43,6Z" style="fill:#e78290"/><polygon points="628.01 86.36 628.01 86.36 628.01 86.36 628.01 86.36" style="fill:#e78290"/><polygon points="628.01 86.36 628.01 86.36 628.01 86.36 628.01 86.36" style="fill:#e78290"/><path d="M635.72,93.18a10.2,10.2,0,0,1-6.45,2.95l.11-8.87Z" style="fill:#e78290"/><path d="M636.32,80.83a8.57,8.57,0,0,1,2.3,5.87s0,.06,0,.09l-8.87-.09Z" style="fill:#e78290"/><path d="M629.7,87h0l8.87.08A8.52,8.52,0,0,1,636.05,93Z" style="fill:#e78290"/><path d="M629.5,77.43A10.13,10.13,0,0,1,636,80.6l-6.57,5.87Z" style="fill:#e78290"/><path d="M628.91,88.88a1.83,1.83,0,1,1,1.7-1.83A1.78,1.78,0,0,1,628.91,88.88Z" style="fill:#fefbe2"/><path d="M151.71,6.15a6.62,6.62,0,0,0,4.34,8.68l2.22.64,7.11,2.06,11.37,3.28a2,2,0,0,0,2.44-1.34h0A2,2,0,0,0,177.84,17l-18.48-5.33a1.78,1.78,0,0,0-.45-.08l-1.25-.36a2.93,2.93,0,0,1-1.88-3.95,3,3,0,0,1,3.57-1.63l1.8.52a1.73,1.73,0,1,0,1-3.33l-2.27-.66A6.69,6.69,0,0,0,151.71,6.15Z" style="fill:#e8cce4"/><path d="M176.75,20.81A2,2,0,1,0,177.84,17l-.71-.2c-1.62.94-3.39,2-4.75,2.73Z" style="fill:#b53b60"/><polygon points="165.38 17.53 168.42 18.41 173.24 15.7 167.83 14.13 164.78 17.35 165.38 17.53" style="fill:#b53b60"/><path d="M156.05,14.83l2.22.64,1.52.44c1-.68,2.77-1.87,4.25-2.87l-4.13-1.2-4,2.94Z" style="fill:#b53b60"/><path d="M153.4,13.33c1-.79,2.29-1.77,3.3-2.57a2.88,2.88,0,0,1-1-1.51l-4.15,1A6.59,6.59,0,0,0,153.4,13.33Z" style="fill:#b53b60"/><path d="M151.71,6.15l-.06.2,4.25.71a2.88,2.88,0,0,1,1.2-1.17l-3.41-2.46A6.49,6.49,0,0,0,151.71,6.15Z" style="fill:#b53b60"/><path d="M156.16,2.17l2.41,3.38a3,3,0,0,1,.78.12l1.09.31-.75-3.82A6.81,6.81,0,0,0,156.16,2.17Z" style="fill:#b53b60"/><path d="M163.3,5a1.73,1.73,0,0,0-1.19-2.14l-.7-.2.1,3.59A1.73,1.73,0,0,0,163.3,5Z" style="fill:#b53b60"/><g style="opacity:0.64"><path d="M174.81,18.91,165,16.07l-6.16-1.78-1.93-.56a5.74,5.74,0,0,1-3.75-7.52,5.52,5.52,0,0,1,2.51-2.9,5.63,5.63,0,0,0-3.36,3.29A5.72,5.72,0,0,0,156,14.12l1.93.56,6.16,1.78L174,19.31a1.74,1.74,0,0,0,1.59-.35A1.7,1.7,0,0,1,174.81,18.91Z" style="fill:#fff"/></g><path d="M167.61,15.09s-1.15-4.78.59-6.54,3.13,1.91,3.13,1.91,4.29-1.56,2.89,1.91-4.9,4.6-5.84,4.11A1.36,1.36,0,0,1,167.61,15.09Z" style="fill:#9acfdc"/><path d="M169.06,16.14l2.32-3a9.24,9.24,0,0,0-1.79,1.5,28.26,28.26,0,0,1,.15-3.37s-1.35,2.39-1.2,3.44S168.32,16.52,169.06,16.14Z" style="fill:#84b2bd"/><path d="M167,17.6s-3.76,3.17-3.4,5.62,3.66.31,3.66.31,2.53,3.8,3.45.17-1.22-6.61-2.27-6.76A1.34,1.34,0,0,0,167,17.6Z" style="fill:#9acfdc"/><path d="M168.75,17.61l.1,3.78a9.48,9.48,0,0,1-.56-2.27,28.14,28.14,0,0,0-1.87,2.8s.33-2.72,1.07-3.48S168.37,16.86,168.75,17.61Z" style="fill:#84b2bd"/><path d="M169.23,14.65a2.16,2.16,0,1,1-2.67,1.49A2.16,2.16,0,0,1,169.23,14.65Z" style="fill:#9acfdc"/><path d="M302.12,23.63s1.15,5.9,2.75,6.86.77-4.36.77-4.36,3.33,2.18,3.72.9-2.95-3-2.95-3,3.46-.39,3.27-2.37-6.86.57-6.86.57Z" style="fill:#fabc5e"/><path d="M302.28,23.28l1.49,2.37a.12.12,0,0,0,.23,0l0-1.42a.12.12,0,0,1,.2-.08l.78.67a.12.12,0,0,0,.18-.15l-.53-1.07a.11.11,0,0,1,.06-.17l1.21-.35a.13.13,0,0,0,0-.22l-1.66-1.39a.12.12,0,0,0-.16,0l-1.84,1.69A.12.12,0,0,0,302.28,23.28Z" style="fill:#f3925f;opacity:0.61"/><path d="M293.16,14.67s-5.89-1.15-6.86-2.75,4.36-.77,4.36-.77-2.18-3.33-.9-3.72,2.95,3,2.95,3,.39-3.46,2.37-3.27-.57,6.86-.57,6.86Z" style="fill:#fabc5e"/><path d="M293.51,14.51,291.14,13a.12.12,0,0,1,0-.23l1.42,0a.12.12,0,0,0,.08-.2l-.66-.78a.11.11,0,0,1,.14-.18l1.07.53a.11.11,0,0,0,.17-.06l.35-1.21a.13.13,0,0,1,.22,0l1.39,1.66a.12.12,0,0,1,0,.16l-1.69,1.84A.12.12,0,0,1,293.51,14.51Z" style="fill:#f3925f;opacity:0.61"/><path d="M293.52,13.1c2.08-2.08,6-1.49,8.85,1.32s3.4,6.77,1.32,8.85-6,1.49-8.85-1.32S291.44,15.18,293.52,13.1Z" style="fill:#e78290"/><path d="M297.27,23.71a101.39,101.39,0,0,1,4.36-10,8.84,8.84,0,0,0-1.28-.88A65.9,65.9,0,0,0,296,23,9.42,9.42,0,0,0,297.27,23.71Z" style="fill:#fabc5e"/><path d="M294.62,21.71a99.24,99.24,0,0,1,4.17-9.52,6.85,6.85,0,0,0-1.73-.33,66,66,0,0,0-3.56,8.4A8.81,8.81,0,0,0,294.62,21.71Z" style="fill:#fabc5e"/><path d="M300.35,24.51c.89-2.42,2.45-5.78,3.56-8.08a9.14,9.14,0,0,0-1-1.44,65.34,65.34,0,0,0-4,9.33A6.37,6.37,0,0,0,300.35,24.51Z" style="fill:#fabc5e"/><path d="M303.69,23.27a5,5,0,0,0,1-4.83c-.86,1.8-1.71,3.95-2.37,5.71A4,4,0,0,0,303.69,23.27Z" style="fill:#fabc5e"/><path d="M293.52,13.1a5,5,0,0,0-1,4.85c.78-1.89,1.78-4.07,2.62-5.83A4,4,0,0,0,293.52,13.1Z" style="fill:#fabc5e"/><path d="M297.27,23.71a101.39,101.39,0,0,1,4.36-10,8.84,8.84,0,0,0-1.28-.88A65.9,65.9,0,0,0,296,23,9.42,9.42,0,0,0,297.27,23.71Z" style="fill:#fabc5e"/><path d="M294.62,21.71a99.24,99.24,0,0,1,4.17-9.52,6.85,6.85,0,0,0-1.73-.33,66,66,0,0,0-3.56,8.4A8.81,8.81,0,0,0,294.62,21.71Z" style="fill:#fabc5e"/><path d="M300.35,24.51c.89-2.42,2.45-5.78,3.56-8.08a9.14,9.14,0,0,0-1-1.44,65.34,65.34,0,0,0-4,9.33A6.37,6.37,0,0,0,300.35,24.51Z" style="fill:#fabc5e"/><path d="M303.69,23.27a5,5,0,0,0,1-4.83c-.86,1.8-1.71,3.95-2.37,5.71A4,4,0,0,0,303.69,23.27Z" style="fill:#fabc5e"/><path d="M293.52,13.1a5,5,0,0,0-1,4.85c.78-1.89,1.78-4.07,2.62-5.83A4,4,0,0,0,293.52,13.1Z" style="fill:#fabc5e"/><path d="M293,19.3a4.67,4.67,0,0,1,1.2-3.89c2.08-2.08,6.05-1.49,8.85,1.32a9.3,9.3,0,0,1,1.87,2.65,8.48,8.48,0,0,0-2.53-5c-2.81-2.81-6.77-3.4-8.85-1.32C292,14.58,291.92,17,293,19.3Z" style="fill:#f3925f;opacity:0.61"/><path d="M590.69,6.15a6.61,6.61,0,0,1-4.33,8.68l-2.22.64L577,17.53l-11.37,3.28a2,2,0,0,1-2.44-1.34h0A2,2,0,0,1,564.57,17l18.48-5.33a1.78,1.78,0,0,1,.45-.08l1.25-.36a2.92,2.92,0,0,0,1.87-3.95,3,3,0,0,0-3.56-1.63l-1.8.52a1.73,1.73,0,1,1-1-3.33l2.27-.66A6.68,6.68,0,0,1,590.69,6.15Z" style="fill:#e8cce4"/><path d="M565.66,20.81A2,2,0,1,1,564.57,17l.71-.2c1.62.94,3.39,2,4.75,2.73Z" style="fill:#b53b60"/><polygon points="577.03 17.53 573.99 18.41 569.16 15.7 574.58 14.13 577.63 17.35 577.03 17.53" style="fill:#b53b60"/><path d="M586.36,14.83l-2.22.64-1.52.44c-1-.68-2.78-1.87-4.25-2.87l4.12-1.2,4,2.94Z" style="fill:#b53b60"/><path d="M589,13.33c-1-.79-2.29-1.77-3.3-2.57a3,3,0,0,0,1-1.51l4.15,1A6.76,6.76,0,0,1,589,13.33Z" style="fill:#b53b60"/><path d="M590.69,6.15c0,.07,0,.14.07.2l-4.26.71a2.77,2.77,0,0,0-1.2-1.17l3.42-2.46A6.39,6.39,0,0,1,590.69,6.15Z" style="fill:#b53b60"/><path d="M586.25,2.17l-2.42,3.38a3,3,0,0,0-.77.12L582,6l.74-3.82A6.85,6.85,0,0,1,586.25,2.17Z" style="fill:#b53b60"/><path d="M579.11,5a1.73,1.73,0,0,1,1.19-2.14l.7-.2-.1,3.59A1.73,1.73,0,0,1,579.11,5Z" style="fill:#b53b60"/><g style="opacity:0.64"><path d="M567.59,18.91l9.86-2.84,6.16-1.78,1.92-.56a5.73,5.73,0,0,0,3.76-7.52,5.57,5.57,0,0,0-2.51-2.9,5.63,5.63,0,0,1,3.36,3.29,5.73,5.73,0,0,1-3.75,7.52l-1.93.56-6.16,1.78-9.85,2.85a1.73,1.73,0,0,1-1.59-.35A1.65,1.65,0,0,0,567.59,18.91Z" style="fill:#fff"/></g><path d="M574.8,15.09s1.15-4.78-.59-6.54-3.13,1.91-3.13,1.91-4.29-1.56-2.89,1.91,4.9,4.6,5.84,4.11A1.36,1.36,0,0,0,574.8,15.09Z" style="fill:#9acfdc"/><path d="M573.34,16.14l-2.31-3a9.24,9.24,0,0,1,1.79,1.5,28.26,28.26,0,0,0-.15-3.37s1.35,2.39,1.2,3.44S574.09,16.52,573.34,16.14Z" style="fill:#84b2bd"/><path d="M575.45,17.6s3.76,3.17,3.4,5.62-3.66.31-3.66.31-2.53,3.8-3.46.17S573,17.09,574,16.94A1.34,1.34,0,0,1,575.45,17.6Z" style="fill:#9acfdc"/><path d="M573.65,17.61l-.09,3.78a9.48,9.48,0,0,0,.56-2.27,28.14,28.14,0,0,1,1.87,2.8s-.33-2.72-1.07-3.48S574,16.86,573.65,17.61Z" style="fill:#84b2bd"/><path d="M573.18,14.65a2.16,2.16,0,1,0,2.67,1.49A2.17,2.17,0,0,0,573.18,14.65Z" style="fill:#9acfdc"/><path d="M440.29,23.63s-1.15,5.9-2.75,6.86-.77-4.36-.77-4.36-3.34,2.18-3.72.9,2.95-3,2.95-3-3.46-.39-3.27-2.37,6.86.57,6.86.57Z" style="fill:#fabc5e"/><path d="M440.13,23.28l-1.5,2.37a.11.11,0,0,1-.22,0l0-1.42a.11.11,0,0,0-.19-.08l-.79.67a.12.12,0,0,1-.18-.15l.54-1.07a.11.11,0,0,0-.06-.17L436.48,23a.13.13,0,0,1,0-.22l1.67-1.39a.12.12,0,0,1,.16,0l1.84,1.69A.13.13,0,0,1,440.13,23.28Z" style="fill:#f3925f;opacity:0.61"/><path d="M449.25,14.67s5.89-1.15,6.85-2.75-4.35-.77-4.35-.77,2.17-3.33.89-3.72-2.94,3-2.94,3-.39-3.46-2.38-3.27.58,6.86.58,6.86Z" style="fill:#fabc5e"/><path d="M448.9,14.51,451.27,13a.12.12,0,0,0,0-.23l-1.43,0a.12.12,0,0,1-.07-.2l.66-.78a.11.11,0,0,0-.14-.18l-1.07.53a.11.11,0,0,1-.17-.06l-.35-1.21a.13.13,0,0,0-.22,0l-1.39,1.66a.12.12,0,0,0,0,.16l1.69,1.84A.12.12,0,0,0,448.9,14.51Z" style="fill:#f3925f;opacity:0.61"/><path d="M448.88,13.1c-2.07-2.08-6-1.49-8.85,1.32s-3.4,6.77-1.32,8.85,6.05,1.49,8.85-1.32S451,15.18,448.88,13.1Z" style="fill:#e78290"/><path d="M445.13,23.71a96.84,96.84,0,0,0-4.36-10,9.51,9.51,0,0,1,1.29-.88A65.9,65.9,0,0,1,446.37,23,8.9,8.9,0,0,1,445.13,23.71Z" style="fill:#fabc5e"/><path d="M447.79,21.71a99.24,99.24,0,0,0-4.17-9.52,6.77,6.77,0,0,1,1.73-.33,67.43,67.43,0,0,1,3.56,8.4A9.39,9.39,0,0,1,447.79,21.71Z" style="fill:#fabc5e"/><path d="M442.06,24.51c-.89-2.42-2.46-5.78-3.56-8.08a9.14,9.14,0,0,1,1-1.44,65.34,65.34,0,0,1,4,9.33A6.45,6.45,0,0,1,442.06,24.51Z" style="fill:#fabc5e"/><path d="M438.71,23.27a5,5,0,0,1-1-4.83c.86,1.8,1.71,3.95,2.36,5.71A4.17,4.17,0,0,1,438.71,23.27Z" style="fill:#fabc5e"/><path d="M448.88,13.1a5,5,0,0,1,1,4.85c-.77-1.89-1.77-4.07-2.61-5.83A4,4,0,0,1,448.88,13.1Z" style="fill:#fabc5e"/><path d="M445.13,23.71a96.84,96.84,0,0,0-4.36-10,9.51,9.51,0,0,1,1.29-.88A65.9,65.9,0,0,1,446.37,23,8.9,8.9,0,0,1,445.13,23.71Z" style="fill:#fabc5e"/><path d="M447.79,21.71a99.24,99.24,0,0,0-4.17-9.52,6.77,6.77,0,0,1,1.73-.33,67.43,67.43,0,0,1,3.56,8.4A9.39,9.39,0,0,1,447.79,21.71Z" style="fill:#fabc5e"/><path d="M442.06,24.51c-.89-2.42-2.46-5.78-3.56-8.08a9.14,9.14,0,0,1,1-1.44,65.34,65.34,0,0,1,4,9.33A6.45,6.45,0,0,1,442.06,24.51Z" style="fill:#fabc5e"/><path d="M438.71,23.27a5,5,0,0,1-1-4.83c.86,1.8,1.71,3.95,2.36,5.71A4.17,4.17,0,0,1,438.71,23.27Z" style="fill:#fabc5e"/><path d="M448.88,13.1a5,5,0,0,1,1,4.85c-.77-1.89-1.77-4.07-2.61-5.83A4,4,0,0,1,448.88,13.1Z" style="fill:#fabc5e"/><path d="M449.43,19.3a4.65,4.65,0,0,0-1.21-3.89c-2.08-2.08-6-1.49-8.85,1.32a9.26,9.26,0,0,0-1.86,2.65,8.47,8.47,0,0,1,2.52-5c2.81-2.81,6.78-3.4,8.85-1.32C450.36,14.58,450.49,17,449.43,19.3Z" style="fill:#f3925f;opacity:0.61"/></g></g></g></svg>