<?xml version="1.0" encoding="utf-8"?>
<!-- Generator: Adobe Illustrator 25.0.0, SVG Export Plug-In . SVG Version: 6.00 Build 0)  -->
<svg version="1.1" id="Calque_1" focusable="false" xmlns="http://www.w3.org/2000/svg" xmlns:xlink="http://www.w3.org/1999/xlink"
	 x="0px" y="0px" viewBox="0 0 640 498.8" style="enable-background:new 0 0 640 498.8;" xml:space="preserve">
<style type="text/css">
	.st0{fill:#5CA9B0;}
	.st1{fill:#E8CCE4;}
	.st2{fill:#B53B60;}
	.st3{opacity:0.61;fill:#C58FB9;}
	.st4{opacity:0.64;fill:#FFFFFF;}
</style>
<path class="st0" d="M624,338.8h-16V230.7c0-12.7-5.1-24.9-14.1-33.9L494,96.9c-9-9-21.2-14.1-33.9-14.1h-93.3L367,338H0
	c0,26.5,21.5,64.8,48,64.8h16c0,53,43,96,96,96s96-43,96-96h128c0,53,43,96,96,96s96-43,96-96h48c8.8,0,16-7.2,16-16v-32
	C640,346,632.8,338.8,624,338.8z M160,450.8c-26.5,0-48-21.5-48-48s21.5-48,48-48s48,21.5,48,48S186.5,450.8,160,450.8z M480,450.8
	c-26.5,0-48-21.5-48-48s21.5-48,48-48s48,21.5,48,48S506.5,450.8,480,450.8z M560,242.8H416v-112h44.1l99.9,99.9V242.8z"/>
<g>
	
		<ellipse transform="matrix(0.1891 -0.982 0.982 0.1891 -5.2445 331.1053)" class="st1" cx="197.9" cy="168.7" rx="168.7" ry="168.7"/>
	<g>
		<path class="st2" d="M192.8,173c0.6-0.1,1.1-0.1,1.5-0.2c-0.1-0.9-0.2-1.4-0.2-1.6c0.3,0.4,0.6,0.7,0.8,1.1
			c-2.9-23-15.4-130.9,23.5-171C211.7,0.5,204.8,0,197.9,0c-10.6,0-21,1-31.1,2.9C164.3,40.5,162.3,128.9,192.8,173z"/>
		<path class="st2" d="M194.4,173.6c-0.3,0.2-0.5,0.4-0.8,0.6c0.2,0.2,0.3,0.4,0.5,0.6c0.1-0.2,0.3-0.4,0.4-0.5
			C194.5,174,194.4,173.8,194.4,173.6z"/>
		<path class="st2" d="M196.3,171.9c0.4-0.5,0.7-0.8,0.8-0.9c-0.1,0.8-0.3,1.6-0.4,2.3c1.5-1,3-2,4.6-3
			c19.2-24.2,81.2-98.6,133.5-100.2c-10-13.9-22.1-26.2-35.8-36.5C271.6,57.6,207,118.8,196.3,171.9z"/>
		<path class="st2" d="M197.2,175.5C197.2,175.5,197.2,175.5,197.2,175.5C197.2,175.5,197.2,175.5,197.2,175.5
			C197.2,175.5,197.2,175.5,197.2,175.5z"/>
		<path class="st2" d="M193.1,175.9C193.1,175.9,193.2,175.9,193.1,175.9c0.1-0.1,0.2-0.1,0.2-0.2
			C193.2,175.8,193.2,175.9,193.1,175.9z"/>
		<path class="st2" d="M365.2,147.1c-37.2-2.3-119.2-3.8-163.9,23.3c-1.7,2.1-3,3.9-4,5.1c22-2.7,124.3-14.7,167.2,20
			c1.4-8.7,2.1-17.6,2.1-26.7C366.6,161.4,366.1,154.2,365.2,147.1z"/>
		<path class="st2" d="M196.5,174.4c0.2,0.3,0.5,0.7,0.7,1c0,0,0,0,0,0c1-1.3,2.3-3,4-5.1c-1.6,1-3.1,2-4.6,3
			C196.6,173.7,196.6,174.1,196.5,174.4z"/>
		<path class="st2" d="M197.7,176.2c0.6,1,1.3,2,1.9,3c18.3,14.3,89.2,71.1,101.6,122.8c11.5-9,21.9-19.4,30.8-31
			C303.7,239.8,246.8,183.8,197.7,176.2z"/>
		<path class="st2" d="M197.7,176.2c-0.2-0.2-0.3-0.5-0.5-0.7c-0.2,0.2-0.3,0.4-0.4,0.6C197.1,176.1,197.4,176.2,197.7,176.2z"/>
		<path class="st2" d="M195.1,173.5c0.1-0.2,0.2-0.3,0.4-0.5c0-0.1-0.1-0.1-0.1-0.2c-0.1,0.1-0.2,0.1-0.3,0.2
			C195.1,173.2,195.1,173.3,195.1,173.5z"/>
		<path class="st2" d="M195.2,172.7c-0.1-0.1-0.2-0.2-0.3-0.3c0,0.1,0,0.3,0,0.4C195.1,172.7,195.2,172.7,195.2,172.7z"/>
		<path class="st2" d="M199.6,179.2c-1.4-1.1-2.5-2-3.3-2.6c-0.1,0.1-0.2,0.2-0.2,0.3c-0.2,1.2-0.6,2.4-0.8,3.6
			c3.3,28.2,11.1,113-16.1,155.8c6.2,0.7,12.4,1.1,18.7,1.1c8.7,0,17.3-0.7,25.6-1.9C225.4,295.6,225,220.9,199.6,179.2z"/>
		<path class="st2" d="M195.1,173.1c-0.2,0.2-0.4,0.3-0.7,0.5c0,0.2,0.1,0.5,0.1,0.7c0.2-0.3,0.4-0.6,0.6-0.8
			C195.1,173.3,195.1,173.2,195.1,173.1z"/>
		<path class="st2" d="M195,172.3c-0.3-0.4-0.6-0.8-0.8-1.1c0,0.2,0.1,0.7,0.2,1.6c0.3,0,0.5-0.1,0.7-0.1
			C195,172.6,195,172.5,195,172.3z"/>
		<path class="st2" d="M196.1,176.9c0.1-0.1,0.1-0.2,0.2-0.3c-0.1,0-0.1-0.1-0.2-0.1C196.1,176.6,196.1,176.8,196.1,176.9z"/>
		<path class="st2" d="M196.3,175.6c0,0.1,0,0.3-0.1,0.4c0.2,0,0.4,0.1,0.5,0.1c0.1-0.2,0.3-0.4,0.4-0.6c0,0,0,0,0,0
			C196.9,175.5,196.6,175.5,196.3,175.6z"/>
		<path class="st2" d="M197.2,175.5c-0.2-0.3-0.5-0.7-0.7-1c-0.1,0.4-0.1,0.8-0.2,1.1C196.6,175.5,196.9,175.5,197.2,175.5z"/>
		<path class="st2" d="M196.3,176.6c0.7,0.6,1.8,1.4,3.3,2.6c-0.6-1-1.3-2-1.9-3c-0.3,0-0.6-0.1-0.9-0.2
			C196.6,176.3,196.5,176.5,196.3,176.6z"/>
		<path class="st2" d="M196.3,176c0,0.2-0.1,0.4-0.1,0.5c0.1,0,0.1,0.1,0.2,0.1c0.1-0.2,0.3-0.4,0.5-0.6
			C196.6,176,196.4,176,196.3,176z"/>
		<path class="st2" d="M195.3,180.6c-0.2-1.8-0.4-3.4-0.6-4.8c-0.8,0.1-1.3,0.2-1.5,0.2c-15.3,19.6-72.7,90.6-124.4,101.4
			c9.7,11.5,20.9,21.7,33.2,30.2C131.7,280.6,183.7,227.8,195.3,180.6z"/>
		<path class="st2" d="M196.3,171.9c-0.2,0.3-0.5,0.7-0.9,1.1c0.2,0.2,0.4,0.5,0.6,0.7C196.1,173.1,196.2,172.5,196.3,171.9z"/>
		<path class="st2" d="M194.1,174.8c-0.2,0.3-0.5,0.6-0.8,1c0.3-0.2,0.7-0.5,1-0.7C194.2,175,194.1,174.9,194.1,174.8z"/>
		<path class="st2" d="M194.6,174.8c0-0.2,0-0.4-0.1-0.6c-0.1,0.2-0.3,0.3-0.4,0.5c0.1,0.1,0.1,0.2,0.2,0.3
			C194.4,175,194.5,174.9,194.6,174.8z"/>
		<path class="st2" d="M196,173.8c0.2-0.2,0.4-0.3,0.7-0.5c0.1-0.8,0.3-1.6,0.4-2.3c-0.1,0.1-0.4,0.4-0.8,0.9
			C196.2,172.5,196.1,173.1,196,173.8C196,173.8,196,173.8,196,173.8z"/>
		<path class="st2" d="M194.3,175.1c-0.3,0.2-0.7,0.5-1,0.7c0,0.1-0.1,0.1-0.1,0.2c0.2,0,0.7-0.1,1.5-0.2c0-0.1,0-0.1,0-0.2
			C194.5,175.4,194.4,175.2,194.3,175.1z"/>
		<path class="st2" d="M194.3,175.1c0.1,0.2,0.3,0.3,0.4,0.5c0-0.2-0.1-0.5-0.1-0.7C194.5,174.9,194.4,175,194.3,175.1z"/>
		<path class="st2" d="M196.5,174.4c0.1-0.4,0.1-0.8,0.2-1.1c-0.2,0.2-0.4,0.3-0.7,0.5C196.2,174,196.4,174.2,196.5,174.4z"/>
		<path class="st2" d="M195.4,175.8c0.1,0,0.2,0,0.3,0c0-0.1,0-0.1,0-0.2c-0.1,0-0.2,0-0.3,0C195.4,175.7,195.4,175.8,195.4,175.8z"
			/>
		<path class="st2" d="M195.6,176.1c-0.1-0.1-0.2-0.1-0.2-0.2c0,0.4,0.1,0.7,0.1,0.8c-0.2-0.3-0.5-0.6-0.7-0.9c0,0-0.1,0-0.1,0
			c0.2,1.3,0.4,2.9,0.6,4.8c0.3-1.2,0.6-2.4,0.8-3.6c-0.4,0.5-0.7,0.8-0.8,0.9C195.4,177.3,195.6,176.7,195.6,176.1z"/>
		<path class="st2" d="M195.2,174.3c0.3-0.2,0.5-0.4,0.8-0.6c0,0,0,0,0,0c-0.2-0.3-0.4-0.5-0.6-0.7c-0.1,0.1-0.2,0.3-0.4,0.5
			C195.2,173.8,195.2,174.1,195.2,174.3z"/>
		<path class="st2" d="M195.4,175.8c0,0,0-0.1,0-0.1c-0.2,0-0.4,0.1-0.6,0.1c0.2,0.3,0.5,0.6,0.7,0.9
			C195.5,176.6,195.5,176.3,195.4,175.8C195.4,175.9,195.3,175.8,195.4,175.8C195.3,175.8,195.4,175.8,195.4,175.8z"/>
		<path class="st2" d="M195.1,173.5c-0.2,0.3-0.4,0.5-0.6,0.8c0,0.2,0,0.4,0.1,0.6c0.2-0.2,0.4-0.3,0.7-0.5
			C195.2,174.1,195.2,173.8,195.1,173.5z"/>
		<path class="st2" d="M196,173.7C196,173.8,196,173.8,196,173.7C196,173.8,196,173.8,196,173.7C196,173.8,196,173.8,196,173.7z"/>
		<path class="st2" d="M195.7,175.9c0.2,0,0.4,0.1,0.6,0.1c0-0.1,0-0.3,0.1-0.4c-0.2,0-0.4,0.1-0.6,0.1
			C195.7,175.7,195.7,175.8,195.7,175.9z"/>
		<path class="st2" d="M195.6,176.1c-0.1,0.6-0.2,1.2-0.3,1.8c0.1-0.1,0.4-0.4,0.8-0.9c0-0.1,0-0.3,0.1-0.4
			C196,176.3,195.8,176.2,195.6,176.1z"/>
		<path class="st2" d="M194.7,175.6c0,0.1,0,0.1,0,0.2c0,0,0.1,0,0.1,0C194.7,175.7,194.7,175.6,194.7,175.6z"/>
		<path class="st2" d="M195.7,175.7c0.1-0.6,0.2-1.3,0.3-1.9c-0.3,0.2-0.5,0.4-0.8,0.6c0.1,0.5,0.1,1,0.2,1.3
			C195.5,175.7,195.6,175.7,195.7,175.7z"/>
		<path class="st2" d="M195.2,174.3c-0.2,0.2-0.4,0.3-0.7,0.5c0,0.2,0.1,0.5,0.1,0.7c0,0.1,0.1,0.1,0.1,0.2c0.2,0,0.4,0,0.6-0.1
			C195.3,175.3,195.3,174.9,195.2,174.3z"/>
		<path class="st2" d="M196,173.8c-0.1,0.6-0.2,1.3-0.3,1.9c0.2,0,0.4-0.1,0.6-0.1c0.1-0.4,0.1-0.8,0.2-1.1
			C196.4,174.2,196.2,174,196,173.8C196,173.8,196,173.8,196,173.8z"/>
		<path class="st2" d="M195.4,175.8C195.4,175.8,195.4,175.9,195.4,175.8c0.1,0.1,0.1,0.2,0.2,0.3c0-0.1,0-0.1,0-0.2
			C195.6,175.9,195.5,175.8,195.4,175.8z"/>
		<path class="st2" d="M195.3,175.8C195.3,175.8,195.4,175.9,195.3,175.8C195.4,175.9,195.4,175.8,195.3,175.8
			C195.4,175.8,195.3,175.8,195.3,175.8z"/>
		<path class="st2" d="M195.6,176.1c0.1,0.1,0.3,0.3,0.5,0.4c0-0.2,0.1-0.4,0.1-0.5c-0.2,0-0.4-0.1-0.6-0.1
			C195.7,175.9,195.7,176,195.6,176.1z"/>
		<path class="st2" d="M193.6,174.2c-0.3-0.4-0.5-0.8-0.8-1.2c-18,2.2-116.6,14.7-163.2-15.9c-0.3,3.9-0.4,7.7-0.4,11.7
			c0,11.4,1.1,22.5,3.3,33.3C74.7,204,153.8,203.2,193.6,174.2z"/>
		<path class="st2" d="M195.6,172.7c-0.1,0-0.2,0-0.4,0c0,0.1,0.1,0.1,0.1,0.2C195.4,172.8,195.5,172.7,195.6,172.7z"/>
		<path class="st2" d="M194.3,172.8c-0.4,0.1-0.9,0.1-1.5,0.2c0.3,0.4,0.5,0.8,0.8,1.2c0.3-0.2,0.5-0.4,0.8-0.6
			C194.4,173.3,194.3,173,194.3,172.8z"/>
		<path class="st2" d="M195.1,173.1c0.1-0.1,0.2-0.1,0.3-0.2c0-0.1-0.1-0.1-0.1-0.2c-0.1,0-0.1,0-0.2,0
			C195,172.8,195,172.9,195.1,173.1z"/>
		<path class="st2" d="M195.1,173.1c0-0.1,0-0.2,0-0.4c-0.2,0-0.4,0-0.7,0.1c0,0.2,0.1,0.5,0.1,0.8
			C194.6,173.4,194.8,173.2,195.1,173.1z"/>
		<path class="st2" d="M191.7,172.8c-2-2-95.2-69.8-106.6-129.5c-11.4,10.2-21.3,22-29.5,34.9C84.5,110,142.4,166.7,191.7,172.8z"/>
	</g>
	<path class="st3" d="M298.3,33.2c25.1,30.8,40.2,70.1,40.2,113c0,98.7-80,178.8-178.8,178.8c-11.1,0-22-1.1-32.6-3
		c21.5,9.9,45.4,15.5,70.6,15.5c93.2,0,168.7-75.5,168.7-168.7C366.5,113.2,339.7,64,298.3,33.2z"/>
	<path class="st4" d="M65.6,190.5c0-82.7,67.1-149.8,149.8-149.8c35.9,0,68.9,12.7,94.7,33.7c-27.5-33.6-69.2-55.1-116-55.1
		c-82.7,0-149.8,67.1-149.8,149.8c0,46.8,21.5,88.6,55.1,116C78.2,259.4,65.6,226.4,65.6,190.5z"/>
	<path class="st2" d="M240.1,174.2c0,21.6-18.9,39.1-42.2,39.1c-23.3,0-42.2-17.5-42.2-39.1c0-21.6,18.9-39.1,42.2-39.1
		C221.2,135,240.1,152.6,240.1,174.2z"/>
</g>
</svg>
